<?xml version="1.0" standalone="no"?>
<!DOCTYPE svg PUBLIC "-//W3C//DTD SVG 20010904//EN"
 "http://www.w3.org/TR/2001/REC-SVG-20010904/DTD/svg10.dtd">
<svg version="1.0" xmlns="http://www.w3.org/2000/svg"
 width="408.000000pt" height="612.000000pt" viewBox="0 0 408.000000 612.000000"
 preserveAspectRatio="xMidYMid meet">

<g transform="translate(0.000000,612.000000) scale(0.100000,-0.100000)"
fill="#000000" stroke="none">
<path d="M2300 4696 c0 -22 -35 -38 -78 -35 -31 2 -65 -11 -102 -39 -3 -2 4
-10 14 -17 18 -13 18 -16 3 -39 -11 -16 -30 -27 -59 -32 -24 -4 -46 -7 -51 -6
-4 1 -17 -8 -28 -19 l-22 -22 35 7 c25 4 39 2 47 -8 14 -17 -3 -29 -56 -41
-27 -5 -33 -4 -33 10 0 12 -5 15 -16 11 -9 -3 -28 -6 -44 -6 -19 0 -31 -6 -35
-18 -5 -19 -44 -42 -70 -42 -18 0 -20 41 -3 58 7 7 20 12 30 12 12 0 18 6 16
18 -3 15 4 17 48 14 50 -2 51 -2 47 22 -4 21 1 28 33 43 26 12 40 26 42 41 3
21 1 23 -31 17 -26 -5 -36 -3 -40 10 -6 14 -10 14 -34 -4 -16 -11 -37 -21 -48
-23 -16 -2 -19 2 -17 22 l2 25 -23 -29 c-25 -31 -63 -33 -61 -3 2 15 -1 15
-27 1 -16 -8 -35 -14 -42 -13 -6 1 -19 1 -27 0 -32 -3 24 -31 62 -31 49 0 105
-27 89 -43 -5 -5 -27 -16 -48 -24 -33 -11 -40 -11 -49 2 -12 16 -50 21 -56 8
-1 -5 -18 -16 -35 -25 -31 -16 -33 -16 -43 1 -9 17 -12 17 -64 -8 -31 -14 -58
-34 -61 -43 -7 -19 -65 -52 -74 -42 -3 4 0 9 7 11 6 3 12 9 12 14 0 17 -32 9
-62 -16 -16 -14 -40 -25 -53 -25 -13 0 -27 -4 -30 -10 -9 -14 -45 -12 -45 3 0
7 -9 18 -20 25 -11 7 -20 23 -20 37 0 25 -1 25 -25 9 -14 -9 -30 -25 -36 -36
-9 -16 -7 -18 14 -13 14 4 28 2 31 -4 8 -13 -61 -91 -80 -91 -19 0 -18 29 3
52 31 35 3 31 -42 -7 -44 -35 -47 -36 -65 -20 -17 16 -21 15 -65 -4 -57 -25
-73 -26 -77 -5 -5 28 -61 -27 -128 -127 -32 -49 -87 -122 -121 -161 -79 -92
-144 -192 -157 -243 -8 -32 -8 -36 1 -21 7 11 24 34 39 51 16 18 28 39 28 47
0 20 43 64 48 50 6 -19 46 -14 60 8 7 11 19 20 27 20 9 0 20 11 25 24 6 17 19
26 47 31 21 3 45 13 55 22 9 8 22 13 30 12 19 -3 68 19 68 31 0 5 5 10 11 10
6 0 33 11 61 25 27 14 61 25 74 25 13 0 24 5 24 12 0 6 2 9 5 7 9 -10 -24 -85
-53 -120 -23 -27 -29 -43 -26 -68 6 -50 14 -57 36 -30 l20 24 -6 -30 c-3 -16
-3 -24 0 -17 3 6 10 10 15 6 5 -3 9 -1 9 4 0 5 8 27 17 48 9 22 16 42 15 47
-1 4 3 7 9 7 5 0 7 4 4 10 -3 5 -1 19 5 30 l11 21 23 -23 c23 -26 24 -36 12
-227 -2 -46 -1 -80 4 -75 7 8 18 80 24 149 1 13 7 19 20 17 11 -2 15 1 11 7
-3 6 -1 11 4 11 6 0 11 -4 11 -10 0 -5 12 -10 28 -10 l27 1 -32 14 c-24 10
-31 19 -27 32 5 16 4 16 -10 -1 -16 -19 -16 -19 -16 2 0 12 -1 25 -2 29 -2 3
5 7 15 9 13 2 22 -7 29 -27 11 -32 23 -30 23 4 0 31 22 32 29 0 6 -21 9 -24
16 -13 5 8 7 25 4 37 -9 35 7 50 22 22 7 -13 13 -18 14 -11 0 7 4 11 9 8 5 -4
11 0 14 6 3 10 10 8 26 -6 18 -16 21 -17 21 -3 0 8 -6 17 -12 20 -7 2 2 4 20
5 22 0 30 -3 26 -11 -3 -7 1 -4 9 5 8 10 17 15 20 12 8 -9 76 -13 75 -5 -2 20
5 19 26 -3 27 -30 36 -32 36 -11 0 8 -7 15 -15 15 -8 0 -15 5 -15 10 0 13 11
12 33 -4 9 -7 17 -21 17 -30 0 -24 46 -20 83 6 18 13 34 23 37 23 3 0 14 6 25
12 16 10 17 12 4 13 -19 0 -33 26 -20 35 5 3 11 -2 15 -10 3 -8 12 -15 20 -15
10 0 13 6 10 15 -4 8 -1 15 6 15 8 0 11 -11 8 -30 -4 -28 -3 -29 13 -14 10 9
24 14 31 12 7 -3 24 6 38 19 30 28 42 26 46 -11 2 -16 5 -31 8 -34 6 -5 10 38
7 71 -1 9 2 17 8 17 9 0 67 -73 74 -93 2 -7 13 -7 33 0 30 10 43 38 25 56 -7
7 -13 2 -20 -16 -6 -15 -15 -27 -21 -27 -18 0 -10 36 13 58 l23 22 22 -25 c26
-30 38 -32 45 -5 3 11 10 20 16 20 6 0 11 -9 11 -20 0 -11 4 -20 9 -20 5 0 13
9 16 20 3 11 11 20 16 20 12 0 12 -2 -7 -38 -15 -32 -44 -44 -44 -19 0 9 -2 9
-8 0 -8 -13 -104 -63 -120 -63 -6 0 -8 -8 -5 -19 5 -20 -18 -42 -25 -23 -2 6
-16 -3 -32 -21 -27 -29 -29 -30 -30 -11 0 13 -8 24 -20 27 -11 3 -20 2 -20 -3
0 -4 -9 -10 -20 -13 -13 -3 -18 -10 -14 -21 4 -12 0 -16 -15 -16 -14 0 -21 6
-21 20 0 28 -24 25 -44 -5 -15 -23 -15 -25 5 -35 15 -8 34 -8 71 0 28 6 52 9
54 7 2 -2 -2 -15 -9 -30 -13 -29 -36 -34 -67 -15 -17 11 -23 8 -49 -22 -24
-30 -31 -33 -44 -21 -21 17 -37 6 -37 -25 0 -15 6 -24 15 -24 9 0 18 -6 20
-13 4 -8 24 -11 63 -10 72 4 162 -6 162 -17 0 -12 -209 -17 -220 -6 -6 6 -16
4 -25 -4 -11 -9 -19 -10 -27 -2 -6 6 -16 8 -23 6 -7 -3 -16 -1 -19 5 -5 7 -13
7 -26 -1 -15 -9 -24 -9 -44 2 -20 10 -31 11 -52 2 -14 -7 -23 -8 -19 -3 9 16
-78 17 -103 2 -12 -7 -25 -11 -28 -8 -3 3 -14 -3 -23 -12 -15 -15 -32 -18 -87
-15 -56 2 -74 -1 -94 -16 -19 -15 -21 -20 -9 -20 16 0 29 -19 29 -41 0 -5 -33
-8 -72 -7 -40 1 -77 0 -83 -2 -5 -1 -26 -2 -47 -1 -30 1 -35 4 -31 19 3 12 -1
19 -11 19 -9 0 -16 -4 -16 -9 0 -5 -10 -7 -22 -3 -21 6 -22 5 -5 -8 26 -21 21
-27 -22 -27 -22 0 -75 -8 -118 -17 -43 -9 -103 -17 -135 -17 -36 -1 -63 -7
-75 -17 -10 -9 -33 -24 -51 -35 -27 -15 -36 -16 -52 -6 -17 10 -20 10 -20 -2
0 -8 -18 -25 -40 -37 -48 -27 -58 -55 -36 -98 21 -41 46 -56 146 -89 52 -18
88 -36 94 -48 6 -10 14 -22 19 -25 19 -14 26 -72 12 -98 -18 -34 -60 -81 -72
-81 -5 0 -20 -22 -34 -50 -27 -56 -40 -62 -57 -25 -6 14 -18 25 -26 25 -33 0
-120 -56 -150 -97 -17 -23 -36 -42 -42 -43 -19 0 -52 -44 -69 -90 -9 -25 -23
-58 -32 -73 -8 -15 -12 -34 -9 -42 7 -19 99 15 136 50 14 14 29 25 32 25 9 0
26 -56 34 -112 6 -48 6 -48 -48 -102 -35 -36 -68 -58 -93 -65 -89 -24 -108
-61 -72 -139 29 -62 74 -101 124 -109 48 -7 73 -20 73 -37 0 -20 -58 -66 -82
-66 -37 0 -188 51 -196 67 -5 8 -18 13 -28 11 -16 -3 -19 -12 -19 -63 l0 -60
55 -17 c30 -9 72 -20 93 -23 21 -3 48 -16 60 -28 12 -12 28 -21 35 -19 8 2 24
-8 37 -22 20 -22 33 -26 77 -26 29 0 70 5 91 11 32 9 41 7 68 -12 16 -11 31
-20 32 -18 20 37 28 44 53 47 16 1 63 -4 104 -11 66 -13 78 -13 107 1 19 9 36
26 39 39 8 29 15 29 42 -2 25 -29 51 -31 92 -10 24 13 29 21 32 67 5 66 1 74
-24 51 -26 -23 -98 -25 -98 -2 0 9 3 19 7 23 4 4 9 28 10 53 3 40 1 44 -14 38
-40 -16 -49 -14 -68 17 -11 18 -31 35 -44 38 -14 3 -27 12 -29 19 -4 11 3 13
27 8 17 -4 31 -3 31 2 0 9 65 28 110 33 16 2 26 10 28 23 2 11 11 28 20 38 14
16 14 21 -5 56 -13 24 -17 44 -12 52 4 7 4 18 -1 24 -5 6 -7 21 -4 32 8 28 55
28 86 -1 12 -12 25 -20 28 -19 3 1 4 -4 2 -12 -4 -21 28 -35 86 -37 24 0 30
-13 10 -21 -10 -4 -10 -7 -1 -17 8 -9 16 -10 25 -3 18 14 68 9 78 -8 5 -7 19
-14 32 -14 18 0 23 -6 24 -27 1 -19 -3 -25 -13 -21 -11 4 -14 -1 -11 -18 4
-34 68 -64 107 -51 16 6 34 6 42 1 17 -11 69 -12 69 -1 0 4 9 8 19 8 11 0 17
-4 15 -8 -3 -4 4 -8 15 -8 12 0 21 -4 21 -10 0 -5 7 -10 15 -10 14 0 32 -60
26 -89 -1 -7 1 -11 6 -8 4 3 9 -5 9 -18 1 -13 9 -34 18 -46 l16 -23 0 22 c0
14 4 21 11 17 6 -4 10 -1 9 6 -4 25 12 59 24 52 6 -4 4 2 -4 12 -13 16 -13 18
0 13 8 -3 20 2 27 11 11 14 12 14 13 -1 0 -15 4 -16 26 -8 23 9 25 8 20 -7 -6
-14 -5 -16 5 -5 17 16 39 15 39 -2 0 -8 -7 -22 -16 -30 -8 -9 -11 -16 -5 -16
6 0 8 -8 4 -17 -5 -15 -3 -15 11 2 10 11 15 15 12 8 -4 -7 1 -9 14 -6 11 3 33
0 50 -5 18 -7 30 -7 30 -1 0 5 -8 9 -17 9 -14 1 -12 4 7 15 22 13 16 21 -12
16 -5 0 -8 3 -8 8 0 5 -7 8 -16 7 -9 0 -19 5 -21 12 -3 6 2 12 10 12 8 0 20
13 27 30 7 16 16 27 22 24 15 -9 38 17 38 43 0 29 23 39 56 25 15 -7 24 -8 24
-2 0 14 47 13 56 -1 4 -8 9 -7 14 2 6 9 15 5 32 -16 17 -19 27 -24 32 -17 4 7
3 12 -3 12 -6 0 -8 6 -5 14 4 11 13 12 39 5 29 -8 40 -5 81 21 54 34 72 37
100 15 10 -8 29 -15 42 -15 36 0 27 -34 -15 -56 -21 -10 -47 -19 -58 -18 -11
1 -25 2 -31 3 -7 1 -14 10 -17 21 -3 11 -11 20 -17 20 -8 0 -10 -9 -6 -25 8
-31 -19 -36 -29 -5 -7 23 -30 26 -50 6 -12 -12 -12 -16 0 -26 8 -7 15 -20 15
-29 0 -19 -51 -61 -75 -61 -22 0 -18 18 6 25 19 6 19 8 5 24 -12 13 -13 20 -4
29 9 9 8 12 -6 12 -9 0 -14 5 -11 10 12 19 -7 10 -24 -12 -18 -21 -17 -58 0
-58 15 0 10 -70 -7 -105 -11 -23 -25 -36 -44 -40 -16 -3 -31 -13 -34 -22 -4
-9 -14 -13 -25 -10 -11 3 -22 -1 -24 -8 -3 -7 -21 -11 -44 -10 -39 2 -73 -9
-73 -24 0 -14 37 -20 49 -8 8 8 11 8 11 -1 0 -6 7 -9 17 -5 11 4 14 3 9 -5 -4
-7 -2 -12 5 -12 9 0 8 -4 -3 -12 -8 -7 -21 -22 -27 -33 -11 -18 -12 -18 -8 8
3 19 1 24 -7 18 -16 -13 -108 7 -100 21 5 7 2 8 -5 4 -7 -5 -10 -14 -7 -22 3
-8 1 -14 -5 -14 -21 0 -39 -26 -26 -39 8 -8 8 -11 0 -11 -6 0 -14 8 -17 17 -6
15 -8 15 -16 3 -8 -13 -10 -13 -10 2 0 9 6 19 13 21 10 4 10 6 0 6 -7 1 -13 6
-13 12 0 5 5 7 11 4 6 -4 9 0 7 11 -2 10 3 19 10 20 6 1 22 2 35 4 12 1 16 4
10 7 -18 7 -16 23 2 23 8 0 19 9 25 20 7 14 7 20 0 20 -5 0 -10 -6 -10 -12 0
-10 -3 -9 -9 1 -7 10 -13 11 -30 2 -17 -10 -20 -9 -15 4 4 8 1 15 -5 15 -7 0
-14 -6 -17 -14 -7 -19 -94 -17 -94 2 0 7 5 10 11 6 7 -4 10 -1 7 7 -2 7 -16
16 -30 20 -21 5 -25 4 -21 -8 4 -9 -2 -16 -16 -20 l-22 -6 21 -22 c18 -19 19
-23 6 -28 -9 -4 -15 -1 -13 6 1 7 -6 11 -17 9 -11 -2 -15 1 -11 8 10 16 -15
60 -34 60 -14 0 -14 2 -1 11 11 8 9 9 -10 3 -14 -3 -31 -11 -38 -17 -11 -9
-11 -13 3 -23 9 -6 25 -10 35 -7 12 3 20 0 20 -7 0 -17 -41 -49 -64 -50 -19 0
-19 0 0 21 10 11 14 20 9 19 -22 -5 -35 1 -35 15 0 8 -8 15 -17 16 -10 0 -13
3 -6 5 19 8 -6 54 -30 54 -11 0 -17 -3 -14 -7 10 -9 -31 -35 -43 -28 -6 3 -10
13 -10 21 0 33 -24 5 -26 -30 -2 -30 1 -36 13 -32 13 5 14 4 4 -8 -11 -13 -17
-13 -46 2 -18 9 -32 21 -32 26 3 12 -36 17 -52 6 -12 -7 -13 -11 -1 -25 19
-23 -1 -39 -40 -30 -22 5 -30 11 -26 21 4 9 1 12 -5 9 -6 -4 -8 -13 -5 -20 2
-7 -6 -23 -19 -35 -13 -12 -25 -34 -27 -48 -3 -22 -11 -27 -73 -42 -38 -9 -94
-32 -123 -50 -48 -30 -51 -35 -37 -50 30 -33 8 -75 -37 -68 -17 2 -24 11 -26
33 -2 17 -8 35 -14 40 -7 7 -8 -1 -3 -25 9 -42 -7 -30 -23 18 l-11 32 40 0
c22 0 38 4 35 9 -3 5 4 11 17 15 12 3 58 22 102 43 l80 37 -48 7 c-31 5 -54
15 -67 31 -19 23 -19 23 -20 2 0 -15 -11 -27 -36 -39 -27 -13 -33 -19 -24 -30
16 -20 -9 -25 -66 -12 -27 6 -55 19 -61 28 -15 20 -57 32 -84 24 -20 -7 -21
-32 -2 -28 17 3 99 -219 88 -237 -3 -5 -2 -10 4 -10 5 0 24 -24 41 -53 31 -51
65 -77 103 -77 13 0 17 5 13 16 -3 9 -6 20 -6 25 0 5 -4 9 -10 9 -5 0 -10 -8
-10 -17 0 -15 -2 -16 -10 -3 -30 46 18 70 89 45 22 -7 53 -13 69 -13 16 1 43
-9 60 -21 42 -29 62 -27 110 14 42 37 71 100 53 118 -5 5 -7 16 -4 25 5 11 3
13 -7 7 -8 -5 -11 -4 -6 3 10 17 -129 111 -156 104 -14 -3 -19 -1 -14 6 10 17
46 15 81 -4 19 -9 41 -13 60 -10 l30 6 -23 -16 -23 -16 38 -36 c21 -21 43 -46
49 -57 11 -20 12 -20 65 2 39 17 56 20 64 12 7 -9 6 -10 -3 -5 -8 5 -29 -3
-52 -19 -38 -27 -44 -45 -14 -45 8 0 14 -5 14 -10 0 -12 -48 -3 -68 13 -27 22
-25 -11 9 -100 6 -17 4 -23 -11 -28 -12 -4 -26 0 -36 9 -20 21 -32 20 -79 -4
l-38 -20 37 -15 c20 -9 42 -12 49 -8 7 4 6 0 -2 -11 -12 -14 -12 -19 -1 -29
10 -9 11 -9 6 1 -9 16 6 16 22 0 10 -10 14 -8 19 12 6 22 7 22 14 4 6 -17 12
-13 57 34 29 31 59 52 71 52 12 0 29 9 38 20 10 11 29 20 43 20 35 0 50 17 50
58 0 27 9 43 50 82 28 27 50 53 50 58 0 5 6 15 13 21 11 9 14 4 15 -25 1 -29
-8 -47 -45 -92 l-45 -57 40 -8 c22 -4 46 -14 53 -23 10 -12 9 -13 -3 -9 -8 3
-20 -1 -27 -9 -10 -12 -9 -14 8 -9 12 3 21 1 21 -5 0 -24 -47 -36 -133 -34
-58 1 -86 -2 -82 -9 4 -5 -1 -21 -9 -34 -15 -22 -15 -25 -1 -25 8 0 15 6 15
13 1 7 6 5 14 -6 8 -10 16 -14 17 -8 4 10 28 14 73 12 28 -1 28 -1 21 -48 -11
-68 -11 -77 0 -83 6 -3 12 15 15 40 3 31 9 44 19 42 7 -1 18 1 25 5 6 5 20 8
31 8 15 0 19 -7 18 -25 -3 -23 -2 -24 11 -7 10 13 24 18 44 16 55 -6 106 37
81 67 -16 19 -29 17 -56 -8 l-23 -21 0 64 c0 37 4 59 9 51 6 -10 10 -10 21 3
7 8 19 15 26 15 20 0 17 9 -8 30 l-23 19 38 16 c23 9 58 15 85 13 43 -3 49 -6
64 -38 9 -20 18 -67 20 -110 3 -74 3 -75 -23 -78 -23 -3 -28 3 -44 45 -17 44
-47 83 -65 83 -4 0 -12 -10 -17 -23 -10 -20 -5 -30 33 -73 24 -27 44 -59 44
-70 0 -22 24 -39 41 -28 5 3 10 15 10 27 1 17 3 15 8 -8 7 -29 7 -29 15 -7 6
17 13 22 28 19 25 -7 42 34 33 81 -12 67 21 95 61 51 17 -19 18 -21 1 -30 -10
-6 -17 -22 -17 -39 0 -16 -4 -32 -10 -35 -5 -3 -15 -15 -20 -26 -9 -16 -7 -21
15 -29 14 -5 28 -17 31 -25 4 -10 13 -13 25 -10 11 4 19 2 19 -4 0 -6 -4 -11
-10 -11 -5 0 -10 -5 -10 -10 0 -6 12 -2 27 7 15 10 39 19 53 20 65 6 154 3
163 -6 7 -7 22 -5 45 5 36 15 62 13 62 -5 0 -5 -8 -7 -18 -4 -10 2 -29 -5 -43
-17 l-24 -21 24 7 c15 4 27 1 32 -7 8 -12 11 -12 18 0 8 12 13 12 35 -2 14 -9
38 -17 53 -17 31 -1 63 -21 63 -39 0 -7 5 -9 10 -6 6 3 10 2 10 -2 0 -10 -85
-66 -97 -64 -17 3 -54 42 -48 51 3 6 2 10 -3 10 -16 0 -22 -41 -7 -46 10 -4
10 -11 1 -29 -6 -13 -15 -20 -21 -17 -5 4 -25 8 -44 9 -33 2 -55 15 -57 34 -1
5 -2 12 -3 17 -2 11 -31 -48 -31 -64 0 -22 -42 -16 -82 11 -21 14 -59 28 -85
32 -26 3 -63 15 -81 25 -18 10 -35 18 -37 18 -3 0 -3 -21 -1 -48 3 -26 2 -52
-2 -59 -10 -15 -61 -35 -73 -27 -5 3 -9 2 -8 -3 1 -4 -1 -16 -5 -25 -4 -9 -2
-26 4 -38 10 -18 9 -21 -1 -18 -14 5 -42 134 -34 155 3 8 -5 13 -20 13 -26 0
-41 -15 -25 -25 5 -3 10 -18 10 -32 0 -19 -4 -24 -16 -19 -12 5 -15 2 -10 -10
5 -14 4 -15 -7 -5 -19 15 -41 -10 -33 -37 4 -11 0 -24 -9 -32 -13 -11 -15 -8
-15 23 0 30 -3 35 -20 32 -11 -2 -20 1 -20 7 0 7 -6 6 -15 -2 -10 -9 -15 -9
-15 -1 0 6 -5 11 -11 11 -5 0 -7 -4 -4 -10 3 -5 1 -10 -4 -10 -16 0 -13 11 7
33 12 14 13 18 2 11 -8 -4 -22 -7 -31 -6 -18 3 -33 -45 -16 -51 13 -4 0 -27
-16 -27 -8 0 -8 3 2 9 9 6 10 11 2 15 -6 4 -11 17 -11 30 0 12 -7 31 -15 42
-8 10 -15 15 -14 9 3 -21 -1 -35 -11 -35 -5 0 -10 7 -10 16 0 14 -3 14 -15 4
-13 -10 -15 -9 -15 9 0 12 -6 21 -15 21 -8 0 -15 -5 -15 -11 0 -8 -4 -8 -14 0
-8 7 -27 14 -42 17 -16 3 -31 7 -33 10 -2 2 -13 -4 -23 -13 -17 -15 -18 -15
-13 -1 5 13 -2 19 -32 27 -21 6 -50 11 -65 11 -15 0 -30 5 -33 10 -4 6 -10 8
-15 5 -5 -3 -11 -1 -14 4 -9 13 -116 12 -116 -1 0 -6 11 -8 25 -6 14 3 28 1
31 -3 3 -5 -2 -9 -10 -9 -9 0 -16 -5 -16 -11 0 -5 -4 -8 -9 -4 -5 3 -12 1 -16
-5 -3 -5 -27 -10 -52 -10 -36 0 -46 4 -50 19 -3 12 -11 17 -19 14 -8 -3 -14 0
-14 6 0 5 -20 22 -45 37 -25 14 -45 32 -45 40 0 8 -8 14 -18 14 -10 0 -23 5
-30 12 -8 8 -15 8 -27 -2 -12 -10 -15 -10 -15 3 0 17 -49 40 -76 36 -31 -4
-108 21 -132 44 -63 58 -162 234 -162 287 0 20 -1 20 -30 5 -27 -14 -29 -18
-19 -38 93 -173 264 -358 394 -424 152 -77 314 -127 595 -183 289 -57 523 -76
950 -74 205 0 221 2 345 32 72 17 183 38 247 47 212 29 415 92 528 165 75 48
190 175 233 258 l38 72 -30 0 c-17 0 -31 4 -31 9 0 15 29 79 39 85 15 9 59
-14 76 -41 20 -31 30 -29 45 7 11 28 118 130 135 130 4 0 23 -14 42 -30 32
-29 63 -39 63 -22 0 4 -18 26 -40 47 -22 21 -40 42 -40 45 0 4 11 12 25 18 17
8 25 20 25 37 0 17 9 29 28 39 15 8 38 26 51 40 23 24 23 27 8 44 -10 10 -17
26 -17 36 0 22 -26 31 -54 18 -13 -6 -44 -13 -69 -17 l-46 -7 -21 42 c-24 47
-23 47 -142 19 l-57 -13 -48 52 c-27 28 -45 53 -41 54 4 2 3 19 -2 38 -15 53
-14 224 2 249 16 27 71 45 111 37 23 -5 39 0 68 20 21 14 41 34 44 44 3 10 33
46 66 80 33 35 65 74 70 87 14 37 11 180 -3 190 -22 14 -81 34 -127 44 -24 5
-49 14 -56 19 -11 9 -29 93 -30 138 0 8 25 22 55 33 64 22 97 54 79 75 -9 11
-8 19 5 32 9 10 16 29 16 42 0 30 -18 138 -36 218 -14 65 -61 182 -73 182 -4
0 -3 27 3 59 18 111 -26 231 -136 367 -79 97 -216 226 -278 262 -25 14 -64 43
-88 64 -42 39 -85 49 -88 21 -1 -7 -2 -17 -3 -23 0 -5 -12 -10 -26 -10 -18 0
-26 7 -31 25 -4 16 -13 25 -26 25 -17 0 -19 -4 -13 -31 7 -32 7 -32 -28 -25
-21 4 -38 2 -42 -4 -10 -16 -45 7 -45 30 0 11 -9 24 -19 30 -12 6 -17 17 -14
28 3 14 -2 21 -19 26 -21 6 -22 7 -5 20 9 7 17 23 17 35 0 15 6 21 23 22 l22
0 -21 11 c-18 8 -26 6 -43 -11 -12 -12 -32 -21 -46 -21 -31 0 -33 -25 -5 -42
31 -20 24 -38 -13 -38 -24 0 -41 8 -61 29 -34 35 -29 59 13 67 43 9 48 64 6
64 -1 0 -5 -9 -8 -21 -3 -12 -10 -18 -17 -14 -6 3 -24 4 -40 0 -26 -6 -29 -9
-19 -27 8 -15 7 -24 -6 -38 -11 -12 -13 -20 -5 -25 16 -10 1 -25 -26 -25 -14
0 -35 11 -47 24 -19 21 -26 22 -44 12 -16 -8 -20 -15 -13 -26 16 -26 11 -40
-15 -40 -26 0 -49 29 -40 52 3 7 -4 19 -14 25 -17 11 -21 10 -26 -7 -3 -11
-19 -27 -36 -37 -29 -17 -34 -25 -23 -36 3 -3 16 6 28 20 13 15 28 23 34 19
31 -19 -14 -84 -46 -67 -9 6 -34 13 -54 16 -37 6 -68 27 -68 46 0 5 10 14 23
19 39 16 84 70 71 83 -11 11 -119 -6 -127 -19 -13 -22 -46 -16 -72 14 -45 50
-25 85 46 80 49 -3 60 -19 27 -37 -22 -11 -22 -11 6 -6 35 7 69 45 55 61 -5 7
-8 18 -7 25 2 7 -5 15 -14 17 -11 2 -18 -2 -18 -12z m-60 -201 c0 -5 3 -20 6
-32 6 -20 3 -23 -25 -23 -24 0 -31 4 -31 19 0 17 -5 19 -35 14 -27 -4 -35 -2
-35 9 0 8 3 18 7 21 10 11 113 4 113 -8z m-542 -17 c31 -31 -2 -73 -45 -57
-38 14 -24 69 17 69 9 0 21 -5 28 -12z m651 -65 c55 -14 48 -29 -15 -36 -60
-6 -94 4 -94 28 0 26 28 28 109 8z m529 -19 c2 -11 -4 -26 -12 -33 -22 -18
-56 3 -56 35 0 22 4 25 33 22 24 -2 33 -8 35 -24z m-265 -13 c5 -22 -20 -51
-46 -51 -8 0 -23 7 -32 16 -15 15 -15 18 1 35 23 26 70 25 77 0z m151 -14 c8
-12 8 -22 0 -34 -15 -24 -34 -23 -51 3 -12 19 -12 24 3 38 19 19 33 17 48 -7z
m-1424 3 c0 -5 -5 -10 -11 -10 -5 0 -7 5 -4 10 3 6 8 10 11 10 2 0 4 -4 4 -10z
m1729 -46 c39 -15 58 -38 41 -49 -15 -9 -105 30 -108 48 -4 21 16 22 67 1z
m-499 -40 c0 -32 -25 -41 -50 -19 -24 22 -25 29 -4 49 21 22 54 4 54 -30z
m722 9 c33 -31 35 -43 10 -43 -21 0 -76 53 -65 63 12 13 27 7 55 -20z m-102
-15 c16 -27 17 -34 6 -36 -22 -5 -66 28 -66 49 0 32 38 23 60 -13z m-980 12
c0 -5 -4 -10 -10 -10 -5 0 -10 5 -10 10 0 6 5 10 10 10 6 0 10 -4 10 -10z
m-100 -10 c0 -5 -5 -10 -11 -10 -5 0 -7 5 -4 10 3 6 8 10 11 10 2 0 4 -4 4
-10z m371 -23 c4 -14 5 -28 2 -31 -10 -10 -43 15 -43 33 0 40 30 39 41 -2z
m-661 2 c0 -12 -51 -49 -61 -44 -17 11 13 53 37 53 13 0 24 -4 24 -9z m1038
-15 c26 -17 29 -44 5 -44 -27 0 -83 38 -83 56 0 13 6 15 28 9 15 -3 37 -13 50
-21z m-1131 -26 c-3 -7 -5 -2 -5 12 0 14 2 19 5 13 2 -7 2 -19 0 -25z m133 28
c0 -3 -4 -8 -10 -11 -5 -3 -10 -1 -10 4 0 6 5 11 10 11 6 0 10 -2 10 -4z m30
0 c0 -3 -4 -8 -10 -11 -5 -3 -10 -1 -10 4 0 6 5 11 10 11 6 0 10 -2 10 -4z
m-280 -16 c0 -5 -2 -10 -4 -10 -3 0 -8 5 -11 10 -3 6 -1 10 4 10 6 0 11 -4 11
-10z m-390 -25 c-14 -17 -30 -20 -30 -6 0 5 8 12 18 14 9 3 19 5 21 6 2 0 -2
-6 -9 -14z m521 -28 c-6 -8 -8 -17 -4 -20 3 -4 -3 -7 -14 -7 -12 0 -23 -7 -27
-15 -9 -23 -28 -18 -24 8 2 12 8 21 13 21 6 -1 19 5 30 12 25 18 41 18 26 1z
m744 -7 c3 -6 -5 -14 -19 -19 -18 -8 -23 -15 -19 -30 4 -14 1 -21 -10 -21 -27
0 -28 30 -2 56 26 26 40 30 50 14z m-1220 -32 c-1 -12 -12 -28 -26 -37 -13 -8
-21 -11 -17 -7 4 5 3 17 -3 28 -13 24 -4 38 25 38 17 0 22 -5 21 -22z m2065
-9 c0 -6 -4 -7 -10 -4 -5 3 -10 11 -10 16 0 6 5 7 10 4 6 -3 10 -11 10 -16z
m-2030 -21 c0 -19 -16 -5 -17 14 -2 18 0 20 7 8 5 -8 10 -18 10 -22z m344 17
c-4 -8 -11 -15 -16 -15 -6 0 -5 6 2 15 7 8 14 15 16 15 2 0 1 -7 -2 -15z m48
-37 c-8 -31 -34 -57 -40 -40 -2 7 -8 10 -13 6 -5 -3 -9 0 -9 5 0 10 14 15 32
12 4 0 12 8 18 19 14 26 20 25 12 -2z m-552 -8 c0 -5 -2 -10 -4 -10 -3 0 -8 5
-11 10 -3 6 -1 10 4 10 6 0 11 -4 11 -10z m-95 -20 c-3 -5 -1 -10 6 -10 7 0 5
-8 -7 -19 -10 -10 -23 -16 -28 -13 -4 2 -4 7 1 11 5 3 12 14 16 24 3 9 9 17
12 17 4 0 3 -4 0 -10z m1137 -32 c-9 -9 -12 -7 -12 12 0 19 3 21 12 12 9 -9 9
-15 0 -24z m35 -15 c-4 -17 -4 -17 -12 0 -4 9 -4 25 0 35 8 16 8 16 12 0 3
-10 3 -26 0 -35z m-85 12 c0 -5 -5 -11 -11 -13 -6 -2 -11 4 -11 13 0 9 5 15
11 13 6 -2 11 -8 11 -13z m-1119 -53 c-5 -12 -7 -12 -15 2 -11 20 1 44 12 25
5 -6 6 -19 3 -27z m-31 -14 c-7 -7 -12 -8 -12 -2 0 14 12 26 19 19 2 -3 -1
-11 -7 -17z m1228 12 c0 -5 -2 -10 -4 -10 -3 0 -8 5 -11 10 -3 6 -1 10 4 10 6
0 11 -4 11 -10z m-100 -20 c0 -5 -9 -10 -20 -10 -11 0 -20 5 -20 10 0 6 9 10
20 10 11 0 20 -4 20 -10z m56 -27 c-4 -9 -1 -22 5 -29 16 -20 -22 -58 -51 -49
-14 4 -28 1 -40 -10 -17 -16 -20 -15 -38 3 -13 13 -28 18 -46 15 -19 -4 -26
-1 -26 11 0 10 9 17 23 17 144 9 157 12 157 45 0 15 4 23 11 19 6 -4 8 -14 5
-22z m931 -28 c-4 -8 -14 -15 -23 -15 -16 0 -16 2 1 20 20 22 31 20 22 -5z
m403 -4 c0 -31 -22 -57 -40 -46 -22 14 -2 75 25 75 10 0 15 -10 15 -29z m-355
9 c-3 -5 -12 -10 -18 -10 -7 0 -6 4 3 10 19 12 23 12 15 0z m95 -10 c0 -5 5
-10 11 -10 5 0 7 5 3 11 -4 7 -2 10 5 8 7 -3 12 -8 11 -13 -3 -14 23 -26 43
-20 11 4 17 0 17 -12 0 -15 -7 -16 -57 -10 -58 7 -87 21 -77 37 3 5 10 7 15 4
5 -4 9 -1 9 4 0 6 5 11 10 11 6 0 10 -4 10 -10z m-490 -9 c0 -5 25 -12 55 -16
43 -5 55 -10 55 -24 0 -9 5 -22 11 -28 7 -7 5 -15 -6 -27 -9 -9 -15 -23 -12
-31 8 -18 -24 -22 -90 -11 -58 10 -103 -2 -103 -29 0 -8 -6 -15 -14 -15 -9 0
-12 7 -9 20 8 31 -23 25 -49 -10 -30 -41 -40 -38 -33 12 7 44 27 82 38 71 4
-3 7 -1 7 5 0 6 -5 14 -10 17 -11 7 -4 25 10 25 5 0 7 -7 4 -15 -9 -23 12 -18
33 8 28 35 113 71 113 48z m-190 -5 c0 -3 -4 -8 -10 -11 -5 -3 -10 -1 -10 4 0
6 5 11 10 11 6 0 10 -2 10 -4z m-138 -18 c15 -12 22 -35 19 -65 0 -6 -9 -14
-19 -17 -11 -4 -18 -15 -18 -28 1 -17 -5 -23 -26 -25 -33 -2 -34 1 -8 29 17
19 18 23 5 42 -16 21 -20 58 -8 69 10 11 38 8 55 -5z m678 -14 c0 -8 5 -14 10
-14 6 0 10 -5 10 -11 0 -5 -5 -7 -11 -3 -6 3 -15 0 -20 -7 -13 -21 -22 -3 -9
20 6 12 8 27 4 33 -4 7 -3 8 4 4 7 -4 12 -14 12 -22z m-582 -41 c-5 -25 -28
-28 -28 -4 0 12 6 21 16 21 9 0 14 -7 12 -17z m400 -5 c-2 -6 -10 -14 -16 -16
-7 -2 -10 2 -6 12 7 18 28 22 22 4z m-445 -44 c11 -11 -5 -34 -24 -34 -10 0
-19 2 -19 4 0 2 -3 11 -6 20 -5 12 0 16 18 16 14 0 27 -3 31 -6z m708 -21
c-12 -20 -14 -14 -5 12 4 9 9 14 11 11 3 -2 0 -13 -6 -23z m109 23 c0 -3 -4
-8 -10 -11 -5 -3 -10 -1 -10 4 0 6 5 11 10 11 6 0 10 -2 10 -4z m-30 -26 c0
-11 5 -20 10 -20 6 0 10 -5 10 -11 0 -6 -7 -9 -15 -5 -8 3 -15 1 -15 -4 0 -6
-9 -5 -20 2 -14 9 -16 14 -7 20 7 4 13 12 13 18 2 18 4 20 14 20 6 0 10 -9 10
-20z m45 10 c-9 -14 8 -13 23 2 8 8 12 8 12 1 0 -18 -29 -36 -46 -29 -13 5
-14 9 -4 21 14 17 24 20 15 5z m-80 -10 c3 -5 -1 -10 -9 -10 -9 0 -16 5 -16
10 0 6 4 10 9 10 6 0 13 -4 16 -10z m147 -9 c8 12 9 12 6 0 -2 -8 -15 -16 -27
-18 -21 -3 -22 -1 -10 13 9 11 14 13 17 4 3 -9 7 -9 14 1z m-1092 -11 c0 -5
-9 -10 -21 -10 -11 0 -17 5 -14 10 3 6 13 10 21 10 8 0 14 -4 14 -10z m40 6
c0 -11 -19 -15 -25 -6 -3 5 1 10 9 10 9 0 16 -2 16 -4z m791 -22 c17 -21 1
-36 -34 -29 -18 4 -53 7 -79 7 -39 0 -48 3 -48 17 0 15 7 17 45 14 25 -3 45
-1 45 4 0 14 57 3 71 -13z m-1536 7 c6 -10 -21 -41 -36 -41 -14 0 -11 38 4 43
19 8 25 8 32 -2z m595 0 c0 -6 -4 -13 -10 -16 -5 -3 -10 1 -10 9 0 9 5 16 10
16 6 0 10 -4 10 -9z m-760 -26 c0 -29 -8 -33 -64 -37 -55 -4 -55 15 1 39 62
27 63 27 63 -2z m2001 -2 c8 -16 15 -32 14 -38 -5 -29 -20 -45 -42 -45 -13 0
-22 4 -19 9 3 5 0 14 -8 20 -10 8 -16 9 -19 1 -3 -6 -4 -5 -3 2 2 7 11 12 20
12 9 -1 16 2 16 7 0 5 7 6 15 3 22 -9 18 9 -5 26 -14 10 -16 16 -7 22 18 12
21 10 38 -19z m89 -4 c0 -10 -4 -19 -10 -19 -5 0 -10 12 -10 26 0 14 4 23 10
19 6 -3 10 -15 10 -26z m-49 -1 c29 -35 23 -58 -6 -25 -24 27 -32 47 -19 47 3
0 14 -10 25 -22z m-2201 -8 c0 -5 -4 -10 -9 -10 -6 0 -13 5 -16 10 -3 6 1 10
9 10 9 0 16 -4 16 -10z m2080 -15 c0 -2 -10 -10 -22 -16 -21 -11 -22 -11 -9 4
13 16 31 23 31 12z m-1728 -20 c0 -5 -5 -11 -11 -13 -6 -2 -11 4 -11 13 0 9 5
15 11 13 6 -2 11 -8 11 -13z m478 -36 c9 -5 23 -1 35 9 20 17 20 17 1 -5 -17
-20 -17 -24 -3 -52 19 -38 4 -41 -19 -5 -10 14 -33 37 -53 50 l-36 25 30 -7
c17 -4 37 -10 45 -15z m-1090 -84 c0 -8 -7 -15 -15 -15 -9 0 -12 6 -9 15 4 8
10 15 15 15 5 0 9 -7 9 -15z m30 -30 c0 -8 -4 -15 -10 -15 -5 0 -10 7 -10 15
0 8 5 15 10 15 6 0 10 -7 10 -15z m-60 -6 c0 -6 7 -9 15 -5 8 3 15 1 15 -3 0
-5 -6 -12 -12 -14 -8 -3 -6 -6 5 -6 18 -1 25 -31 7 -31 -5 0 -10 5 -10 10 0 6
-5 10 -11 10 -6 0 -9 -6 -6 -12 6 -18 -12 -50 -24 -43 -19 12 -68 -6 -66 -24
1 -12 7 -17 18 -14 9 3 20 0 24 -7 4 -7 -1 -13 -11 -16 -19 -5 -44 -46 -44
-71 0 -7 -6 -13 -14 -13 -9 0 -12 -7 -9 -20 4 -16 2 -19 -11 -14 -9 3 -16 5
-16 3 -13 -109 -12 -116 12 -115 19 1 23 -4 22 -27 -1 -16 3 -26 10 -24 11 4
28 67 17 67 -3 0 -12 14 -20 31 -12 27 -11 35 5 65 10 19 21 34 25 34 16 0 16
-305 -1 -325 -18 -21 -49 -19 -71 7 -23 25 -22 17 -4 68 19 54 19 61 -2 53
-13 -5 -15 -2 -11 15 4 15 2 22 -8 22 -11 0 -13 9 -8 40 8 47 -2 50 -40 15
-22 -21 -25 -27 -14 -39 11 -12 13 -12 16 0 2 8 8 14 13 14 6 0 7 5 4 10 -3 6
-1 10 4 10 14 0 14 -13 1 -26 -8 -8 -6 -15 5 -24 18 -15 20 -31 2 -24 -15 5
-17 -61 -3 -84 5 -9 0 -22 -15 -39 -13 -13 -23 -26 -22 -29 6 -9 -41 -53 -49
-48 -5 4 1 17 13 31 20 20 21 26 9 33 -8 5 -11 12 -7 16 4 4 -2 17 -13 29 -12
12 -20 28 -18 36 2 7 -6 13 -17 14 -13 0 -21 8 -23 24 -3 19 0 22 13 18 25
-10 41 12 37 54 -4 33 -1 40 19 48 32 12 62 48 46 55 -7 2 -4 5 6 5 15 1 16 4
7 21 -8 16 -7 26 5 42 8 13 15 31 15 41 0 10 9 21 20 24 11 3 23 16 26 30 5
18 12 23 25 20 10 -3 26 1 36 9 15 11 16 15 4 23 -8 5 -10 14 -6 21 6 10 10 9
17 -4 5 -9 18 -16 28 -16 16 0 20 7 20 30 0 17 5 30 10 30 6 0 10 -5 10 -11z
m-410 -41 c9 1 23 -4 30 -13 15 -19 -2 -45 -31 -45 -11 0 -16 -5 -13 -14 8
-20 -33 -27 -78 -13 -21 6 -38 15 -38 19 0 5 -7 8 -15 8 -17 0 -20 35 -4 46 6
3 16 1 22 -5 18 -18 46 -12 63 14 14 21 19 23 32 13 8 -7 23 -12 32 -10z m228
-6 c2 -7 -5 -15 -15 -19 -10 -3 -25 -12 -35 -20 -12 -11 -18 -11 -23 -3 -5 7
4 22 21 36 30 24 45 26 52 6z m236 -13 c-9 -10 -22 -19 -28 -19 -6 0 -3 5 7
11 9 5 17 17 17 25 0 8 5 12 11 9 7 -5 4 -14 -7 -26z m86 -4 c-7 -9 -15 -13
-17 -11 -7 7 7 26 19 26 6 0 6 -6 -2 -15z m854 0 c3 -8 1 -15 -4 -15 -6 0 -10
7 -10 15 0 8 2 15 4 15 2 0 6 -7 10 -15z m-912 -37 c-6 -6 -15 -8 -19 -4 -4 4
-1 11 7 16 19 12 27 3 12 -12z m-272 2 c0 -5 -5 -10 -11 -10 -5 0 -7 5 -4 10
3 6 8 10 11 10 2 0 4 -4 4 -10z m173 -12 c4 -10 8 -9 16 2 7 9 11 10 11 3 0
-6 -4 -14 -9 -17 -12 -8 -41 3 -41 15 0 13 18 11 23 -3z m1532 -39 c0 -8 -9
-14 -20 -14 -11 0 -26 -4 -33 -9 -26 -16 -23 2 4 23 29 23 49 23 49 0z m-1130
-9 c3 -5 1 -10 -4 -10 -6 0 -11 5 -11 10 0 6 2 10 4 10 3 0 8 -4 11 -10z m80
-47 c19 -9 35 -20 35 -25 0 -14 -15 -9 -50 17 -40 29 -35 32 15 8z m940 7 c-9
-15 -65 -42 -65 -32 0 5 15 16 33 25 39 19 40 19 32 7z m-484 -27 c12 -15 12
-16 -1 -8 -8 5 -23 8 -32 7 -10 -2 -18 2 -18 7 0 17 36 13 51 -6z m99 -23 c27
-14 49 -18 67 -14 25 7 27 6 15 -9 -21 -26 -47 -29 -88 -12 -46 19 -66 34 -58
46 8 13 21 11 64 -11z m284 5 c-4 -8 -10 -12 -15 -9 -11 6 -2 24 11 24 5 0 7
-7 4 -15z m-642 -88 c14 -4 25 -12 26 -19 0 -7 4 -23 7 -35 6 -19 4 -23 -15
-23 -17 0 -20 4 -15 20 4 14 2 20 -8 20 -19 0 -107 78 -107 96 0 9 15 2 44
-20 24 -18 55 -36 68 -39z m1173 32 c-3 -4 -1 -10 5 -14 5 -3 10 -1 10 4 0 6
6 11 14 11 9 0 12 -7 9 -20 -3 -11 0 -20 6 -20 6 0 11 7 11 16 0 13 7 15 30
10 19 -3 29 -2 25 4 -3 6 -2 10 4 10 5 0 11 -5 13 -11 5 -15 204 -58 218 -47
5 4 7 5 4 1 -3 -4 39 -15 93 -25 54 -10 104 -19 112 -21 22 -5 25 -114 5 -159
-10 -21 -23 -38 -31 -38 -7 0 -12 4 -11 9 3 10 -2 11 -29 10 -16 0 -15 -2 2
-10 16 -7 12 -8 -14 -4 -18 3 -40 5 -47 5 -8 0 -14 7 -14 16 0 8 -5 12 -10 9
-6 -4 -8 -12 -4 -18 3 -7 -4 -1 -15 13 -18 22 -26 21 -22 -2 0 -5 -7 -8 -16
-7 -26 1 -71 17 -53 18 11 1 11 4 2 13 -9 9 -15 10 -20 2 -9 -15 -137 -3 -152
13 -3 3 5 3 18 0 18 -4 22 -2 18 9 -6 15 7 118 20 162 4 13 2 22 -4 22 -6 0
-11 -8 -11 -17 0 -10 -8 -51 -18 -91 l-18 -72 -30 6 c-16 4 -33 12 -37 18 -5
7 -8 3 -8 -9 0 -15 -2 -17 -9 -6 -5 7 -13 11 -19 7 -14 -8 -14 82 0 107 7 14
7 17 -1 13 -18 -12 -12 6 7 20 16 12 15 13 -4 11 -18 -1 -23 -9 -27 -42 -5
-35 -33 -105 -42 -105 -1 0 1 19 6 41 10 45 6 67 -5 24 -4 -14 -13 -25 -22
-25 -8 0 -17 -7 -20 -15 -4 -8 -10 -15 -16 -15 -5 0 -6 5 -3 10 3 6 2 10 -4
10 -5 0 -12 -6 -14 -12 -3 -7 -6 -3 -6 9 -1 12 -4 30 -7 40 -5 17 -5 17 6 0 9
-14 14 -15 24 -4 15 15 27 67 15 67 -5 0 -9 -9 -9 -19 0 -24 -16 -36 -23 -18
-3 7 4 28 15 47 10 19 17 27 14 18 -3 -10 -1 -18 4 -18 6 0 11 8 11 18 1 9 2
24 3 32 0 8 -6 20 -14 27 -11 8 -2 9 38 1 28 -6 49 -14 47 -19z m-173 -31 c-2
-10 -8 -15 -13 -12 -14 8 -11 31 5 31 8 0 11 -8 8 -19z m24 -20 c-3 -7 -7 -26
-11 -42 -5 -23 -8 -27 -16 -15 -6 10 -9 3 -9 -24 0 -27 4 -37 13 -34 6 2 11
12 10 22 -1 12 2 14 9 7 6 -6 8 -18 4 -27 -4 -13 -14 -15 -43 -9 -21 4 -47 11
-58 17 -11 6 -23 10 -27 9 -5 -1 -8 5 -8 13 0 8 -4 15 -9 15 -5 0 -8 6 -7 13
3 17 25 54 26 42 0 -6 9 -11 19 -11 11 0 17 5 14 10 -4 5 1 7 9 3 9 -3 21 0
27 6 8 8 11 5 11 -11 0 -29 14 -28 28 3 12 26 24 35 18 13z m-722 -24 c4 -11
0 -15 -16 -12 -12 2 -23 9 -26 16 -6 18 35 15 42 -4z m85 2 c9 -11 7 -15 -11
-20 -13 -3 -26 -6 -30 -6 -13 0 -9 28 5 33 20 9 24 8 36 -7z m361 -16 c0 -5
-5 -10 -11 -10 -5 0 -7 5 -4 10 3 6 8 10 11 10 2 0 4 -4 4 -10z m-1730 -10 c0
-5 -4 -10 -10 -10 -5 0 -10 5 -10 10 0 6 5 10 10 10 6 0 10 -4 10 -10z m-25
-108 c-6 -16 -7 -16 -16 0 -5 9 -6 24 -3 33 7 16 8 16 16 0 5 -9 7 -24 3 -33z
m22 6 c-3 -8 -6 -5 -6 6 -1 11 2 17 5 13 3 -3 4 -12 1 -19z m2743 -86 c0 -5
-7 -9 -15 -9 -8 0 -12 4 -9 9 3 4 9 8 15 8 5 0 9 -4 9 -8z m-2080 -17 c15 -19
5 -35 -24 -35 -30 0 -37 9 -25 31 12 23 32 24 49 4z m-660 -5 c-8 -5 -25 -10
-37 -10 -13 0 -23 -5 -23 -11 0 -5 -5 -7 -11 -4 -16 11 22 34 56 35 23 0 26
-3 15 -10z m1726 -35 c-3 -8 -1 -15 5 -15 6 0 7 -4 4 -10 -12 -19 -25 -10 -23
15 1 14 6 25 11 25 5 0 7 -7 3 -15z m-1759 -63 c-19 -21 -22 -42 -7 -42 6 0
10 -7 10 -15 0 -28 41 -15 88 28 45 42 49 43 94 36 63 -10 78 -24 64 -62 -10
-26 -8 -31 12 -44 12 -9 22 -23 22 -32 0 -12 -2 -13 -9 -3 -7 11 -9 11 -14 -2
-9 -23 -25 -20 -29 7 -3 21 -9 23 -49 18 -7 0 -9 -11 -5 -25 5 -21 2 -25 -24
-31 -21 -5 -30 -12 -30 -27 0 -16 -5 -19 -24 -14 -18 4 -28 0 -41 -20 -19 -29
-13 -38 33 -50 20 -6 26 -18 25 -52 -1 -10 6 -12 25 -7 50 13 57 11 57 -16 0
-14 8 -33 18 -43 19 -19 13 -43 -6 -28 -7 5 -22 12 -34 15 -21 5 -23 2 -23
-34 0 -23 -5 -39 -12 -39 -6 0 -19 -7 -28 -15 -14 -12 -22 -12 -63 0 -47 14
-48 14 -42 -5 5 -16 2 -20 -14 -20 -12 0 -28 8 -36 18 -100 116 -107 129 -96
170 10 35 6 42 -24 42 -11 0 -26 5 -33 12 -21 21 -14 99 16 161 25 55 32 61
107 101 83 45 100 49 72 18z m1905 0 c-5 -15 -34 -12 -39 3 -2 6 8 10 21 10
15 0 22 -5 18 -13z m68 8 c0 -5 -5 -10 -11 -10 -5 0 -7 5 -4 10 3 6 8 10 11
10 2 0 4 -4 4 -10z m-1052 -12 c-3 -7 -13 -15 -24 -17 -16 -3 -17 -1 -5 13 16
19 34 21 29 4z m92 -18 c-18 -11 12 -58 46 -70 16 -7 24 -17 24 -34 0 -22 -8
-27 -84 -50 -100 -31 -116 -32 -85 -7 l24 19 -22 31 c-13 16 -23 33 -23 36 0
4 10 5 23 3 14 -2 23 -11 25 -26 2 -12 8 -20 13 -17 5 4 9 -1 9 -9 0 -9 -4
-16 -10 -16 -5 0 -10 -6 -10 -12 1 -7 9 -2 20 11 19 22 19 25 3 52 -16 26 -16
30 2 63 11 20 25 36 32 36 7 0 13 6 14 13 0 8 2 8 6 -2 3 -7 0 -17 -7 -21z
m800 20 c0 -5 -5 -10 -11 -10 -5 0 -7 5 -4 10 3 6 8 10 11 10 2 0 4 -4 4 -10z
m-60 -19 c0 -5 -7 -12 -16 -15 -14 -5 -15 -4 -4 9 14 17 20 19 20 6z m-1285
-20 c-15 -14 -55 -23 -55 -13 0 15 12 22 39 22 15 0 21 -4 16 -9z m1420 -1
c15 -6 23 -15 20 -21 -4 -6 -13 -8 -21 -5 -8 3 -14 -1 -14 -9 0 -8 -5 -15 -10
-15 -6 0 -10 7 -8 16 2 10 -4 19 -12 21 -13 4 -13 3 0 -6 13 -9 13 -11 -1 -11
-25 0 -30 12 -11 26 21 16 24 17 57 4z m-1307 -27 c-3 -17 -127 -74 -167 -77
-31 -1 -50 26 -32 48 10 11 18 13 31 6 14 -7 29 -4 62 15 51 29 111 34 106 8z
m273 -10 c-12 -20 -14 -14 -5 12 4 9 9 14 11 11 3 -2 0 -13 -6 -23z m-38 -15
c-11 -57 -24 -78 -18 -29 3 24 8 48 11 53 10 17 13 7 7 -24z m387 0 c0 -29 1
-30 18 -15 11 10 23 13 31 8 16 -10 6 -31 -15 -31 -8 0 -13 -5 -11 -11 4 -22
-21 -20 -48 4 -23 19 -27 29 -21 50 4 18 13 27 26 27 16 0 20 -7 20 -32z
m1330 12 c0 -5 -5 -10 -11 -10 -5 0 -7 5 -4 10 3 6 8 10 11 10 2 0 4 -4 4 -10z
m-1669 -73 c-13 -13 -15 1 -4 30 7 17 8 17 11 -1 2 -10 -1 -23 -7 -29z m1159
29 c176 -29 230 -46 271 -83 46 -42 60 -86 52 -163 l-5 -55 21 19 c33 30 34
13 1 -32 -17 -23 -31 -45 -32 -49 -4 -22 -25 -43 -44 -43 -11 0 -61 32 -110
70 -49 39 -132 91 -184 116 -52 26 -126 64 -163 85 -59 33 -76 38 -128 38 -32
-1 -65 3 -72 9 -6 6 -23 12 -37 14 -14 1 -26 10 -28 18 -2 12 7 14 44 11 34
-2 57 2 84 18 70 39 193 49 330 27z m-1463 -26 c5 0 15 -11 21 -25 7 -15 8
-25 2 -25 -6 0 -10 5 -10 11 0 7 -11 4 -26 -6 -22 -14 -28 -15 -35 -4 -11 18
-11 22 2 56 10 26 12 27 23 11 7 -10 18 -18 23 -18z m1790 8 c-3 -8 -6 -5 -6
6 -1 11 2 17 5 13 3 -3 4 -12 1 -19z m573 -8 c0 -5 -2 -10 -4 -10 -3 0 -8 5
-11 10 -3 6 -1 10 4 10 6 0 11 -4 11 -10z m-2042 -39 c3 -8 -4 -12 -19 -9 -12
1 -24 9 -27 16 -2 8 4 11 19 9 13 -2 25 -9 27 -16z m-228 -20 c0 -14 -28 -33
-39 -27 -16 10 -1 36 20 36 10 0 19 -4 19 -9z m-455 -40 c-14 -14 -17 -14 -25
-1 -13 21 8 44 27 28 12 -10 12 -14 -2 -27z m95 18 c0 -16 -29 -41 -40 -34 -6
4 -5 13 3 25 13 21 37 27 37 9z m450 -19 c0 -11 -4 -20 -9 -20 -5 0 -7 9 -4
20 3 11 7 20 9 20 2 0 4 -9 4 -20z m53 6 c4 -10 0 -12 -14 -9 -10 3 -16 9 -13
14 8 13 21 11 27 -5z m47 0 c0 -3 -4 -8 -10 -11 -5 -3 -10 -1 -10 4 0 6 5 11
10 11 6 0 10 -2 10 -4z m903 -37 c-25 -9 -36 -1 -20 16 9 9 16 10 25 2 11 -9
11 -12 -5 -18z m-877 -5 c-4 -9 -1 -23 6 -32 11 -13 10 -14 -1 -11 -25 9 -38
38 -21 49 21 13 23 12 16 -6z m-312 -3 c3 -5 -1 -11 -9 -14 -9 -4 -12 -1 -8 9
6 16 10 17 17 5z m203 -4 c-4 -13 -57 -20 -57 -8 0 12 7 16 35 17 15 1 24 -3
22 -9z m343 -22 c0 -8 -4 -15 -9 -15 -13 0 -22 16 -14 24 11 11 23 6 23 -9z
m-300 -11 c0 -8 -6 -11 -17 -7 -9 4 -14 2 -11 -3 3 -5 2 -18 -3 -29 -6 -17 -8
-15 -8 11 -1 17 1 33 4 36 10 10 35 4 35 -8z m131 -5 c14 -7 30 -7 55 1 20 7
37 10 39 8 2 -2 -6 -17 -19 -32 -26 -33 -50 -30 -93 10 -27 25 -17 32 18 13z
m-607 -37 c6 -22 6 -36 -1 -43 -8 -8 -13 -1 -18 23 -4 18 -12 39 -18 47 -9 10
-7 13 8 10 12 -3 23 -17 29 -37z m386 28 c0 -5 -2 -10 -4 -10 -3 0 -8 5 -11
10 -3 6 -1 10 4 10 6 0 11 -4 11 -10z m130 -5 c20 -24 6 -28 -15 -5 -10 11
-13 20 -8 20 6 0 16 -7 23 -15z m734 -10 c25 -11 36 -21 34 -33 -2 -11 3 -16
15 -14 11 2 17 -4 17 -18 0 -11 4 -20 10 -20 15 0 31 37 23 56 -4 12 -2 15 8
12 25 -8 22 -45 -4 -63 -22 -14 -27 -14 -53 0 -16 8 -39 15 -52 15 -30 0 -39
27 -16 46 11 9 14 13 8 10 -7 -3 -17 1 -24 9 -16 19 -11 19 34 0z m-774 -10
c0 -8 -4 -15 -10 -15 -5 0 -10 7 -10 15 0 8 5 15 10 15 6 0 10 -7 10 -15z
m1170 -5 c0 -5 -4 -10 -10 -10 -5 0 -10 5 -10 10 0 6 5 10 10 10 6 0 10 -4 10
-10z m-520 -9 c0 -12 -20 -25 -27 -18 -7 7 6 27 18 27 5 0 9 -4 9 -9z m210 5
c0 -3 -4 -8 -10 -11 -5 -3 -10 -1 -10 4 0 6 5 11 10 11 6 0 10 -2 10 -4z m180
-6 c0 -5 -4 -10 -10 -10 -5 0 -10 5 -10 10 0 6 5 10 10 10 6 0 10 -4 10 -10z
m35 1 c3 -5 1 -12 -5 -16 -5 -3 -10 1 -10 9 0 18 6 21 15 7z m-1082 -29 c5 -7
12 -10 18 -7 10 7 1 -23 -13 -41 -4 -6 -18 -10 -31 -9 -12 1 -28 3 -34 4 -7 0
-13 5 -13 11 0 5 7 7 15 4 13 -5 21 15 17 47 -2 12 33 4 41 -9z m197 8 c0 -5
-6 -10 -14 -10 -8 0 -18 5 -21 10 -3 6 3 10 14 10 12 0 21 -4 21 -10z m898
-31 c-2 -6 -8 -10 -13 -10 -5 0 -11 4 -13 10 -2 6 4 11 13 11 9 0 15 -5 13
-11z m-1063 -28 c-3 -6 -11 -11 -17 -11 -6 0 -6 6 2 15 14 17 26 13 15 -4z
m1070 -20 c-3 -6 -11 -8 -17 -5 -6 4 -5 9 3 15 16 10 23 4 14 -10z m50 -21 c3
-5 -1 -10 -9 -10 -9 0 -16 5 -16 10 0 6 4 10 9 10 6 0 13 -4 16 -10z m-405
-45 c0 -8 -4 -15 -9 -15 -13 0 -22 16 -14 24 11 11 23 6 23 -9z m710 5 c0 -5
-7 -10 -16 -10 -8 0 -12 5 -9 10 3 6 10 10 16 10 5 0 9 -4 9 -10z m-228 -31
c-2 -17 3 -29 12 -32 19 -8 21 -47 3 -47 -7 0 -27 -14 -44 -30 -20 -19 -37
-28 -47 -24 -9 3 -16 10 -16 14 0 15 -53 22 -61 8 -6 -9 -9 -10 -9 -1 0 7 16
28 36 48 23 23 34 42 30 52 -4 11 -2 14 9 9 9 -3 24 3 36 15 28 28 55 21 51
-12z m-302 1 c0 -5 -2 -10 -4 -10 -3 0 -8 5 -11 10 -3 6 -1 10 4 10 6 0 11 -4
11 -10z m394 -32 c23 -32 10 -35 -20 -5 -20 20 -23 27 -11 27 9 0 23 -10 31
-22z m-259 -19 c-1 -20 -31 -46 -41 -36 -8 8 19 57 31 57 6 0 11 -9 10 -21z
m-1595 -9 c0 -5 -2 -10 -4 -10 -3 0 -8 5 -11 10 -3 6 -1 10 4 10 6 0 11 -4 11
-10z m1332 -10 c-3 -12 -1 -13 9 -2 21 20 37 14 44 -18 4 -16 11 -30 16 -30 5
0 9 -8 9 -17 0 -14 -2 -15 -9 -5 -5 9 -20 12 -38 9 -33 -5 -65 21 -76 61 -5
20 -2 23 21 20 18 -2 26 -8 24 -18z m80 -12 c-15 -15 -26 -4 -18 18 5 13 9 15
18 6 9 -9 9 -15 0 -24z m418 12 c0 -5 -4 -10 -9 -10 -6 0 -13 5 -16 10 -3 6 1
10 9 10 9 0 16 -4 16 -10z m94 -62 c-4 -6 -10 -5 -15 3 -14 22 -10 33 6 19 8
-7 12 -17 9 -22z m-1424 -32 c-5 -5 -17 -2 -29 6 -27 19 -17 29 14 14 14 -6
20 -15 15 -20z m1110 9 c0 -16 -35 -21 -45 -6 -4 8 9 15 38 20 4 0 7 -6 7 -14z
m-1500 -62 c0 -24 -36 -13 -58 17 -30 40 -28 42 18 17 22 -12 40 -28 40 -34z
m455 37 c-3 -5 -14 -10 -23 -10 -15 0 -15 2 -2 10 20 13 33 13 25 0z m850 1
c3 -6 18 -6 37 0 25 7 38 5 60 -9 l28 -18 -57 0 c-32 0 -73 -3 -90 -8 -29 -8
-33 -6 -33 12 0 27 41 44 55 23z m1135 -5 c-6 -8 -20 -36 -30 -63 -11 -26 -19
-40 -20 -31 0 24 19 70 37 90 19 21 31 24 13 4z m-2060 -6 c0 -5 -5 -10 -11
-10 -5 0 -7 5 -4 10 3 6 8 10 11 10 2 0 4 -4 4 -10z m2294 -137 l-7 -108 -14
45 c-13 44 -10 94 8 115 4 6 6 26 4 45 -3 24 -1 30 6 23 8 -8 9 -46 3 -120z
m-1634 37 c0 -5 -4 -10 -10 -10 -5 0 -10 5 -10 10 0 6 5 10 10 10 6 0 10 -4
10 -10z m86 -15 c-3 -8 -2 -15 3 -15 5 0 14 7 21 15 7 8 18 15 24 14 7 0 6 -2
-2 -6 -6 -2 -10 -8 -7 -12 8 -14 -44 -36 -57 -23 -12 12 -4 42 13 42 6 0 9 -7
5 -15z m-186 -14 c0 -13 -28 -22 -35 -11 -3 4 1 11 7 13 20 8 28 8 28 -2z m84
3 c19 -7 22 -28 4 -21 -7 2 -20 0 -30 -4 -13 -7 -15 -5 -11 11 6 21 12 24 37
14z m321 -54 c6 -19 1 -75 -11 -125 -4 -16 -3 -17 5 -5 9 12 11 11 11 -7 0
-14 6 -23 15 -23 9 0 12 6 8 17 -5 13 -3 15 13 9 10 -5 33 -12 50 -16 18 -4
37 -10 43 -14 6 -4 11 0 11 11 0 15 2 16 10 3 6 -10 10 -11 10 -2 0 17 25 15
40 -3 14 -17 69 -11 82 8 4 6 10 9 13 5 9 -9 -18 -48 -34 -48 -9 0 -12 -8 -9
-25 3 -14 0 -29 -6 -34 -16 -13 -86 -17 -94 -6 -9 13 -74 18 -81 7 -12 -18
-70 -39 -95 -35 -41 8 -51 28 -27 52 12 12 18 21 13 21 -16 0 -64 -61 -58 -75
3 -8 1 -17 -5 -21 -6 -4 -6 -11 2 -20 9 -11 8 -14 -3 -14 -26 0 -36 21 -30 62
3 28 1 43 -9 49 -11 7 -12 12 -1 29 18 29 15 43 -6 23 -10 -10 -17 -24 -14
-30 2 -7 0 -13 -6 -13 -6 0 -13 6 -15 13 -3 7 -6 5 -6 -5 -1 -26 -36 -41 -60
-26 -36 22 -36 -2 1 -36 43 -39 58 -66 58 -100 0 -35 -26 -34 -44 2 -8 16 -22
34 -30 42 -13 10 -14 16 -4 27 10 13 8 19 -11 34 -25 20 -66 25 -76 9 -3 -5
-14 -10 -23 -10 -12 0 -7 8 16 26 17 14 32 34 32 44 0 11 14 35 31 55 26 29
34 33 51 24 26 -14 33 -6 51 56 l14 50 21 -42 c26 -51 42 -62 42 -31 1 33 22
66 56 89 37 24 51 24 59 -1z m377 -29 c-16 -15 -33 -42 -37 -59 -7 -33 -27
-41 -95 -39 -29 2 -34 5 -32 22 2 11 4 30 4 43 0 21 1 22 17 8 21 -19 58 -20
87 -3 39 22 74 55 75 68 0 12 1 12 6 1 3 -8 -8 -26 -25 -41z m86 -30 c3 -8 -1
-12 -9 -9 -7 2 -15 10 -17 17 -3 8 1 12 9 9 7 -2 15 -10 17 -17z m-2089 -38
c1 -7 -3 -13 -9 -13 -5 0 -10 15 -9 33 0 27 2 29 9 12 5 -11 9 -26 9 -32z
m2128 1 c-3 -3 -12 -4 -19 -1 -8 3 -5 6 6 6 11 1 17 -2 13 -5z m-1471 -80 c-3
-8 -11 -14 -18 -14 -9 0 -9 3 0 12 7 7 13 21 13 33 1 17 2 18 6 2 3 -10 2 -25
-1 -33z m331 -31 c-3 -10 -5 -2 -5 17 0 19 2 27 5 18 2 -10 2 -26 0 -35z
m1713 12 l25 -30 -27 24 c-16 14 -28 29 -28 34 0 6 1 8 3 6 1 -2 13 -17 27
-34z m-483 -47 c-3 -7 -5 -2 -5 12 0 14 2 19 5 13 2 -7 2 -19 0 -25z m552 -7
c-6 -2 -18 4 -27 13 -15 15 -15 15 10 4 15 -7 23 -15 17 -17z m-714 -61 c-4
-12 -9 -19 -12 -17 -3 3 -2 15 2 27 4 12 9 19 12 17 3 -3 2 -15 -2 -27z m135
16 c0 -1 -5 -17 -11 -35 -14 -39 -31 -40 -46 -1 -6 17 -7 28 -2 24 5 -3 9 0 9
5 0 6 11 11 25 11 14 0 25 -2 25 -4z m-241 -53 c3 -2 -11 0 -30 3 -42 8 -47
13 -29 24 10 6 21 3 35 -8 11 -9 22 -18 24 -19z m57 10 c20 -27 17 -32 -10
-20 -13 6 -21 17 -19 24 7 17 13 16 29 -4z m-366 -14 c0 -5 -10 -19 -21 -30
-17 -17 -23 -19 -30 -8 -18 28 -10 46 21 47 17 0 30 -4 30 -9z m400 -194 c0
-8 -4 -15 -10 -15 -5 0 -10 7 -10 15 0 8 5 15 10 15 6 0 10 -7 10 -15z m69
-32 c1 -7 -3 -13 -9 -13 -5 0 -10 15 -9 33 0 27 2 29 9 12 5 -11 9 -26 9 -32z
m-1989 18 c0 -12 -28 -22 -34 -12 -3 5 -3 11 1 15 9 9 33 7 33 -3z m1806 -67
c18 -14 18 -14 -6 -3 -31 14 -36 19 -24 19 6 0 19 -7 30 -16z m-1470 -41 c-10
-10 -19 5 -10 18 6 11 8 11 12 0 2 -7 1 -15 -2 -18z m928 8 c19 -7 32 -71 15
-71 -5 0 -9 5 -9 11 0 5 -4 8 -9 5 -5 -3 -18 10 -30 29 -18 32 -19 35 -3 34 9
0 25 -4 36 -8z m-813 -18 c7 -7 5 -14 -6 -23 -10 -8 -15 -9 -15 -1 0 6 -4 10
-9 9 -9 -3 -11 2 -11 21 0 12 27 8 41 -6z m38 -25 c-12 -5 -25 -5 -28 -2 -3 4
-1 9 6 11 7 2 9 12 6 21 -5 14 -3 14 16 -3 l22 -19 -22 -8z m84 -6 c-4 -17 -9
-20 -18 -12 -17 14 -29 -4 -21 -28 4 -9 -3 -6 -13 8 -20 25 -20 25 1 33 11 4
23 5 28 2 4 -3 11 2 14 11 9 24 16 12 9 -14z m45 -29 c-18 -69 -22 -55 -8 35
0 1 4 2 9 2 6 0 5 -15 -1 -37z m738 21 c-3 -9 -6 -18 -6 -21 0 -3 -7 0 -15 7
-13 11 -13 15 -3 21 21 13 31 10 24 -7z m-698 -24 c-2 -30 -12 -38 -23 -21 -3
5 -1 12 4 16 6 3 8 12 4 20 -3 8 0 15 6 15 6 0 10 -13 9 -30z m-168 11 c0 -17
-18 -21 -24 -6 -3 9 0 15 9 15 8 0 15 -4 15 -9z m885 -1 c3 -5 1 -10 -4 -10
-6 0 -11 5 -11 10 0 6 2 10 4 10 3 0 8 -4 11 -10z m-641 -26 c4 -12 2 -12 -14
-4 -11 6 -25 8 -30 5 -5 -3 -7 0 -4 8 6 18 40 11 48 -9z"/>
<path d="M2734 3781 c9 -10 32 -21 49 -24 32 -4 47 5 47 32 0 10 -3 11 -14 2
-10 -8 -21 -8 -40 -1 -15 5 -34 10 -43 10 -14 0 -14 -2 1 -19z"/>
<path d="M2740 3154 c0 -8 5 -12 10 -9 6 3 10 10 10 16 0 5 -4 9 -10 9 -5 0
-10 -7 -10 -16z"/>
<path d="M2820 3020 c0 -5 5 -10 10 -10 6 0 10 5 10 10 0 6 -4 10 -10 10 -5 0
-10 -4 -10 -10z"/>
<path d="M2825 2990 c-3 -5 -2 -10 4 -10 5 0 13 5 16 10 3 6 2 10 -4 10 -5 0
-13 -4 -16 -10z"/>
<path d="M2990 2945 c-15 -8 -19 -14 -10 -14 18 -1 46 16 40 23 -3 2 -16 -2
-30 -9z"/>
<path d="M2510 3074 c0 -8 5 -12 10 -9 6 4 8 11 5 16 -9 14 -15 11 -15 -7z"/>
<path d="M610 2489 c0 -5 5 -7 10 -4 6 3 10 8 10 11 0 2 -4 4 -10 4 -5 0 -10
-5 -10 -11z"/>
<path d="M635 2440 c3 -5 13 -10 21 -10 8 0 14 5 14 10 0 6 -9 10 -21 10 -11
0 -17 -4 -14 -10z"/>
<path d="M2151 1755 c-1 -11 -4 -30 -7 -41 -4 -17 0 -22 20 -26 30 -6 30 -6 6
47 -13 27 -19 34 -19 20z"/>
<path d="M2043 1664 c-13 -14 -23 -32 -23 -40 0 -21 50 -7 77 21 20 21 20 24
5 29 -9 3 -21 8 -27 11 -5 2 -20 -7 -32 -21z"/>
<path d="M2154 1660 c0 -13 4 -16 10 -10 7 7 7 13 0 20 -6 6 -10 3 -10 -10z"/>
<path d="M2380 4673 c0 -22 1 -23 28 -10 15 8 34 16 42 19 8 3 -4 7 -27 9 -39
4 -43 3 -43 -18z"/>
<path d="M2478 4673 c7 -3 16 -2 19 1 4 3 -2 6 -13 5 -11 0 -14 -3 -6 -6z"/>
<path d="M2050 4655 c0 -8 5 -15 10 -15 6 0 10 7 10 15 0 8 -4 15 -10 15 -5 0
-10 -7 -10 -15z"/>
<path d="M2588 4653 c7 -3 16 -2 19 1 4 3 -2 6 -13 5 -11 0 -14 -3 -6 -6z"/>
<path d="M2555 4620 c-3 -5 -26 -19 -52 -30 -38 -17 -43 -22 -33 -35 25 -30
119 10 120 53 0 22 -23 31 -35 12z"/>
<path d="M2430 4590 c0 -11 4 -20 8 -20 4 0 8 9 9 20 1 11 -2 20 -8 20 -5 0
-9 -9 -9 -20z"/>
<path d="M1628 4593 c7 -3 16 -2 19 1 4 3 -2 6 -13 5 -11 0 -14 -3 -6 -6z"/>
<path d="M2617 4564 c-9 -10 2 -24 19 -24 8 0 14 7 14 15 0 15 -21 21 -33 9z"/>
<path d="M1380 4544 c-23 -9 -40 -25 -47 -44 -9 -23 -18 -30 -37 -30 -15 0
-29 7 -32 15 -7 19 -48 20 -63 2 -8 -11 -5 -13 19 -9 25 3 31 0 40 -22 12 -31
21 -33 45 -6 12 13 29 20 44 18 16 -2 34 7 55 28 17 17 38 33 46 37 13 5 13 7
0 16 -19 14 -27 13 -70 -5z"/>
<path d="M2971 4556 c2 -2 15 -9 29 -15 24 -11 24 -11 6 3 -16 13 -49 24 -35
12z"/>
<path d="M1170 4540 c-8 -5 -10 -10 -5 -10 6 0 17 5 25 10 8 5 11 10 5 10 -5
0 -17 -5 -25 -10z"/>
<path d="M3003 4494 c-30 -32 -29 -35 10 -27 37 7 62 26 53 42 -11 18 -39 11
-63 -15z"/>
<path d="M1085 4050 c-4 -6 3 -10 14 -10 25 0 27 6 6 13 -8 4 -17 2 -20 -3z"/>
<path d="M1551 4004 c0 -11 3 -14 6 -6 3 7 2 16 -1 19 -3 4 -6 -2 -5 -13z"/>
<path d="M1591 3994 c0 -11 3 -14 6 -6 3 7 2 16 -1 19 -3 4 -6 -2 -5 -13z"/>
<path d="M1271 3921 c-9 -6 -7 -10 8 -14 12 -3 21 -1 21 3 0 14 -15 19 -29 11z"/>
<path d="M1395 3900 c3 -5 8 -10 11 -10 2 0 4 5 4 10 0 6 -5 10 -11 10 -5 0
-7 -4 -4 -10z"/>
<path d="M984 3881 c3 -4 -4 -17 -15 -27 -12 -10 -26 -28 -31 -39 -7 -12 3 -7
26 14 35 34 47 61 25 61 -5 0 -8 -4 -5 -9z"/>
<path d="M1670 3860 c-9 -16 -8 -20 5 -20 8 0 15 2 15 4 0 2 3 11 6 20 9 23
-13 20 -26 -4z"/>
<path d="M1607 3851 c-3 -14 -1 -18 9 -14 16 6 18 19 5 27 -5 3 -11 -3 -14
-13z"/>
<path d="M1289 3843 c-13 -16 -12 -17 4 -4 9 7 17 15 17 17 0 8 -8 3 -21 -13z"/>
<path d="M1492 3828 c-6 -6 -12 -19 -12 -27 0 -13 2 -13 16 1 9 9 15 21 13 27
-3 9 -8 8 -17 -1z"/>
<path d="M1600 3765 c6 -8 18 -11 26 -8 18 7 13 12 -16 18 -18 3 -20 2 -10
-10z"/>
<path d="M413 3660 c0 -30 2 -43 4 -27 2 15 2 39 0 55 -2 15 -4 2 -4 -28z"/>
<path d="M955 3670 c-3 -5 1 -10 10 -10 9 0 13 5 10 10 -3 6 -8 10 -10 10 -2
0 -7 -4 -10 -10z"/>
<path d="M1080 3668 c0 -11 12 -10 30 2 12 7 10 9 -8 7 -12 0 -22 -5 -22 -9z"/>
<path d="M915 3660 c3 -5 10 -10 16 -10 5 0 9 5 9 10 0 6 -7 10 -16 10 -8 0
-12 -4 -9 -10z"/>
<path d="M421 3564 c0 -11 3 -14 6 -6 3 7 2 16 -1 19 -3 4 -6 -2 -5 -13z"/>
<path d="M587 3163 c-10 -10 -8 -25 2 -18 6 3 14 -3 20 -12 11 -20 15 -4 5 21
-7 17 -16 20 -27 9z"/>
<path d="M382 3059 c-33 -17 -82 -49 -108 -71 -27 -22 -70 -51 -95 -64 -95
-48 -128 -191 -92 -394 l8 -45 13 31 c8 20 11 45 7 65 -14 65 -17 142 -7 163
6 11 13 34 17 51 10 43 183 202 244 223 33 12 104 72 84 72 -5 0 -37 -14 -71
-31z"/>
<path d="M1041 2474 c0 -11 3 -14 6 -6 3 7 2 16 -1 19 -3 4 -6 -2 -5 -13z"/>
<path d="M71 2394 c0 -11 3 -14 6 -6 3 7 2 16 -1 19 -3 4 -6 -2 -5 -13z"/>
<path d="M1030 2380 c0 -5 7 -10 16 -10 8 0 12 5 9 10 -3 6 -10 10 -16 10 -5
0 -9 -4 -9 -10z"/>
<path d="M61 2324 c0 -11 3 -14 6 -6 3 7 2 16 -1 19 -3 4 -6 -2 -5 -13z"/>
<path d="M1006 2295 c-3 -8 -1 -15 4 -15 6 0 10 7 10 15 0 8 -2 15 -4 15 -2 0
-6 -7 -10 -15z"/>
<path d="M1987 2243 c-20 -20 -37 -41 -37 -47 0 -5 7 -1 15 10 8 10 15 15 15
11 0 -11 21 12 38 41 17 31 11 28 -31 -15z"/>
<path d="M100 2230 c0 -5 5 -10 11 -10 5 0 7 5 4 10 -3 6 -8 10 -11 10 -2 0
-4 -4 -4 -10z"/>
<path d="M1530 2225 c-10 -12 -10 -15 4 -15 9 0 16 -5 16 -11 0 -6 -9 -8 -22
-3 -13 3 -20 4 -17 0 4 -4 20 -10 36 -15 26 -8 29 -6 28 11 -1 11 -7 23 -14
28 -11 6 -11 9 0 13 10 4 10 6 -2 6 -9 1 -22 -6 -29 -14z"/>
<path d="M1140 2200 c0 -5 5 -10 10 -10 6 0 10 5 10 10 0 6 -4 10 -10 10 -5 0
-10 -4 -10 -10z"/>
<path d="M1450 2201 c0 -6 5 -13 10 -16 6 -3 10 1 10 9 0 9 -4 16 -10 16 -5 0
-10 -4 -10 -9z"/>
<path d="M1396 2171 c-4 -7 -5 -15 -2 -18 9 -9 19 4 14 18 -4 11 -6 11 -12 0z"/>
<path d="M1518 2163 c-10 -2 -18 -9 -18 -13 0 -6 10 -6 24 0 16 6 26 5 30 -1
2 -5 3 -4 2 3 -3 14 -14 17 -38 11z"/>
<path d="M1063 2103 c-17 -11 -23 -25 -23 -53 0 -34 3 -38 29 -42 28 -4 30 -2
36 40 8 57 -8 78 -42 55z"/>
<path d="M1960 2110 c0 -5 5 -10 10 -10 6 0 10 5 10 10 0 6 -4 10 -10 10 -5 0
-10 -4 -10 -10z"/>
<path d="M1785 2100 c4 -6 11 -8 16 -5 14 9 11 15 -7 15 -8 0 -12 -5 -9 -10z"/>
<path d="M1350 2090 c0 -5 5 -10 11 -10 5 0 7 5 4 10 -3 6 -8 10 -11 10 -2 0
-4 -4 -4 -10z"/>
<path d="M1596 2085 c4 -8 10 -15 15 -15 4 0 6 7 3 15 -4 8 -10 15 -15 15 -4
0 -6 -7 -3 -15z"/>
<path d="M2012 2080 c0 -14 2 -19 5 -12 2 6 2 18 0 25 -3 6 -5 1 -5 -13z"/>
<path d="M1910 2010 c-9 -6 -10 -10 -3 -10 6 0 15 5 18 10 8 12 4 12 -15 0z"/>
<path d="M254 1897 c8 -18 16 -39 19 -47 3 -8 6 1 6 20 1 25 -5 39 -18 47 -19
12 -19 11 -7 -20z"/>
<path d="M550 1862 c0 -4 5 -13 11 -19 6 -6 9 -26 6 -44 l-3 -34 -8 33 c-10
37 -24 40 -57 13 l-24 -19 20 -47 c15 -35 30 -53 60 -69 29 -16 41 -30 43 -49
2 -15 -1 -27 -7 -27 -6 0 -11 5 -11 10 0 6 -4 10 -10 10 -5 0 -10 -7 -10 -15
0 -8 -9 -15 -21 -15 -28 0 -59 -18 -59 -35 0 -21 73 -37 135 -30 52 7 54 8 40
29 -8 12 -13 45 -13 76 1 52 -40 196 -65 228 -11 14 -27 16 -27 4z"/>
<path d="M291 1754 c0 -11 3 -14 6 -6 3 7 2 16 -1 19 -3 4 -6 -2 -5 -13z"/>
<path d="M434 1723 l-18 -28 24 16 c26 17 38 39 22 39 -5 0 -18 -12 -28 -27z"/>
<path d="M1800 1650 c-12 -8 -10 -10 9 -10 18 0 21 -3 12 -13 -6 -8 -8 -17 -4
-20 3 -4 -1 -7 -10 -7 -27 0 -20 -15 13 -27 21 -8 30 -18 30 -33 0 -12 5 -31
11 -42 l12 -21 12 22 c14 28 12 97 -5 134 -14 28 -50 36 -80 17z"/>
<path d="M1486 1591 c-12 -5 -16 -10 -9 -14 13 -8 43 2 43 14 0 10 -8 10 -34
0z"/>
<path d="M905 1551 c-3 -5 -1 -12 5 -16 12 -7 30 2 30 16 0 12 -27 12 -35 0z"/>
<path d="M1055 1480 c-3 -5 -1 -10 4 -10 6 0 11 5 11 10 0 6 -2 10 -4 10 -3 0
-8 -4 -11 -10z"/>
<path d="M1303 1474 c-8 -22 5 -30 23 -12 14 14 14 16 -1 21 -9 4 -18 1 -22
-9z"/>
<path d="M1377 1326 c-4 -10 -11 -15 -15 -12 -5 3 -23 -4 -41 -15 -20 -12 -41
-17 -53 -13 l-21 6 21 -22 c16 -17 27 -21 47 -16 21 5 27 2 34 -16 8 -22 9
-21 15 9 6 26 13 32 37 35 l29 3 -23 29 c-20 25 -25 27 -30 12z"/>
<path d="M967 1226 c-4 -10 -1 -13 9 -9 15 6 19 23 5 23 -5 0 -11 -7 -14 -14z"/>
<path d="M1908 1223 c6 -2 18 -2 25 0 6 3 1 5 -13 5 -14 0 -19 -2 -12 -5z"/>
<path d="M2280 1220 c0 -5 4 -10 9 -10 5 0 18 -3 28 -6 16 -6 16 -5 -2 9 -23
19 -35 21 -35 7z"/>
<path d="M2501 1215 c-22 -7 -30 -15 -22 -19 11 -7 61 17 61 29 0 3 -1 4 -2 4
-2 -1 -18 -7 -37 -14z"/>
</g>
</svg>
