<?xml version="1.0" standalone="no"?>
<!DOCTYPE svg PUBLIC "-//W3C//DTD SVG 20010904//EN"
 "http://www.w3.org/TR/2001/REC-SVG-20010904/DTD/svg10.dtd">
<svg version="1.0" xmlns="http://www.w3.org/2000/svg"
 width="496.000000pt" height="503.000000pt" viewBox="0 0 496.000000 503.000000"
 preserveAspectRatio="xMidYMid meet">

<g transform="translate(0.000000,503.000000) scale(0.100000,-0.100000)"
fill="#000000" stroke="none">
<path d="M1850 4588 c-35 -5 -69 -13 -76 -19 -6 -5 -18 -7 -25 -4 -8 3 -95
-15 -194 -39 -161 -40 -195 -53 -322 -117 -162 -82 -217 -124 -304 -229 -152
-183 -284 -445 -333 -657 -25 -111 -22 -130 23 -172 32 -30 40 -46 49 -96 10
-57 9 -62 -15 -98 -25 -36 -26 -42 -20 -135 4 -60 15 -125 28 -166 l23 -69
-29 -51 c-16 -28 -38 -64 -50 -81 -31 -42 -55 -120 -55 -178 0 -27 -5 -78 -12
-114 -9 -50 -9 -80 2 -141 20 -124 21 -122 -30 -149 -62 -33 -86 -57 -132
-136 -22 -37 -64 -90 -92 -117 -153 -147 -135 -262 52 -330 93 -34 307 -69
324 -52 4 4 22 6 39 4 33 -5 42 -16 119 -153 72 -127 170 -202 390 -299 190
-84 429 -149 712 -194 287 -46 316 -48 698 -53 284 -4 306 -3 318 14 10 13 16
14 19 6 7 -19 45 -16 97 7 26 11 50 19 54 19 37 1 92 16 96 27 3 9 0 11 -11 7
-9 -4 -14 -2 -11 3 3 5 -4 18 -15 29 -11 11 -17 14 -13 8 4 -7 2 -13 -4 -13
-6 0 -13 7 -17 16 -5 14 -8 12 -19 -7 -7 -13 -13 -32 -14 -42 0 -22 -31 -19
-37 3 -4 13 -3 13 6 0 12 -17 13 -16 28 30 23 71 24 80 14 80 -6 0 -11 -14
-11 -30 0 -23 -6 -33 -22 -39 -17 -6 -24 -5 -26 5 -2 8 -7 12 -11 10 -4 -3 -6
15 -5 40 2 32 -1 44 -11 44 -8 0 -17 -5 -20 -10 -3 -6 -1 -10 4 -10 6 0 11 -7
11 -15 0 -13 -3 -13 -20 -3 -11 7 -18 18 -16 25 3 8 -1 10 -11 6 -12 -5 -15
-2 -10 10 4 11 -1 18 -14 22 -15 5 -19 13 -16 27 3 11 0 21 -8 24 -7 3 -11 13
-9 22 2 9 -4 28 -15 42 -15 19 -22 22 -33 12 -12 -10 -17 -7 -26 13 -9 20 -9
25 3 25 7 0 17 -4 20 -10 11 -18 21 -11 35 25 15 38 45 54 64 35 8 -10 6 -11
-11 -5 -17 4 -23 2 -23 -8 0 -8 -7 -18 -15 -21 -12 -4 -13 -11 -7 -23 5 -10 8
-23 6 -28 -2 -6 5 -16 16 -23 11 -7 20 -9 20 -4 0 4 14 16 30 25 31 19 42 9
15 -13 -8 -7 -15 -17 -15 -23 0 -5 9 2 20 16 26 33 25 40 -5 54 -14 6 -23 7
-19 2 10 -17 -7 -31 -22 -18 -12 9 -13 9 -9 -3 4 -9 0 -15 -8 -15 -12 0 -15
15 -7 37 1 3 2 8 1 13 -1 4 10 11 23 16 25 10 36 29 36 63 0 14 5 18 16 14 9
-3 22 -6 30 -6 8 0 14 -8 14 -17 0 -14 2 -15 9 -4 5 7 13 11 17 8 8 -4 29 2
78 24 15 6 15 -29 1 -41 -7 -6 -21 -13 -31 -15 -37 -7 -99 -34 -82 -34 9 -1
20 -6 24 -12 7 -12 -15 -31 -28 -23 -4 3 -8 -4 -8 -16 0 -24 26 -38 43 -21 12
12 38 15 36 4 -3 -20 2 -24 15 -14 11 9 15 8 20 -5 3 -9 4 -20 1 -25 -3 -5 -1
-18 5 -29 8 -15 8 -20 -2 -20 -9 0 -10 -3 -2 -8 11 -7 24 -47 30 -91 1 -13 6
-26 9 -29 9 -10 24 19 20 40 -2 11 2 18 11 18 8 0 17 7 21 16 3 8 12 13 19 10
9 -4 14 2 14 15 0 13 4 18 13 13 8 -5 8 -2 -2 9 -9 12 -10 17 -2 17 18 0 23
-25 13 -64 -6 -21 -7 -36 -1 -36 5 0 9 -9 9 -20 0 -11 4 -20 8 -20 5 0 18 -9
29 -20 16 -14 30 -18 57 -13 20 3 36 10 36 15 0 5 5 6 10 3 14 -9 111 5 106
14 -3 4 10 8 27 8 18 1 52 8 77 17 25 9 59 16 75 16 61 1 70 36 15 57 -17 6
-30 17 -30 23 0 7 7 10 15 6 9 -3 15 0 15 9 0 8 -4 15 -10 15 -5 0 -10 5 -10
10 0 6 8 10 18 10 10 0 19 7 19 15 0 8 -7 15 -14 15 -8 0 -11 -4 -8 -10 3 -5
1 -10 -5 -10 -7 0 -9 8 -5 20 4 14 1 22 -12 27 -16 6 -15 8 7 13 15 3 26 14
27 25 2 11 0 14 -3 8 -9 -20 -24 -15 -24 7 0 13 -7 20 -20 20 -11 0 -20 -4
-20 -10 0 -5 8 -7 18 -3 14 5 13 3 -3 -10 -17 -13 -21 -13 -28 -1 -6 11 -13
12 -28 4 -21 -12 -43 -5 -34 11 4 5 2 9 -3 9 -6 0 -12 -7 -16 -15 -3 -8 -12
-15 -20 -15 -8 0 -16 -5 -18 -12 -3 -7 -10 -8 -17 -4 -10 7 -10 10 -1 16 9 6
9 13 0 31 -10 17 -10 24 -1 27 6 2 11 8 11 13 0 6 -4 7 -10 4 -5 -3 -10 4 -10
16 0 16 5 20 20 16 19 -5 19 -4 3 27 -8 17 -12 28 -8 24 5 -4 14 -3 22 4 7 6
16 8 20 4 3 -3 1 -6 -5 -6 -17 0 -15 -30 3 -36 8 -4 13 -15 11 -27 -2 -12 1
-28 6 -34 12 -15 32 -18 23 -4 -3 5 -1 12 5 16 5 3 10 2 10 -3 0 -5 12 -7 28
-5 19 3 23 2 13 -5 -9 -6 -10 -12 -2 -16 11 -7 51 14 51 27 0 4 5 5 10 2 6 -3
10 2 10 12 1 17 1 17 11 -1 9 -14 8 -20 -2 -27 -10 -6 -10 -9 -2 -9 7 0 17 9
23 20 9 17 13 18 24 8 7 -8 15 -20 19 -28 4 -12 6 -11 6 3 1 16 11 21 39 18 6
-1 12 3 12 9 0 5 7 10 15 10 8 0 15 4 15 10 0 5 7 7 15 4 10 -4 14 -2 10 7 -3
9 11 22 37 34 42 20 68 48 56 61 -4 3 -17 -1 -30 -10 -28 -20 -42 -20 -34 -1
3 8 1 15 -4 15 -6 0 -10 -5 -10 -11 0 -6 -7 -9 -15 -5 -15 5 -17 -14 -2 -25 5
-3 1 -9 -8 -12 -9 -4 -13 -3 -10 3 3 6 1 10 -4 10 -6 0 -11 -5 -11 -11 0 -5
-4 -8 -9 -5 -5 3 -8 -2 -7 -12 1 -11 -7 -18 -24 -20 -23 -2 -24 -1 -7 11 26
21 20 32 -8 13 -28 -19 -44 -21 -27 -4 8 8 5 14 -15 25 -30 16 -36 16 -28 3
10 -16 -18 -12 -44 6 -21 15 -22 18 -6 27 11 6 20 6 24 0 9 -14 73 -10 89 5 8
7 18 10 23 7 10 -7 69 34 69 48 0 5 -7 4 -15 -3 -8 -7 -15 -9 -15 -5 0 4 -11
0 -25 -9 -14 -9 -30 -14 -34 -11 -5 3 -16 -1 -24 -9 -8 -8 -19 -11 -27 -6 -7
4 -20 6 -28 3 -8 -3 -1 7 15 23 15 16 34 27 41 26 6 -2 12 3 12 10 0 9 3 9 10
-2 8 -12 13 -13 27 -2 10 7 26 15 36 18 9 4 17 11 16 18 -3 29 2 60 9 50 4 -6
22 -15 40 -19 37 -8 41 -19 12 -37 -22 -14 -26 -33 -9 -43 12 -8 75 52 66 61
-7 8 47 54 63 54 7 0 9 -8 5 -21 -5 -15 -4 -19 4 -15 6 4 11 18 11 31 0 28 26
40 39 18 7 -14 10 -13 16 6 5 18 9 20 21 10 11 -9 14 -9 14 0 0 7 5 9 10 6 6
-3 10 -2 10 3 0 13 53 23 60 11 3 -5 17 -10 30 -11 23 -3 25 0 24 44 0 46 3
49 34 25 16 -13 62 -16 68 -5 14 22 24 3 22 -41 -2 -27 -7 -47 -11 -44 -5 3
-11 -4 -14 -16 -3 -12 -16 -24 -29 -27 -24 -6 -28 -14 -25 -46 3 -22 -17 -24
-25 -3 -4 8 -11 12 -16 9 -6 -4 -6 -9 2 -14 9 -6 5 -13 -15 -26 -26 -17 -28
-17 -40 0 -13 17 -14 17 -23 0 -9 -15 -12 -16 -26 -5 -13 11 -22 11 -42 2 -20
-9 -30 -9 -40 0 -11 9 -14 8 -14 -2 0 -12 -2 -12 -9 0 -13 21 -35 -53 -23 -76
10 -19 8 -85 -3 -103 -3 -5 -2 -10 4 -10 6 0 13 10 15 23 3 12 7 33 10 47 3
14 15 31 27 38 15 10 19 10 14 1 -9 -14 9 -5 39 20 18 15 19 15 13 -1 -6 -17
8 -19 31 -4 7 4 16 5 19 2 3 -3 18 3 32 13 35 24 61 33 61 20 0 -13 33 5 62
34 13 12 32 29 43 37 25 19 85 95 85 109 0 6 9 11 19 11 21 0 35 -28 26 -51
-3 -8 5 -19 21 -26 21 -10 34 -9 71 6 25 10 56 28 68 39 18 17 25 19 33 9 7
-8 7 -18 2 -27 -28 -44 10 -192 52 -206 31 -9 76 15 87 47 9 25 8 29 -8 29
-11 0 -22 8 -25 17 -6 15 -8 15 -17 3 -7 -11 -8 -9 -7 10 3 21 -1 24 -19 22
-13 -2 -23 1 -23 6 0 18 37 42 65 42 25 0 27 -2 22 -30 -4 -16 -3 -30 2 -30
10 0 19 45 28 130 5 54 5 55 -14 38 -29 -26 -43 -22 -43 13 0 26 -3 30 -19 26
-14 -3 -18 2 -19 25 -1 40 20 45 63 13 32 -25 35 -26 35 -8 0 13 -15 27 -44
41 -48 24 -81 28 -92 10 -5 -7 -2 -9 8 -5 24 9 29 -3 12 -28 -8 -12 -14 -27
-13 -31 4 -24 -2 -33 -18 -27 -24 9 -34 25 -27 46 6 18 -16 47 -37 47 -7 0 -9
10 -5 30 3 17 1 30 -4 30 -14 0 -12 54 2 68 7 7 8 12 3 12 -4 0 0 9 10 20 10
11 15 23 12 26 -9 9 -38 -16 -46 -39 -7 -18 -9 -18 -23 -3 -9 9 -19 16 -22 16
-13 0 -5 -44 10 -54 16 -12 27 -106 13 -106 -11 0 -30 36 -23 43 3 2 -6 21
-20 41 -14 21 -22 44 -19 52 3 8 0 14 -6 14 -8 0 -10 11 -5 35 6 34 -8 50 -19
23 -4 -10 -8 -10 -14 -2 -4 7 -17 14 -28 16 -11 2 -19 9 -18 15 2 7 -4 24 -11
39 -8 14 -12 33 -9 40 4 11 -2 12 -28 7 -33 -6 -34 -6 -16 14 9 11 17 29 17
41 0 12 6 22 13 22 21 0 40 -17 33 -29 -12 -19 3 -32 24 -21 14 7 23 6 33 -5
8 -8 34 -17 56 -21 27 -4 51 -17 69 -35 15 -16 33 -29 41 -29 8 0 19 -6 25
-14 6 -7 25 -16 42 -19 26 -5 33 -2 44 18 12 22 11 28 -6 46 -10 12 -35 29
-54 39 -44 23 -74 55 -65 71 6 8 29 10 82 5 69 -6 74 -6 65 11 -5 10 -7 24 -5
31 3 7 -5 24 -18 38 -18 19 -23 35 -22 74 1 59 -12 66 -22 13 -3 -20 -10 -32
-13 -27 -10 13 -53 36 -59 31 -2 -3 1 -13 7 -24 9 -14 9 -26 -2 -52 -13 -32
-15 -33 -31 -17 -11 12 -15 26 -11 42 4 14 1 31 -6 40 -10 11 -10 18 -2 26 17
17 15 58 -3 58 -8 0 -15 5 -15 10 0 19 -26 10 -51 -17 -13 -14 -19 -23 -12
-19 17 9 14 -51 -4 -65 -10 -9 -17 -8 -28 1 -17 14 -20 37 -6 42 5 2 12 14 16
28 5 20 -2 33 -29 62 -20 21 -38 33 -41 27 -4 -5 -1 -17 6 -25 6 -8 9 -17 6
-20 -2 -3 -18 13 -33 35 -36 50 -57 58 -83 32 -22 -22 -28 -37 -11 -26 6 3 11
-6 12 -22 2 -42 3 -47 12 -61 7 -11 4 -12 -13 -3 -11 7 -21 17 -21 22 0 6 -6
9 -14 6 -8 -3 -16 2 -19 14 -3 10 0 19 6 19 6 0 8 3 5 6 -4 3 -16 0 -28 -6
-19 -10 -21 -9 -18 8 2 10 -1 20 -7 20 -5 1 -10 -4 -10 -10 -1 -7 -7 -12 -14
-10 -7 1 -19 -5 -27 -15 -11 -15 -15 -15 -23 -4 -10 16 -26 -3 -16 -19 4 -6
-5 -27 -20 -46 -22 -28 -30 -33 -41 -23 -24 19 -17 -13 10 -50 15 -19 22 -41
19 -54 -4 -20 -3 -21 10 -5 19 24 26 14 21 -28 -3 -23 0 -33 8 -32 7 2 12 -2
13 -9 0 -18 15 -28 15 -10 0 24 20 31 34 11 7 -9 18 -14 25 -10 6 4 14 0 17
-8 9 -23 -5 -86 -18 -83 -6 1 -12 -3 -15 -10 -6 -17 79 -11 93 7 10 12 15 8
33 -20 24 -40 26 -56 9 -64 -10 -5 -10 -7 0 -12 6 -3 12 -17 12 -30 0 -21 -9
-29 -32 -25 -4 0 -5 -6 -2 -14 4 -9 0 -15 -9 -15 -8 0 -17 -5 -19 -12 -6 -17
-68 9 -68 28 0 15 26 19 32 5 2 -5 12 -11 22 -13 14 -2 19 3 21 19 2 31 -48
47 -118 38 -64 -8 -73 -13 -86 -45 l-10 -25 -1 25 c-1 32 -25 64 -41 55 -7 -5
-10 -3 -7 6 2 7 22 17 43 21 22 5 43 14 47 21 13 20 9 47 -7 47 -8 0 -22 11
-31 26 -16 24 -16 26 5 40 22 16 29 36 10 31 -6 -1 -12 8 -14 20 -1 14 3 19
12 16 7 -3 13 0 13 6 0 6 -7 11 -15 11 -8 0 -15 7 -15 16 0 14 -3 14 -15 4 -8
-7 -15 -9 -15 -4 0 5 -5 1 -11 -9 -8 -13 -7 -22 1 -32 6 -8 9 -19 5 -25 -3 -5
-2 -10 4 -10 5 0 12 6 15 13 3 6 5 3 3 -8 -1 -11 -10 -20 -19 -20 -17 0 -50
-36 -61 -67 -3 -10 -13 -18 -21 -18 -17 0 -28 -24 -19 -45 3 -9 -3 -25 -12
-35 -24 -27 -11 -26 16 1 16 16 23 18 35 8 15 -12 12 -34 -8 -76 -6 -13 -15
-23 -20 -23 -5 0 -7 3 -5 8 3 4 -15 6 -39 5 -48 -2 -63 9 -43 34 12 13 11 15
-6 11 -24 -4 -61 38 -58 67 2 11 0 14 -3 8 -8 -19 -27 -16 -47 7 -9 11 -14 20
-11 20 4 0 1 7 -6 15 -7 8 -10 21 -7 28 3 8 1 20 -3 28 -5 7 -5 18 1 25 11 13
-16 28 -32 18 -12 -7 -11 -34 1 -34 6 0 10 -9 10 -20 0 -22 -7 -25 -30 -10
-13 8 -13 10 0 10 10 0 11 3 2 12 -15 15 -45 -9 -38 -29 3 -8 1 -11 -5 -8 -5
4 -7 16 -3 27 5 17 3 20 -10 15 -11 -4 -21 3 -31 24 -13 23 -21 29 -38 24 -22
-5 -22 -5 1 6 12 7 22 19 22 28 1 13 3 13 15 -3 9 -12 15 -15 15 -7 0 11 3 11
14 2 12 -10 13 -8 9 10 -5 17 -3 20 7 14 8 -5 27 -9 43 -10 l29 -2 -23 18
c-13 10 -28 19 -32 19 -5 0 -7 10 -5 22 3 25 88 80 88 57 0 -7 6 -4 15 7 14
19 20 11 16 -23 -1 -7 5 -13 14 -13 9 0 15 -6 12 -12 -2 -7 -12 -12 -21 -12
-9 1 -16 -2 -16 -7 0 -5 -12 -9 -26 -9 -20 0 -24 -3 -17 -12 6 -7 11 -20 11
-28 2 -35 9 -50 35 -70 15 -12 31 -19 37 -15 5 3 22 -1 37 -8 15 -8 40 -13 56
-11 15 1 27 -2 27 -7 0 -5 5 -9 10 -9 7 0 7 6 0 20 -6 11 -17 20 -25 20 -8 0
-16 7 -16 15 -3 35 -6 40 -18 37 -8 -2 -10 4 -6 17 3 11 1 29 -4 40 -9 15 -7
20 9 24 16 4 20 0 20 -20 0 -22 4 -25 25 -21 26 5 36 -8 10 -14 -11 -2 -10 -8
6 -28 18 -23 20 -23 18 -5 -3 41 0 46 26 39 15 -4 25 -2 25 5 0 6 -5 11 -10
11 -6 0 -10 8 -8 18 2 10 -3 17 -13 16 -11 -1 -14 5 -11 21 2 15 11 23 25 23
41 2 56 5 52 12 -4 6 -32 7 -72 2 -7 -1 -13 -11 -13 -21 0 -21 -13 -34 -24
-24 -3 3 -1 12 5 19 6 8 9 20 5 29 -3 8 0 14 7 12 7 -1 12 7 12 18 0 11 6 26
13 33 6 7 12 26 12 41 0 22 -7 30 -36 41 -20 8 -40 22 -45 32 -5 9 -15 15 -23
12 -7 -3 -21 2 -29 11 -9 9 -18 15 -19 13 -2 -1 -13 5 -26 13 -21 15 -21 17
-5 24 16 6 14 9 -11 22 -21 11 -31 12 -36 4 -3 -7 -14 -9 -23 -5 -10 3 -26 -4
-42 -20 -14 -14 -29 -26 -33 -27 -155 -24 -166 -35 -108 -99 32 -36 42 -64 37
-107 -1 -6 12 -21 29 -33 31 -22 41 -44 15 -34 -11 5 -13 2 -9 -10 3 -9 11
-16 18 -16 34 -1 -35 -23 -78 -25 -62 -2 -116 -15 -116 -26 0 -4 -9 -17 -20
-27 l-21 -19 32 -27 c24 -21 38 -26 59 -21 33 7 48 -9 23 -24 -17 -9 -17 -10
-1 -16 9 -4 21 -4 25 -2 13 8 70 -45 74 -68 3 -11 11 -20 19 -20 10 0 16 -12
18 -32 2 -18 0 -33 -4 -33 -17 0 -74 25 -74 32 0 4 -5 8 -11 8 -5 0 -7 -5 -3
-11 6 -10 -11 -28 -28 -29 -16 0 -68 64 -68 84 0 29 -10 39 -25 26 -8 -7 -20
-4 -38 10 -17 14 -34 19 -49 15 -16 -4 -33 1 -50 15 -18 14 -29 17 -33 9 -4
-6 -16 -9 -26 -6 -11 3 -16 1 -13 -4 3 -5 -2 -12 -10 -15 -13 -5 -8 -13 21
-36 21 -16 50 -37 66 -46 15 -9 27 -22 27 -30 0 -7 -5 -10 -10 -7 -16 10 -50
-37 -38 -52 11 -14 6 -57 -17 -139 -10 -36 -21 -53 -35 -57 -19 -5 -26 0 -110
92 -8 9 -30 45 -49 81 -32 62 -33 69 -27 132 7 63 9 67 38 77 40 14 71 14 86
-1 9 -9 15 -9 25 1 10 10 6 18 -18 39 -46 42 -45 81 2 127 33 32 165 105 190
105 14 0 43 78 43 114 0 19 -5 47 -10 62 -7 19 -7 30 1 40 9 11 8 14 -4 14 -8
0 -20 -6 -26 -14 -7 -8 -22 -17 -35 -20 -13 -3 -45 -29 -70 -57 -28 -31 -46
-45 -46 -35 0 9 -6 16 -13 16 -7 0 -29 11 -50 25 -20 14 -41 24 -46 21 -5 -3
-11 1 -14 8 -3 8 -30 33 -59 56 -48 39 -56 42 -100 38 -26 -3 -51 -1 -56 4
-17 17 -271 11 -332 -7 -70 -21 -101 -25 -122 -14 -19 10 -134 30 -198 35 -25
2 -52 4 -60 6 -29 6 -17 -17 14 -27 46 -15 47 -58 1 -110 -24 -28 -37 -36 -43
-28 -12 19 -52 3 -58 -23 -7 -28 -54 -69 -64 -57 -10 11 -19 75 -13 91 3 6 11
12 18 12 14 0 70 68 62 76 -2 3 -11 -1 -19 -9 -24 -24 -56 -37 -75 -30 -10 3
-43 24 -74 45 -60 41 -131 68 -183 68 -17 0 -44 7 -60 15 -16 9 -34 14 -40 12
-14 -5 -67 25 -77 43 -28 53 -38 85 -33 106 5 20 13 23 82 28 43 3 113 9 156
14 58 6 85 4 104 -5 13 -7 31 -13 39 -13 27 0 91 -40 116 -71 l25 -32 -5 29
-4 29 20 -25 c12 -14 26 -31 32 -38 18 -21 -5 -37 -24 -18 -11 11 -18 13 -23
5 -11 -18 20 -40 65 -46 22 -3 41 -10 41 -15 0 -12 52 2 69 19 7 8 40 27 72
44 44 22 62 38 73 63 8 18 19 37 25 40 6 4 62 11 124 16 69 5 146 19 202 35
50 15 137 38 194 51 118 27 143 39 61 30 -41 -5 -51 -4 -38 4 9 6 35 11 57 13
23 1 41 4 41 7 0 3 12 7 27 8 15 1 37 9 49 17 18 11 29 12 50 5 15 -6 28 -9
28 -8 1 2 9 15 19 29 9 15 13 30 9 34 -4 4 -7 10 -7 14 0 4 -9 16 -19 27 -19
19 -19 18 -13 -11 6 -24 5 -27 -4 -12 -14 24 -3 55 13 39 17 -17 28 -15 21 4
-4 10 -14 14 -29 11 -27 -5 -34 20 -9 29 8 4 15 10 15 15 0 6 -9 5 -20 -1 -16
-9 -20 -8 -22 7 0 10 -2 23 -2 29 -1 6 -7 19 -15 28 -11 13 -11 16 0 16 9 0 8
3 -3 13 -8 6 -21 21 -28 32 -10 18 -11 18 -6 1 4 -11 0 -24 -11 -33 -10 -8
-13 -12 -7 -9 22 11 31 -19 30 -98 -1 -54 -5 -81 -14 -83 -8 -3 -10 1 -5 13 5
14 2 16 -21 10 -21 -5 -26 -4 -20 6 4 7 -2 4 -14 -6 -24 -21 -29 -32 -10 -20
8 5 9 2 5 -10 -4 -10 -7 -22 -7 -27 0 -4 -7 -6 -15 -3 -10 4 -15 0 -16 -12 0
-17 -1 -17 -9 1 -4 11 -21 30 -38 42 -17 13 -39 36 -48 53 -21 35 -34 39 -34
9 0 -14 5 -19 14 -16 10 4 12 0 8 -15 -4 -15 -2 -19 7 -13 10 6 11 3 2 -14 -7
-11 -18 -21 -25 -21 -8 0 -19 -6 -25 -14 -18 -21 -64 -13 -78 14 -6 12 -17 27
-25 31 -11 7 -11 9 1 9 9 0 10 4 3 13 -5 6 -12 35 -14 62 -3 38 0 57 15 78 15
22 22 25 33 16 10 -8 14 -8 14 0 0 6 7 11 15 11 8 0 15 5 15 11 0 6 7 9 15 6
8 -4 17 -2 20 3 6 9 -162 4 -191 -5 -6 -2 -15 -20 -18 -39 -4 -22 -11 -34 -17
-30 -6 3 -9 17 -6 30 6 32 -14 43 -67 37 l-41 -5 -18 50 -19 51 -56 -5 -57 -6
-22 44 -21 44 27 31 c21 26 35 33 78 37 41 4 56 1 76 -14 13 -11 37 -20 53
-21 43 -2 158 13 169 21 11 9 89 5 105 -5 5 -3 10 -17 10 -30 0 -28 30 -41 59
-26 11 6 27 11 36 11 9 0 25 10 35 23 12 15 30 23 57 24 21 1 46 3 57 5 11 2
20 -4 21 -13 2 -10 12 -26 23 -37 19 -19 20 -19 88 10 67 29 72 30 184 24 126
-7 225 -15 253 -20 9 -2 17 0 17 6 0 5 5 6 11 2 7 -4 30 -8 53 -10 23 -2 55
-6 71 -8 17 -3 61 -9 98 -12 51 -5 67 -10 63 -20 -4 -9 2 -14 17 -14 13 0 29
-6 36 -12 11 -10 14 -10 18 0 3 6 18 12 34 12 26 0 29 -3 20 -17 -7 -13 -4
-27 11 -51 17 -27 19 -42 13 -88 -8 -65 1 -81 52 -90 28 -5 39 -2 61 19 36 33
65 47 99 47 16 0 34 5 41 12 18 18 62 -6 62 -35 0 -28 58 -87 89 -90 11 -1 21
-4 21 -7 0 -3 14 -14 30 -23 29 -18 30 -18 30 2 0 11 8 22 18 24 14 4 13 6 -6
12 -17 6 -22 14 -20 33 4 35 -36 62 -103 71 -53 6 -54 7 -54 39 0 26 -3 31
-17 26 -10 -3 -18 -1 -18 4 0 5 -11 14 -25 20 -14 6 -25 20 -25 30 0 21 -57
52 -96 52 -13 0 -36 8 -50 17 -18 12 -28 13 -33 5 -7 -12 -71 -8 -80 6 -3 5
-24 15 -46 22 -22 7 -44 15 -50 19 -5 3 -16 6 -23 7 -7 1 -20 8 -28 15 -9 7
-38 12 -65 12 -32 -1 -49 2 -49 10 0 8 -2 9 -8 1 -9 -14 -42 -14 -42 0 0 6
-11 11 -24 11 -17 0 -21 -3 -15 -11 6 -8 5 -14 -5 -17 -8 -3 -17 -1 -20 6 -3
9 -5 9 -5 0 -1 -20 -18 -15 -23 5 -3 10 -13 20 -22 21 -9 1 -25 2 -36 3 -11 1
-20 6 -20 9 0 7 -32 21 -55 24 -5 1 -26 5 -45 10 -29 7 -31 9 -15 16 17 6 15
8 -8 8 -37 1 -67 29 -46 42 23 14 5 10 -29 -7 -18 -8 -39 -25 -47 -37 -13 -18
-15 -19 -15 -4 0 22 -20 22 -21 0 0 -14 -2 -13 -9 5 -13 30 -17 28 -15 -8 2
-30 -17 -42 -30 -20 -4 6 -11 8 -16 4 -13 -8 -99 16 -99 27 0 5 15 9 33 9 22
1 28 3 17 9 -25 14 -90 21 -90 10 0 -6 5 -7 10 -4 6 3 10 1 10 -4 0 -14 -36
-9 -52 7 -16 16 -45 15 -51 0 -4 -8 -6 -7 -6 3 -1 9 -8 20 -17 23 -11 4 -15 2
-11 -8 4 -11 0 -13 -19 -10 -15 3 -24 0 -24 -8 0 -10 -3 -9 -9 1 -5 7 -14 11
-20 7 -6 -4 -20 -2 -31 4 -13 7 -20 7 -20 1 0 -6 -7 -7 -17 -4 -11 4 -14 3 -9
-5 10 -17 -5 -15 -31 3 -15 10 -21 25 -21 46 1 20 4 26 9 17 5 -7 9 -9 9 -4 0
6 7 1 15 -10 9 -12 14 -14 15 -6 0 7 4 11 9 8 11 -7 23 22 14 36 -3 7 -1 8 5
4 7 -4 12 -15 12 -25 0 -10 11 -23 25 -29 32 -15 55 -15 55 -1 0 6 5 7 13 2
22 -14 37 -12 37 5 0 13 5 11 21 -8 20 -25 20 -25 9 -1 -10 19 -9 26 5 40 16
15 17 14 11 -11 -6 -25 -5 -26 19 -15 16 8 19 13 11 15 -15 3 -15 32 -1 66 8
19 9 19 16 0 7 -18 8 -18 8 0 1 15 4 16 16 6 8 -7 15 -8 15 -4 0 17 -42 36
-53 25 -6 -6 -14 -5 -24 5 -15 15 -44 19 -41 7 2 -13 -14 -43 -23 -43 -5 0 -9
9 -9 20 0 24 -30 16 -30 -9 -1 -22 -30 -61 -30 -39 0 8 -7 21 -14 28 -10 8
-12 18 -7 33 9 25 4 47 -10 47 -6 0 -8 -4 -4 -9 3 -5 0 -13 -6 -17 -8 -5 -8
-9 1 -14 21 -13 1 -31 -28 -24 -33 8 -53 24 -30 24 17 0 30 33 21 56 -3 8 -9
11 -14 8 -5 -3 -9 0 -9 5 0 6 -4 11 -9 11 -5 0 -7 -9 -4 -20 3 -10 8 -18 12
-17 6 2 11 -7 11 -23 0 -15 -26 -12 -40 5 -7 8 -17 12 -23 8 -6 -3 -7 -1 -3 5
4 6 14 9 24 6 15 -5 15 -4 -1 6 -9 6 -15 16 -11 21 11 18 -5 59 -21 53 -8 -4
-12 -11 -9 -18 3 -6 -3 0 -14 13 -17 21 -20 21 -25 7 -4 -10 -12 -14 -18 -10
-8 4 -8 9 -1 13 7 4 8 12 1 21 -8 13 -10 13 -19 0 -5 -8 -10 -10 -10 -4 0 7
-10 14 -21 17 -15 4 -20 11 -16 21 4 11 1 16 -12 16 -25 0 -69 37 -56 47 13
11 18 56 5 48 -6 -3 -10 -13 -10 -22 0 -8 -10 -25 -22 -38 -18 -19 -24 -20
-35 -10 -7 7 -18 15 -25 18 -10 4 -11 7 0 18 10 11 12 10 12 -4 0 -9 5 -17 11
-17 6 0 9 7 5 15 -3 8 2 21 10 30 8 8 12 20 8 26 -4 8 -3 9 4 5 8 -4 12 0 12
11 0 13 2 15 9 5 4 -7 20 -14 34 -16 15 -1 30 -6 35 -11 4 -4 1 -4 -7 0 -11 6
-13 4 -8 -9 4 -10 7 -22 7 -28 0 -7 5 -7 13 1 8 6 17 7 22 3 4 -4 5 3 2 16 -3
14 -1 22 8 22 14 0 28 -27 20 -40 -3 -5 -1 -11 4 -14 5 -4 13 4 17 16 8 26 7
33 -3 34 -5 0 -15 3 -23 6 -8 4 -24 9 -35 14 -18 6 -18 8 -2 11 9 3 15 9 11
14 -3 5 -10 7 -15 3 -6 -3 -7 5 -3 21 5 20 2 30 -15 41 -12 9 -21 21 -20 27 1
7 1 20 0 30 -1 14 -4 15 -14 5 -8 -7 -12 -21 -9 -31 6 -24 -18 -40 -32 -22 -6
7 -22 15 -36 17 -19 2 -24 8 -22 23 4 18 2 18 -17 -4 -12 -14 -24 -36 -27 -50
-13 -66 -14 -63 3 -49 14 12 15 9 9 -27 -10 -50 -11 -51 -31 -31 -19 19 -29
21 -19 4 13 -21 13 -57 -1 -52 -7 3 -15 -3 -19 -13 -6 -15 -8 -15 -16 -3 -8
13 -10 13 -10 0 0 -9 5 -21 12 -28 9 -9 9 -12 0 -12 -7 0 -12 -4 -12 -10 0 -5
6 -9 13 -7 8 1 11 -11 10 -43 -1 -27 1 -39 7 -31 10 18 40 7 40 -15 0 -9 -8
-23 -17 -30 -17 -13 -17 -14 0 -8 9 3 17 1 17 -5 0 -6 -4 -11 -10 -11 -5 0
-10 -5 -10 -11 0 -6 6 -9 13 -6 6 2 20 -2 29 -10 15 -14 18 -11 28 26 7 25 17
41 26 41 11 0 13 -6 8 -22 -4 -13 -7 -32 -8 -43 -1 -26 -38 -32 -60 -10 -13
14 -16 14 -16 2 0 -21 -44 -47 -80 -47 -41 0 -47 -22 -15 -54 14 -14 26 -25
28 -25 1 0 14 -2 30 -6 30 -8 35 -20 12 -29 -8 -3 -15 -1 -15 4 0 6 -5 10 -11
10 -5 0 -7 -6 -3 -12 6 -10 4 -10 -8 0 -12 10 -17 10 -20 1 -6 -18 -39 -3 -45
21 -3 11 -9 20 -14 20 -5 0 -6 -12 -3 -26 l7 -27 -48 34 c-26 19 -56 39 -66
45 -10 6 -27 21 -38 33 -18 20 -26 22 -80 12 -3 -1 0 -6 7 -13 8 -8 15 -8 27
2 10 8 15 9 15 1 0 -6 -5 -11 -11 -11 -6 0 -8 -8 -4 -19 8 -26 -15 -39 -31
-17 -6 9 -23 18 -37 20 -14 1 -33 8 -41 15 -8 7 -20 10 -26 6 -5 -3 -10 1 -10
9 0 9 -4 16 -10 16 -5 0 -7 6 -4 14 4 11 0 13 -14 9 -16 -4 -23 4 -37 40 -9
25 -14 50 -10 56 4 7 -4 11 -19 11 -14 0 -26 -5 -26 -10 0 -6 -16 5 -37 25
-20 19 -42 35 -50 35 -11 0 -13 8 -7 32 6 28 5 31 -8 20 -23 -18 -37 5 -39 64
-2 54 7 94 22 94 5 0 9 12 10 28 l1 27 10 -27 c5 -16 14 -28 19 -28 5 0 9 -7
9 -15 0 -18 -12 -19 -27 -4 -7 7 -12 6 -16 -5 -4 -11 -1 -16 11 -17 14 0 14
-2 -3 -9 -18 -8 -18 -9 -2 -9 12 -1 16 -5 11 -13 -6 -10 -4 -10 7 -2 19 15 46
14 46 -3 0 -9 -4 -10 -13 -2 -9 7 -14 6 -20 -3 -4 -7 -4 -10 1 -6 4 4 16 -2
26 -13 20 -24 35 -9 30 31 -3 22 -1 23 14 10 16 -14 17 -13 11 8 -10 29 -3 28
32 -6 26 -25 28 -32 18 -51 -7 -12 -15 -18 -19 -15 -4 4 -7 2 -7 -5 0 -8 7
-11 15 -7 8 3 15 2 15 -3 0 -4 7 -8 15 -8 9 0 14 5 12 11 -3 6 -10 10 -17 8
-8 -2 -10 3 -6 13 3 9 6 19 6 21 0 3 4 3 9 -1 6 -3 15 4 21 16 10 17 9 24 -5
38 -15 15 -16 14 -11 -14 4 -16 4 -25 0 -18 -3 7 -12 9 -21 6 -13 -5 -14 -3
-3 16 15 28 22 101 9 101 -5 0 -9 -7 -9 -15 0 -8 -4 -15 -8 -15 -4 0 -8 9 -8
20 0 19 8 24 32 21 14 -2 26 27 17 41 -3 7 -1 8 5 4 7 -4 12 -1 12 8 0 8 -6
17 -12 20 -10 3 -9 8 2 18 17 14 23 48 9 48 -5 0 -9 -5 -9 -11 0 -5 -12 2 -26
18 -24 26 -25 36 -9 76 5 12 2 17 -8 17 -8 0 -18 -6 -20 -12 -7 -18 -8 22 -1
49 3 11 14 23 25 26 10 3 17 1 14 -3 -3 -5 0 -10 6 -12 7 -2 13 -19 15 -38 8
-67 25 -80 42 -31 9 25 8 30 -10 34 -11 3 -17 10 -14 16 5 7 13 7 26 -1 16
-10 24 -8 46 12 20 19 26 21 21 8 -3 -10 -3 -17 1 -17 26 4 34 -1 22 -16 -7
-9 -21 -13 -31 -10 -9 3 -20 1 -24 -5 -3 -5 1 -10 9 -10 24 0 19 -19 -7 -29
-34 -13 -48 -33 -32 -48 7 -7 17 -8 26 -2 21 13 27 11 31 -13 3 -22 5 -21 20
8 18 34 14 51 -9 33 -9 -9 -13 -8 -13 0 0 6 4 11 10 11 5 0 7 6 4 13 -2 7 9
26 25 43 33 32 40 54 16 54 -8 0 -15 -4 -15 -10 0 -5 5 -10 12 -10 6 0 9 -2 6
-5 -3 -3 -12 -3 -20 0 -22 9 -11 53 16 58 11 3 5 4 -14 4 -22 -1 -34 -7 -33
-14 2 -7 -5 -16 -15 -21 -22 -12 -85 5 -76 19 4 6 9 7 13 3 9 -13 44 -17 36
-5 -3 6 -1 11 4 11 6 0 11 7 11 16 0 11 5 14 16 10 13 -5 14 -4 6 7 -15 17
-159 11 -182 -8 -22 -18 -53 -27 -44 -13 5 8 2 9 -9 5 -11 -4 -17 -1 -17 8 0
10 11 15 34 15 19 0 38 5 42 12 4 7 3 8 -4 4 -7 -4 -18 -4 -24 1 -18 10 -24
10 -98 1z m260 -32 c0 -2 -9 -6 -20 -9 -11 -3 -18 -1 -14 4 5 9 34 13 34 5z
m-133 -32 c-3 -3 -12 -4 -19 -1 -8 3 -5 6 6 6 11 1 17 -2 13 -5z m-77 -54
c-19 -13 -30 -13 -30 0 0 6 10 10 23 10 18 0 19 -2 7 -10z m-70 -100 c0 -5 -5
-10 -11 -10 -5 0 -7 5 -4 10 3 6 8 10 11 10 2 0 4 -4 4 -10z m80 -20 c0 -5 -2
-10 -4 -10 -3 0 -8 5 -11 10 -3 6 -1 10 4 10 6 0 11 -4 11 -10z m-240 -21 c0
-5 -4 -9 -10 -9 -5 0 -10 7 -10 16 0 8 5 12 10 9 6 -3 10 -10 10 -16z m164 6
c-4 -8 -10 -12 -15 -9 -14 8 -10 24 6 24 9 0 12 -6 9 -15z m112 -76 c7 -19 9
-38 6 -44 -4 -5 -11 6 -17 25 -5 19 -14 41 -19 49 -6 10 -5 12 5 9 8 -2 19
-20 25 -39z m84 -22 c0 -10 -4 -15 -10 -12 -5 3 -10 18 -10 33 0 21 2 24 10
12 5 -8 10 -23 10 -33z m-238 -9 c-7 -7 -12 -8 -12 -2 0 14 12 26 19 19 2 -3
-1 -11 -7 -17z m98 -38 c0 -5 -2 -10 -4 -10 -3 0 -8 5 -11 10 -3 6 -1 10 4 10
6 0 11 -4 11 -10z m800 -54 c-14 -14 -24 0 -16 21 6 15 8 15 16 3 6 -9 5 -19
0 -24z m-80 -6 c0 -5 -5 -10 -11 -10 -5 0 -7 5 -4 10 3 6 8 10 11 10 2 0 4 -4
4 -10z m-680 -16 c0 -8 -4 -12 -10 -9 -5 3 -10 10 -10 16 0 5 5 9 10 9 6 0 10
-7 10 -16z m47 10 c-3 -3 -12 -4 -19 -1 -8 3 -5 6 6 6 11 1 17 -2 13 -5z m20
-26 c-3 -8 -6 -5 -6 6 -1 11 2 17 5 13 3 -3 4 -12 1 -19z m606 -8 c-3 -11 -9
-20 -14 -20 -11 0 -11 3 -3 24 9 23 23 20 17 -4z m-1216 -42 c-3 -8 -6 -5 -6
6 -1 11 2 17 5 13 3 -3 4 -12 1 -19z m45 -70 c-8 -8 -9 -4 -5 13 4 13 8 18 11
10 2 -7 -1 -18 -6 -23z m1358 -89 c0 -17 4 -28 10 -24 6 3 7 -1 4 -9 -8 -22
-10 -21 -28 16 -20 39 -20 48 -1 48 10 0 15 -10 15 -31z m-930 -10 c0 -6 -4
-7 -10 -4 -5 3 -10 11 -10 16 0 6 5 7 10 4 6 -3 10 -11 10 -16z m-20 -20 c0
-22 38 -87 64 -108 11 -9 14 -21 9 -39 -4 -17 -2 -23 5 -18 8 5 10 2 6 -8 -4
-11 0 -16 10 -16 22 0 20 -17 -4 -30 -13 -7 -20 -7 -20 -1 0 6 -14 18 -30 26
-17 9 -28 20 -25 25 4 6 2 10 -3 10 -5 0 -15 11 -22 25 -10 18 -16 22 -22 13
-6 -10 -8 -10 -8 1 0 8 -7 19 -16 25 -12 9 -7 11 25 10 l39 -1 -17 46 c-18 45
-18 76 0 65 5 -3 9 -14 9 -25z m1070 7 c0 -3 -4 -8 -10 -11 -5 -3 -10 -1 -10
4 0 6 5 11 10 11 6 0 10 -2 10 -4z m-197 -46 c10 0 15 5 12 10 -11 18 7 10 26
-12 21 -23 24 -38 9 -38 -5 0 -10 -8 -10 -17 0 -15 2 -16 10 -3 10 16 10 14
14 -41 1 -9 6 -22 13 -30 15 -18 11 -47 -8 -61 -11 -8 -10 -9 4 -4 12 4 17 2
15 -6 -6 -18 -49 -20 -69 -2 -10 9 -23 13 -28 9 -7 -4 -11 4 -11 19 0 14 -5
26 -12 26 -9 0 -9 3 0 12 7 7 20 13 30 13 9 0 18 8 20 18 2 10 -3 17 -12 17
-9 0 -16 5 -16 10 0 14 -27 12 -33 -2 -3 -7 -6 -1 -6 15 -1 15 3 27 9 27 5 0
7 7 4 15 -4 8 -10 13 -14 10 -4 -3 -11 2 -14 11 -3 8 -2 12 3 9 5 -3 13 0 16
6 5 8 10 8 18 0 6 -6 19 -11 30 -11z m220 -41 c9 -7 -26 -49 -42 -49 -6 0 -11
5 -11 10 0 6 5 10 10 10 6 0 10 8 10 18 0 22 11 35 19 25 3 -4 9 -10 14 -14z
m-693 -94 c0 -8 -4 -15 -10 -15 -5 0 -7 7 -4 15 4 8 8 15 10 15 2 0 4 -7 4
-15z m389 -10 c2 -13 -1 -16 -13 -12 -9 4 -16 1 -16 -5 0 -6 -2 -9 -5 -7 -2 3
-2 15 2 27 6 26 26 24 32 -3z m-619 -29 c0 -3 -4 -8 -10 -11 -5 -3 -10 -1 -10
4 0 6 5 11 10 11 6 0 10 -2 10 -4z m890 -22 c0 -14 -3 -14 -15 -4 -8 7 -15 14
-15 16 0 2 7 4 15 4 8 0 15 -7 15 -16z m-1983 -171 c12 -15 45 -11 71 10 18
14 199 -11 240 -34 18 -11 42 -19 54 -19 17 0 19 -4 14 -26 -7 -25 -5 -25 26
-19 18 4 39 15 47 26 17 24 39 24 66 -1 21 -19 21 -19 103 10 45 16 82 25 82
20 0 -5 -9 -24 -20 -42 -11 -18 -20 -42 -20 -53 0 -41 -54 -62 -80 -30 -10 12
-7 15 14 21 21 5 58 34 43 34 -23 0 -77 -33 -77 -48 0 -38 -133 -127 -214
-144 -46 -10 -58 -9 -80 5 -14 9 -32 17 -41 17 -18 0 -95 79 -95 98 0 7 -4 11
-9 8 -5 -3 -19 3 -32 13 -22 18 -22 20 -6 42 31 45 44 59 56 59 6 0 11 4 11 9
0 5 3 18 6 28 5 16 3 16 -13 -2 -10 -12 -26 -24 -36 -28 -10 -4 -16 -11 -12
-16 7 -12 -35 -42 -48 -34 -6 3 -7 1 -3 -5 4 -7 2 -12 -4 -12 -7 0 -9 -8 -5
-21 6 -19 5 -20 -17 -9 -12 7 -31 19 -40 28 -12 10 -18 11 -18 4 0 -21 -32
-13 -37 9 -3 11 -11 18 -18 15 -7 -2 -15 4 -18 15 -3 11 -15 23 -26 26 -25 6
-27 35 -5 57 19 20 123 12 141 -11z m1466 15 c32 -12 33 -25 10 -67 -13 -23
-15 -33 -6 -39 6 -4 11 -16 10 -27 -2 -15 6 -21 36 -26 39 -6 75 -29 46 -29
-8 0 -20 5 -27 12 -9 9 -12 9 -12 1 0 -7 5 -15 10 -18 23 -14 6 -20 -51 -18
-45 2 -65 7 -76 20 -8 10 -12 12 -8 6 4 -8 0 -13 -9 -13 -21 0 -30 19 -12 26
9 3 16 10 16 16 0 5 -4 7 -10 3 -13 -8 -50 17 -50 34 0 11 -4 11 -18 -2 -11
-10 -35 -17 -58 -17 -35 0 -47 -7 -107 -66 l-67 -65 -36 13 c-34 12 -37 11
-56 -15 -19 -27 -68 -39 -68 -16 0 5 -15 16 -34 24 -41 17 -96 62 -96 79 0 18
-53 66 -73 66 -57 0 51 66 123 75 80 10 110 15 160 27 102 25 409 35 463 16z
m102 -218 c3 -5 1 -10 -4 -10 -6 0 -11 5 -11 10 0 6 2 10 4 10 3 0 8 -4 11
-10z m-309 -15 c16 -12 16 -14 3 -15 -9 0 -22 7 -29 15 -16 19 0 19 26 0z
m674 -15 c0 -13 -5 -18 -15 -14 -16 7 -19 17 -8 27 12 13 23 7 23 -13z m-547
-2 c12 -7 25 -17 29 -23 5 -6 8 -4 8 5 0 13 1 13 10 0 16 -25 12 -27 -45 -35
-30 -3 -57 -11 -60 -16 -8 -12 -45 -12 -45 1 0 6 9 10 20 10 12 0 20 6 18 13
-3 16 20 57 32 57 6 0 20 -6 33 -12z m190 -3 c15 -8 34 -12 42 -8 11 4 15 -2
15 -22 0 -15 -4 -24 -10 -20 -5 3 -10 1 -10 -4 0 -6 -7 -11 -15 -11 -14 0 -20
17 -16 48 1 7 -2 12 -6 11 -21 -4 -43 2 -43 11 0 14 10 13 43 -5z m-813 -11
c0 -8 -4 -12 -10 -9 -5 3 -10 -1 -10 -9 0 -9 -7 -16 -15 -16 -8 0 -15 5 -15
10 0 6 0 13 -1 18 0 4 10 10 23 14 13 3 24 6 26 7 1 1 2 -6 2 -15z m757 10
c-3 -3 -12 -4 -19 -1 -8 3 -5 6 6 6 11 1 17 -2 13 -5z m363 -33 c0 -6 -4 -13
-10 -16 -5 -3 -10 1 -10 9 0 9 5 16 10 16 6 0 10 -4 10 -9z m-1185 -11 c3 -5
1 -10 -4 -10 -6 0 -11 5 -11 10 0 6 2 10 4 10 3 0 8 -4 11 -10z m-269 -50 c19
0 19 -59 -1 -86 -10 -16 -22 -20 -40 -16 -18 3 -23 8 -16 15 11 11 3 39 -10
31 -5 -3 -9 -15 -9 -27 0 -16 -3 -18 -9 -8 -12 19 -4 43 32 87 25 29 33 34 35
21 2 -9 10 -17 18 -17z m104 -42 c0 -23 -14 -23 -31 -1 -10 11 -10 14 -1 9 8
-5 12 0 12 16 0 18 2 20 10 8 5 -8 10 -23 10 -32z m1735 -38 c3 -6 -1 -7 -9
-4 -18 7 -21 14 -7 14 6 0 13 -4 16 -10z m52 -42 c1 -18 -1 -25 -4 -15 -4 15
-15 21 -35 18 -5 0 -8 3 -8 8 0 8 11 14 40 20 3 0 6 -14 7 -31z m60 -10 c-3
-8 -6 -5 -6 6 -1 11 2 17 5 13 3 -3 4 -12 1 -19z m-147 -2 c0 -3 -4 -8 -10
-11 -5 -3 -10 -1 -10 4 0 6 5 11 10 11 6 0 10 -2 10 -4z m-150 -74 c0 -5 -24
-14 -52 -22 -29 -7 -60 -15 -68 -18 -10 -3 -12 -2 -5 6 6 6 35 17 65 25 30 9
56 16 58 16 1 1 2 -3 2 -7z m-1283 -354 c-3 -8 -6 -5 -6 6 -1 11 2 17 5 13 3
-3 4 -12 1 -19z m-21 -25 c-10 -10 -19 5 -10 18 6 11 8 11 12 0 2 -7 1 -15 -2
-18z m31 -28 c-4 -8 -11 -15 -17 -15 -6 0 -6 7 2 20 14 22 24 19 15 -5z m33
-20 c0 -8 -4 -15 -10 -15 -5 0 -10 7 -10 15 0 8 5 15 10 15 6 0 10 -7 10 -15z
m43 -31 c-7 -19 -23 -7 -23 18 0 17 3 18 14 8 8 -6 12 -18 9 -26z m-278 16 c3
-5 1 -10 -4 -10 -6 0 -11 5 -11 10 0 6 2 10 4 10 3 0 8 -4 11 -10z m-78 -16
c-3 -3 -12 -4 -19 -1 -8 3 -5 6 6 6 11 1 17 -2 13 -5z m200 -39 c9 -24 -1 -27
-15 -5 -8 13 -8 20 -2 20 6 0 13 -7 17 -15z m-62 -34 c-6 -20 -25 -30 -25 -13
1 26 14 52 22 44 6 -6 7 -19 3 -31z m180 22 c9 4 14 3 10 -3 -3 -6 -1 -10 5
-10 7 0 9 -7 6 -16 -4 -10 0 -21 9 -28 13 -9 11 -11 -10 -11 -14 0 -25 3 -25
8 0 4 -6 7 -14 7 -18 0 -28 27 -20 53 5 14 8 16 14 7 4 -7 15 -10 25 -7z
m2740 -51 c-6 -6 -34 11 -39 24 -4 11 0 10 18 -3 13 -10 23 -19 21 -21z m-185
3 c14 -19 14 -19 -2 -6 -10 7 -18 18 -18 24 0 6 1 8 3 6 1 -2 9 -13 17 -24z
m57 19 c-3 -3 -12 -4 -19 -1 -8 3 -5 6 6 6 11 1 17 -2 13 -5z m-2743 -13 c3
-4 17 -6 31 -3 20 3 25 0 25 -16 0 -27 -15 -36 -32 -18 -8 7 -24 17 -36 20
-12 4 -20 12 -17 17 8 11 22 12 29 0z m486 -1 c0 -5 -5 -10 -11 -10 -5 0 -7 5
-4 10 3 6 8 10 11 10 2 0 4 -4 4 -10z m2310 -10 c0 -9 -31 -23 -37 -16 -3 3 1
11 8 19 14 15 29 13 29 -3z m-1765 -10 c-3 -5 0 -7 9 -4 19 7 56 -13 56 -31 0
-15 -34 -55 -46 -55 -3 0 -14 -10 -25 -22 -14 -17 -17 -18 -13 -5 5 14 0 17
-26 17 -42 0 -98 53 -80 75 7 8 23 15 37 15 14 0 21 4 18 10 -4 6 10 10 35 10
25 0 39 -4 35 -10z m1348 -67 c-6 -16 -13 -16 -33 -2 -13 9 -12 10 3 5 9 -3
17 -1 17 4 0 5 -9 11 -19 15 -11 3 -18 12 -15 19 4 10 11 8 28 -7 13 -12 22
-27 19 -34z m-2417 12 c0 -15 -9 -28 -19 -31 -27 -9 -32 2 -13 31 21 32 34 32
32 0z m2449 15 c-3 -5 -1 -10 5 -10 6 0 8 -4 5 -10 -3 -5 -11 -10 -17 -10 -6
0 -8 3 -5 7 4 3 2 12 -4 20 -9 10 -8 13 5 13 10 0 14 -4 11 -10z m-2355 -10
c0 -5 -5 -10 -11 -10 -5 0 -7 5 -4 10 3 6 8 10 11 10 2 0 4 -4 4 -10z m420
-70 c0 -5 -4 -10 -10 -10 -5 0 -10 5 -10 10 0 6 5 10 10 10 6 0 10 -4 10 -10z
m76 -15 c4 -8 12 -15 20 -15 19 0 18 -19 -1 -26 -22 -9 -67 30 -52 45 15 15
27 14 33 -4z m85 -5 c11 0 19 -7 19 -17 0 -10 -4 -14 -8 -8 -4 6 -18 10 -31
10 -13 0 -26 6 -29 14 -3 10 0 12 12 8 10 -4 26 -7 37 -7z m2586 -12 c-3 -8
-6 -5 -6 6 -1 11 2 17 5 13 3 -3 4 -12 1 -19z m-2687 -32 c0 -22 -16 -28 -29
-12 -9 11 -9 15 1 19 22 9 28 8 28 -7z m1440 -33 c0 -18 -10 -16 -26 5 -20 25
-17 34 6 20 11 -7 20 -18 20 -25z m1060 17 c0 -12 -28 -25 -36 -17 -9 9 6 27
22 27 8 0 14 -5 14 -10z m-706 -15 c19 -15 19 -15 -1 -15 -11 0 -23 7 -27 15
-7 19 3 19 28 0z m-304 0 c0 -7 -30 -13 -34 -7 -3 4 4 9 15 9 10 1 19 0 19 -2z
m-800 -25 c0 -5 -5 -10 -11 -10 -5 0 -7 5 -4 10 3 6 8 10 11 10 2 0 4 -4 4
-10z m-200 -20 c0 -5 -5 -10 -11 -10 -5 0 -7 5 -4 10 3 6 8 10 11 10 2 0 4 -4
4 -10z m383 -55 c8 -41 2 -105 -11 -105 -4 0 -6 18 -4 40 8 78 -19 124 -32 55
-9 -44 -26 -46 -26 -2 0 69 59 79 73 12z m-1198 5 c3 -5 -1 -10 -9 -10 -8 0
-18 5 -21 10 -3 6 1 10 9 10 8 0 18 -4 21 -10z m57 -38 c-9 -14 -11 -23 -4
-19 6 5 12 4 12 -2 0 -5 -4 -12 -9 -15 -13 -8 -34 21 -28 38 3 8 1 17 -6 19
-7 2 3 4 20 5 l33 1 -18 -27z m673 -42 c-3 -5 -11 -10 -16 -10 -6 0 -7 5 -4
10 3 6 11 10 16 10 6 0 7 -4 4 -10z m-10 -69 c-3 -6 -11 -11 -16 -11 -5 0 -4
6 3 14 14 16 24 13 13 -3z m1253 -4 c2 -12 -3 -17 -17 -17 -23 0 -24 1 -15 25
8 19 28 15 32 -8z m462 -21 c5 -5 3 -15 -5 -22 -18 -19 -31 -18 -15 1 10 12
10 18 0 30 -7 8 -8 20 -4 27 6 10 10 8 12 -7 2 -11 8 -24 12 -29z m53 20 c7
-16 -1 -26 -20 -26 -7 0 -13 9 -13 20 0 23 25 27 33 6z m-2926 -39 c1 -29 1
-30 -8 -9 -5 13 -7 28 -3 33 8 14 9 12 11 -24z m2817 -22 c24 0 19 -20 -5 -20
-11 0 -24 -7 -29 -15 -5 -8 -13 -11 -17 -6 -4 5 -3 11 4 13 7 3 10 18 7 41 -5
37 -5 37 10 12 8 -14 22 -25 30 -25z m258 23 c0 -13 1 -29 1 -35 -1 -7 5 -13
13 -13 8 0 14 5 14 11 0 8 5 8 15 -1 8 -7 15 -24 15 -39 -1 -22 -3 -24 -13
-11 -13 16 -42 26 -33 11 6 -10 -44 -22 -57 -14 -5 3 0 11 9 18 10 7 15 19 11
28 -3 9 -1 19 4 23 6 3 9 15 6 25 -3 11 -1 19 4 19 5 0 10 -10 11 -22z m-317
-8 c3 -5 -1 -10 -10 -10 -9 0 -13 5 -10 10 3 6 8 10 10 10 2 0 7 -4 10 -10z
m172 -42 c-3 -8 -6 -5 -6 6 -1 11 2 17 5 13 3 -3 4 -12 1 -19z m-2484 -19 c-3
-10 -12 -19 -20 -19 -10 0 -13 6 -9 16 3 9 6 20 6 25 0 4 6 6 14 3 8 -3 12
-13 9 -25z m2197 6 c11 -13 10 -14 -4 -9 -9 3 -16 10 -16 15 0 13 6 11 20 -6z
m370 11 c0 -3 -4 -8 -10 -11 -5 -3 -10 -1 -10 4 0 6 5 11 10 11 6 0 10 -2 10
-4z m-407 -12 c11 -11 -3 -24 -18 -18 -8 4 -12 10 -9 15 6 11 18 12 27 3z
m617 -9 c0 -8 -4 -15 -10 -15 -5 0 -7 7 -4 15 4 8 8 15 10 15 2 0 4 -7 4 -15z
m-350 -5 c0 -5 -5 -10 -11 -10 -5 0 -7 5 -4 10 3 6 8 10 11 10 2 0 4 -4 4 -10z
m63 -7 c-3 -7 -9 -13 -13 -13 -4 0 -10 6 -13 13 -3 7 3 13 13 13 10 0 16 -6
13 -13z m47 7 c0 -5 -8 -10 -17 -10 -15 0 -16 2 -3 10 19 12 20 12 20 0z
m-378 -50 c5 0 6 -5 2 -11 -3 -6 -1 -15 6 -19 8 -5 7 -9 -4 -13 -10 -4 -16 -1
-16 9 0 12 -4 13 -21 4 -25 -14 -25 -13 -35 24 -4 19 -3 27 3 23 6 -4 17 0 24
9 12 15 14 14 23 -5 5 -12 13 -21 18 -21z m43 30 c3 -5 1 -10 -4 -10 -6 0 -11
5 -11 10 0 6 2 10 4 10 3 0 8 -4 11 -10z m107 -12 c-6 -6 -16 -7 -22 -3 -9 6
-9 9 1 16 17 10 34 0 21 -13z m428 8 c0 -11 -19 -15 -25 -6 -3 5 1 10 9 10 9
0 16 -2 16 -4z m-377 -20 c3 3 11 3 17 -1 9 -6 9 -9 0 -15 -9 -6 -9 -13 -1
-28 7 -13 7 -23 2 -27 -11 -6 -31 25 -31 49 0 9 -7 16 -16 16 -8 0 -12 5 -9
10 5 8 11 8 19 1 7 -6 16 -8 19 -5z m162 4 c3 -6 -1 -7 -9 -4 -18 7 -21 14 -7
14 6 0 13 -4 16 -10z m-2522 -19 c-9 -11 -20 -18 -25 -15 -12 8 11 34 28 34
11 0 10 -4 -3 -19z m709 -1 c4 -3 -8 -6 -27 -6 -19 0 -35 1 -35 3 0 7 45 20
50 14 3 -3 8 -8 12 -11z m1180 -2 c-7 -7 -12 -8 -12 -2 0 14 12 26 19 19 2 -3
-1 -11 -7 -17z m366 10 c-2 -8 7 -12 27 -10 25 2 27 1 13 -8 -9 -6 -15 -17
-12 -25 4 -10 0 -15 -11 -15 -9 0 -13 5 -10 10 3 6 1 10 -6 10 -12 0 -38 29
-39 43 0 4 9 7 20 7 11 0 19 -6 18 -12z m212 -32 c-5 -13 -6 -27 -3 -30 4 -3
-3 -6 -15 -6 -14 0 -22 6 -22 16 0 9 -8 23 -17 30 -17 12 -16 13 5 14 16 0 22
-6 23 -22 1 -21 2 -20 11 5 5 15 14 25 18 22 5 -3 5 -16 0 -29z m280 24 c0 -5
-5 -10 -11 -10 -5 0 -7 5 -4 10 3 6 8 10 11 10 2 0 4 -4 4 -10z m-2020 -31 c0
-4 -5 -9 -12 -11 -7 -3 10 -12 38 -21 28 -9 50 -12 52 -7 2 6 12 10 22 10 10
0 22 5 25 10 3 6 11 10 16 10 6 0 4 -6 -4 -14 -9 -10 -13 -33 -12 -68 3 -83 4
-86 23 -91 15 -4 15 -5 0 -6 -9 0 -25 10 -36 24 -15 19 -27 24 -52 22 -31 -4
-53 -23 -44 -39 8 -12 -16 -49 -27 -42 -7 4 -7 10 0 18 8 9 2 11 -24 8 -33 -4
-33 -4 -31 33 4 46 17 60 43 47 27 -15 39 -3 37 38 l-1 35 -55 0 -54 0 14 25
c12 20 23 26 49 26 18 0 33 -3 33 -7z m1683 -25 c3 -18 1 -22 -6 -15 -13 13
-20 54 -8 47 5 -3 11 -17 14 -32z m-1483 -4 c-9 -17 -9 -21 2 -19 25 3 38 -1
38 -12 0 -5 -4 -8 -9 -5 -5 4 -11 2 -13 -4 -2 -8 -54 3 -77 17 -5 3 21 26 44
39 26 15 29 11 15 -16z m132 -16 c2 -19 0 -34 -7 -34 -5 0 -4 -4 4 -9 20 -13
-3 -23 -29 -13 -20 8 -21 10 -7 24 9 9 13 19 9 22 -3 4 0 11 8 16 13 8 12 10
-2 10 -18 0 -24 11 -12 23 14 13 32 -7 36 -39z m1513 36 c-3 -5 -11 -10 -16
-10 -6 0 -7 5 -4 10 3 6 11 10 16 10 6 0 7 -4 4 -10z m252 -12 c-3 -8 -6 -5
-6 6 -1 11 2 17 5 13 3 -3 4 -12 1 -19z m-784 -2 c16 -13 16 -14 0 -27 -10 -7
-15 -9 -10 -4 4 4 0 17 -10 27 -19 21 -6 24 20 4z m277 7 c0 -5 -5 -15 -10
-23 -8 -12 -10 -11 -10 8 0 12 5 22 10 22 6 0 10 -3 10 -7z m-1760 -41 c-27
-4 -34 2 -26 24 6 15 8 15 27 -2 l21 -19 -22 -3z m2246 -2 c-1 -41 -11 -54
-18 -22 -4 14 10 62 17 62 1 0 2 -18 1 -40z m107 31 c33 -13 42 -48 14 -57
-14 -4 -25 0 -36 15 -11 14 -23 19 -38 15 -25 -7 -30 5 -11 24 14 14 38 15 71
3z m-2865 -24 c2 -9 -2 -17 -8 -17 -6 0 -8 5 -5 10 3 6 1 10 -4 10 -6 0 -11 5
-11 11 0 17 25 4 28 -14z m122 -13 c12 -19 20 -38 16 -41 -3 -3 -8 2 -12 11
-3 9 -12 16 -20 16 -8 0 -14 10 -14 25 0 33 4 32 30 -11z m2125 6 c3 -5 1 -10
-4 -10 -6 0 -11 5 -11 10 0 6 2 10 4 10 3 0 8 -4 11 -10z m-1285 -9 c0 -6 -4
-13 -10 -16 -5 -3 -10 1 -10 9 0 9 5 16 10 16 6 0 10 -4 10 -9z m672 -13 c-6
-6 -16 -7 -22 -3 -9 6 -9 9 1 16 17 10 34 0 21 -13z m589 6 c12 -14 11 -16 -5
-13 -11 2 -21 10 -24 17 -5 17 13 15 29 -4z m209 7 c0 -6 -4 -13 -10 -16 -5
-3 -10 1 -10 9 0 9 5 16 10 16 6 0 10 -4 10 -9z m-1306 -10 c4 -5 -3 -7 -14
-4 -23 6 -26 13 -6 13 8 0 17 -4 20 -9z m171 -11 c3 -5 1 -10 -4 -10 -6 0 -11
5 -11 10 0 6 2 10 4 10 3 0 8 -4 11 -10z m-695 -10 c-19 -13 -30 -13 -30 0 0
6 10 10 23 10 18 0 19 -2 7 -10z m330 -16 c0 -16 -16 -19 -25 -4 -8 13 4 32
16 25 5 -4 9 -13 9 -21z m1880 16 c0 -5 -4 -10 -9 -10 -6 0 -13 5 -16 10 -3 6
1 10 9 10 9 0 16 -4 16 -10z m-2420 -10 c0 -5 -4 -10 -10 -10 -5 0 -10 5 -10
10 0 6 5 10 10 10 6 0 10 -4 10 -10z m904 -42 c1 -16 -3 -24 -10 -21 -7 2 -10
13 -7 24 3 11 0 19 -6 19 -7 0 -9 -4 -6 -10 9 -15 -4 -12 -21 4 -10 11 -11 15
-1 19 24 8 50 -9 51 -35z m-384 3 c22 -21 26 -31 17 -40 -20 -20 -38 -13 -31
13 4 19 1 26 -15 31 -12 3 -21 11 -21 16 0 17 22 9 50 -20z m795 -1 c3 -5 1
-10 -4 -10 -6 0 -11 5 -11 10 0 6 2 10 4 10 3 0 8 -4 11 -10z m-295 -12 c0 -4
-7 -8 -15 -8 -8 0 -15 4 -15 8 0 5 7 9 15 9 8 0 15 -4 15 -9z m-1390 -2 c0 -2
-9 -6 -20 -9 -11 -3 -18 -1 -14 4 5 9 34 13 34 5z m530 -6 c0 -5 -4 -10 -10
-10 -5 0 -10 5 -10 10 0 6 5 10 10 10 6 0 10 -4 10 -10z m-559 -47 c13 -15 12
-15 -8 -4 -24 12 -29 21 -14 21 5 0 15 -7 22 -17z m84 -13 c3 -5 1 -10 -4 -10
-6 0 -11 5 -11 10 0 6 2 10 4 10 3 0 8 -4 11 -10z m1262 -27 c-2 -5 4 -16 15
-25 15 -15 18 -15 18 -3 0 18 21 20 38 3 9 -9 12 -7 13 13 0 22 1 22 8 4 10
-25 -13 -42 -34 -25 -10 9 -15 7 -20 -9 -4 -13 -15 -21 -28 -22 -21 0 -21 -1
-2 -9 11 -5 15 -9 9 -9 -7 -1 -14 -10 -17 -20 -3 -14 -1 -18 9 -14 8 3 11 9 8
14 -3 5 0 9 5 9 26 0 -3 -44 -37 -54 -20 -7 -22 -4 -22 28 0 32 -3 36 -27 38
-65 4 -89 3 -100 -5 -7 -5 -17 -6 -23 -2 -5 3 -10 2 -10 -4 0 -6 -7 -8 -15 -4
-26 9 -10 28 20 25 24 -3 27 -1 23 16 -4 15 -2 19 8 15 8 -3 14 -9 14 -14 0
-15 27 -10 75 13 25 12 45 28 45 35 0 7 7 13 16 13 8 0 13 -3 11 -7z m260 1
c-3 -3 -12 -4 -19 -1 -8 3 -5 6 6 6 11 1 17 -2 13 -5z m-17 -39 c0 -16 -7 -25
-26 -29 -36 -9 -41 0 -16 27 12 13 19 27 15 31 -4 4 0 4 10 0 9 -3 17 -16 17
-29z m177 13 c2 -17 0 -19 -7 -8 -5 8 -6 18 -4 22 8 12 10 10 11 -14z m-24
-12 c9 5 9 4 0 -6 -15 -17 -34 -4 -25 18 6 16 7 16 10 -1 2 -10 9 -14 15 -11z
m-326 -40 c-8 -16 -14 -20 -19 -13 -4 6 -2 17 4 24 18 22 27 15 15 -11z m-314
5 c15 -2 6 -40 -10 -45 -28 -7 -99 1 -125 15 l-23 12 30 9 c17 4 37 5 47 2 9
-2 19 0 23 5 3 6 16 9 28 7 12 -3 25 -5 30 -5z m694 3 c-3 -3 -12 -4 -19 -1
-8 3 -5 6 6 6 11 1 17 -2 13 -5z m323 -4 c0 -5 -5 -10 -11 -10 -5 0 -7 5 -4
10 3 6 8 10 11 10 2 0 4 -4 4 -10z m-279 -41 c12 -19 11 -32 -1 -24 -6 4 -17
1 -25 -5 -12 -10 -15 -10 -15 1 0 11 -2 11 -8 1 -5 -7 -16 -10 -25 -6 -11 4
-24 -2 -35 -17 -15 -17 -21 -19 -27 -9 -5 9 -4 11 3 6 17 -11 15 9 -3 24 -20
17 -19 30 3 30 14 0 15 2 2 9 -9 6 10 9 54 7 45 -2 71 -8 77 -17z m50 -22 c-8
-8 -11 -7 -11 4 0 20 13 34 18 19 3 -7 -1 -17 -7 -23z m-256 12 c4 -6 -2 -19
-13 -30 -12 -10 -24 -15 -27 -10 -3 6 -15 8 -27 6 -12 -3 -40 -7 -62 -11 -46
-6 -83 -28 -67 -39 6 -3 11 -1 11 6 0 10 3 10 12 1 8 -8 8 -15 -1 -26 -9 -11
-10 -20 -2 -33 6 -10 11 -14 11 -10 0 5 5 5 11 2 7 -5 4 -13 -7 -26 -9 -10
-20 -16 -25 -14 -10 6 -40 -35 -33 -46 2 -4 -1 -11 -8 -15 -7 -4 -10 -4 -7 0
4 4 3 22 -1 41 -5 20 -4 33 1 29 5 -3 9 4 9 15 0 12 -5 21 -11 21 -5 0 -7 4
-4 10 9 14 -16 44 -40 48 -24 5 -45 21 -45 35 0 7 4 7 12 -1 15 -15 84 -16 93
-2 3 6 17 10 30 10 13 0 26 4 29 9 3 5 18 11 33 14 16 4 46 10 68 15 55 13 53
13 60 1z m-888 -15 c-3 -3 -12 -4 -19 -1 -8 3 -5 6 6 6 11 1 17 -2 13 -5z
m330 -36 c-3 -8 -6 -5 -6 6 -1 11 2 17 5 13 3 -3 4 -12 1 -19z m693 6 c0 -8
-5 -12 -10 -9 -6 4 -8 11 -5 16 9 14 15 11 15 -7z m-187 -43 c27 3 35 -2 33
-25 0 -13 -5 -22 -9 -19 -5 3 -6 12 -3 20 5 11 1 14 -13 10 -19 -5 -32 11 -30
36 1 7 3 4 6 -6 2 -10 10 -17 16 -16z m-774 -32 c-18 -12 -26 -11 -34 1 -4 6
-1 17 5 25 10 12 14 12 28 -1 13 -13 13 -17 1 -25z m141 21 c0 -5 -5 -10 -11
-10 -5 0 -7 5 -4 10 3 6 8 10 11 10 2 0 4 -4 4 -10z m-70 -14 c-8 -7 -28 -17
-44 -20 -24 -6 -26 -5 -15 7 16 16 37 25 59 26 13 1 13 -1 0 -13z m40 10 c0
-3 -4 -8 -10 -11 -5 -3 -10 -1 -10 4 0 6 5 11 10 11 6 0 10 -2 10 -4z m-257
-41 c-3 -9 -8 -14 -10 -11 -3 3 -2 9 2 15 9 16 15 13 8 -4z m692 4 c-4 -6 1
-17 11 -25 18 -14 18 -14 -3 -4 -23 11 -32 40 -12 40 5 0 7 -5 4 -11z m-505
-19 c1 11 3 11 11 -3 6 -10 8 -21 5 -24 -10 -11 -36 7 -36 24 0 15 2 16 10 3
9 -13 10 -13 10 0z m-76 -23 c7 -28 2 -31 -23 -15 -30 18 -32 33 -6 34 16 1
25 -5 29 -19z m166 8 c0 -8 -4 -15 -10 -15 -5 0 -10 7 -10 15 0 8 5 15 10 15
6 0 10 -7 10 -15z m-30 -10 c0 -8 -4 -15 -10 -15 -5 0 -10 7 -10 15 0 8 5 15
10 15 6 0 10 -7 10 -15z m730 -64 c3 -3 12 -6 20 -6 8 0 15 -5 15 -12 0 -7 6
-18 13 -24 13 -14 17 -33 4 -25 -13 8 -35 -11 -28 -23 4 -6 17 -11 28 -11 20
0 20 -1 4 -18 -22 -25 -79 -28 -72 -4 8 26 -5 38 -47 46 -21 4 -40 13 -43 21
-4 9 -20 12 -55 10 -28 -1 -47 1 -42 6 15 15 117 16 139 2 19 -12 22 -11 27 6
6 24 0 31 -27 32 -21 0 -21 1 -1 9 20 8 55 3 65 -9z m-1200 -1 c0 -5 -5 -10
-11 -10 -5 0 -7 5 -4 10 3 6 8 10 11 10 2 0 4 -4 4 -10z m587 -32 c-3 -8 -6
-5 -6 6 -1 11 2 17 5 13 3 -3 4 -12 1 -19z m690 -10 c-3 -7 -5 -2 -5 12 0 14
2 19 5 13 2 -7 2 -19 0 -25z m-777 3 c0 -5 3 -18 7 -28 6 -16 5 -16 -10 -4
-19 15 -23 41 -7 41 6 0 10 -4 10 -9z m50 -36 c0 -8 -4 -15 -10 -15 -5 0 -7 7
-4 15 4 8 8 15 10 15 2 0 4 -7 4 -15z m-425 -23 c-3 -3 -11 0 -18 7 -9 10 -8
11 6 5 10 -3 15 -9 12 -12z m480 -42 c5 1 11 -4 13 -10 3 -9 -1 -9 -16 -1 -10
6 -22 8 -25 5 -3 -3 -3 4 0 17 6 20 7 21 13 5 3 -10 10 -17 15 -16z m64 6 c10
-12 9 -14 -5 -12 -10 2 -20 8 -22 14 -5 17 13 15 27 -2z m498 -2 c-3 -3 -12
-4 -19 -1 -8 3 -5 6 6 6 11 1 17 -2 13 -5z m-547 -56 c0 -4 -7 -8 -15 -8 -8 0
-15 4 -15 8 0 5 7 9 15 9 8 0 15 -4 15 -9z m185 -28 c-3 -5 -12 -10 -18 -10
-7 0 -6 4 3 10 19 12 23 12 15 0z m-143 -32 c-7 -7 -12 -8 -12 -2 0 14 12 26
19 19 2 -3 -1 -11 -7 -17z"/>
<path d="M2687 3791 c3 -12 9 -21 14 -21 14 0 11 16 -5 29 -12 10 -13 8 -9 -8z"/>
<path d="M2345 3310 c3 -5 10 -10 16 -10 5 0 9 5 9 10 0 6 -7 10 -16 10 -8 0
-12 -4 -9 -10z"/>
<path d="M3297 1223 c-4 -3 -7 -11 -7 -17 0 -6 5 -5 12 2 6 6 9 14 7 17 -3 3
-9 2 -12 -2z"/>
<path d="M2185 4591 c-3 -6 3 -15 14 -20 25 -14 41 -14 21 -1 -12 8 -9 10 13
10 16 0 26 4 22 10 -8 13 -62 13 -70 1z"/>
<path d="M2320 4587 c27 -15 36 -14 25 2 -3 6 -16 11 -28 11 -21 0 -21 -1 3
-13z"/>
<path d="M2406 4585 c-4 -12 -1 -16 11 -13 18 3 21 20 5 26 -5 1 -12 -4 -16
-13z"/>
<path d="M2237 4519 c8 -8 16 -8 30 0 16 9 14 10 -11 11 -22 0 -27 -3 -19 -11z"/>
<path d="M2348 4494 c-4 -4 -3 -13 3 -21 9 -10 8 -18 -6 -33 -11 -12 -13 -20
-6 -20 6 0 17 11 23 25 6 14 15 25 20 25 4 0 8 5 8 11 0 8 -4 8 -14 0 -11 -10
-15 -9 -18 4 -1 9 -6 13 -10 9z"/>
<path d="M2405 4490 c3 -5 8 -10 11 -10 2 0 4 5 4 10 0 6 -5 10 -11 10 -5 0
-7 -4 -4 -10z"/>
<path d="M2315 4460 c-3 -5 -1 -10 4 -10 6 0 11 5 11 10 0 6 -2 10 -4 10 -3 0
-8 -4 -11 -10z"/>
<path d="M2305 4420 c-8 -13 -16 -54 -9 -47 3 3 6 9 6 14 0 4 4 16 9 26 10 18
5 24 -6 7z"/>
<path d="M2175 4410 c3 -5 8 -10 11 -10 2 0 4 5 4 10 0 6 -5 10 -11 10 -5 0
-7 -4 -4 -10z"/>
<path d="M2247 4396 c-3 -8 1 -22 9 -33 14 -17 15 -17 6 2 -5 11 -7 26 -5 33
6 17 -4 15 -10 -2z"/>
<path d="M2327 4390 c-3 -11 -2 -20 3 -20 4 0 10 9 13 20 3 11 2 20 -3 20 -4
0 -10 -9 -13 -20z"/>
<path d="M2010 4378 c0 -11 28 -10 35 1 3 6 -4 9 -15 8 -11 -1 -20 -5 -20 -9z"/>
<path d="M2371 4364 c0 -11 3 -14 6 -6 3 7 2 16 -1 19 -3 4 -6 -2 -5 -13z"/>
<path d="M2299 4323 c-13 -16 -12 -17 4 -4 9 7 17 15 17 17 0 8 -8 3 -21 -13z"/>
<path d="M3070 4306 c0 -9 5 -16 10 -16 6 0 10 4 10 9 0 6 -4 13 -10 16 -5 3
-10 -1 -10 -9z"/>
<path d="M2166 4295 c4 -8 7 -15 9 -15 2 0 5 7 9 15 3 9 0 15 -9 15 -9 0 -12
-6 -9 -15z"/>
<path d="M2110 4286 c0 -9 5 -16 10 -16 6 0 10 4 10 9 0 6 -4 13 -10 16 -5 3
-10 -1 -10 -9z"/>
<path d="M2220 4293 c0 -13 14 -28 28 -30 19 -4 14 15 -8 27 -11 6 -20 7 -20
3z"/>
<path d="M3097 4293 c-9 -14 5 -64 17 -60 13 5 86 -65 86 -82 0 -7 8 -10 18
-7 12 4 23 -3 35 -24 19 -31 37 -40 37 -17 0 6 5 4 11 -6 5 -9 7 -22 4 -27 -3
-6 1 -10 9 -10 11 0 13 6 9 18 -5 13 2 10 29 -10 20 -16 40 -28 43 -28 4 0 4
19 0 42 -7 39 -49 96 -67 91 -4 -2 -8 2 -8 7 0 6 -9 10 -19 10 -31 0 -51 11
-52 29 0 13 -2 13 -8 -2 -6 -17 -8 -17 -20 -3 -7 9 -10 16 -6 16 5 0 -5 11
-21 25 -18 16 -32 21 -38 15 -6 -6 -18 -3 -32 11 -12 11 -24 17 -27 12z m83
-43 c0 -5 -4 -10 -10 -10 -5 0 -10 5 -10 10 0 6 5 10 10 10 6 0 10 -4 10 -10z"/>
<path d="M2307 4266 c10 -13 19 -20 21 -15 2 5 -3 16 -11 24 -24 23 -30 18
-10 -9z"/>
<path d="M2163 4253 c-3 -10 -12 -33 -19 -50 -7 -19 -9 -33 -3 -33 5 0 9 5 9
10 0 6 4 10 9 10 9 0 26 -67 22 -85 -2 -7 1 -6 8 0 7 7 6 30 -5 74 -16 70 -11
87 15 54 10 -12 23 -18 30 -14 8 5 3 11 -14 19 -14 6 -25 16 -25 22 0 17 -20
11 -27 -7z"/>
<path d="M2090 4241 c0 -12 31 -43 37 -37 6 6 -20 46 -29 46 -5 0 -8 -4 -8 -9z"/>
<path d="M2247 4221 c-8 -38 -2 -50 14 -34 8 8 8 20 2 39 l-10 29 -6 -34z"/>
<path d="M2530 4240 c0 -5 5 -10 11 -10 5 0 7 5 4 10 -3 6 -8 10 -11 10 -2 0
-4 -4 -4 -10z"/>
<path d="M2366 4225 c-3 -9 -6 -24 -5 -33 0 -9 5 -4 10 12 9 32 6 48 -5 21z"/>
<path d="M2442 4190 c0 -14 2 -19 5 -12 2 6 2 18 0 25 -3 6 -5 1 -5 -13z"/>
<path d="M2484 4198 c-4 -7 -3 -8 4 -4 16 9 15 -7 0 -22 -9 -9 -7 -12 10 -12
15 0 22 6 22 19 0 22 -26 35 -36 19z"/>
<path d="M2790 4200 c20 -13 33 -13 25 0 -3 6 -14 10 -23 10 -15 0 -15 -2 -2
-10z"/>
<path d="M2884 4181 c3 -5 -1 -12 -10 -15 -8 -3 -12 -10 -9 -16 3 -6 -1 -7 -9
-4 -9 3 -16 1 -16 -5 0 -6 7 -11 15 -11 8 0 15 -8 15 -17 0 -13 -3 -14 -12 -5
-18 18 -31 15 -23 -5 7 -18 13 -41 14 -56 1 -5 6 -5 11 -2 6 4 7 11 4 17 -4 6
-2 8 4 4 6 -3 9 -15 7 -25 -2 -10 3 -18 11 -18 8 0 12 3 9 5 -3 3 2 16 10 29
9 13 11 23 5 23 -5 0 -10 -5 -10 -11 0 -5 -5 -7 -11 -3 -8 4 -7 9 2 14 20 13
22 50 1 51 -10 0 -12 3 -4 6 15 6 16 53 1 53 -5 0 -8 -4 -5 -9z"/>
<path d="M2095 4171 c-3 -5 -1 -12 5 -16 5 -3 10 1 10 9 0 18 -6 21 -15 7z"/>
<path d="M2343 4138 c2 -34 21 -49 30 -23 4 8 2 15 -3 15 -6 0 -10 6 -10 14 0
8 -4 17 -9 20 -5 4 -9 -8 -8 -26z"/>
<path d="M2781 4154 c0 -11 3 -14 6 -6 3 7 2 16 -1 19 -3 4 -6 -2 -5 -13z"/>
<path d="M2390 4156 c0 -2 7 -6 15 -10 8 -3 15 -1 15 4 0 6 -7 10 -15 10 -8 0
-15 -2 -15 -4z"/>
<path d="M2080 4133 c0 -6 -6 -13 -14 -15 -11 -2 -11 -6 -2 -14 16 -15 37 8
25 27 -5 9 -9 10 -9 2z"/>
<path d="M2437 4133 c-4 -3 -7 -11 -7 -17 0 -6 5 -5 12 2 6 6 9 14 7 17 -3 3
-9 2 -12 -2z"/>
<path d="M2460 4130 c0 -5 9 -10 20 -10 11 0 20 -5 20 -12 0 -6 2 -9 5 -6 3 3
3 13 -1 22 -7 17 -44 23 -44 6z"/>
<path d="M2410 4111 c0 -6 4 -13 10 -16 6 -3 7 1 4 9 -7 18 -14 21 -14 7z"/>
<path d="M2480 4054 c0 -8 5 -12 10 -9 6 3 10 10 10 16 0 5 -4 9 -10 9 -5 0
-10 -7 -10 -16z"/>
<path d="M2990 4055 c0 -8 4 -15 10 -15 5 0 7 7 4 15 -4 8 -8 15 -10 15 -2 0
-4 -7 -4 -15z"/>
<path d="M2645 4050 c-3 -5 1 -10 9 -10 9 0 16 5 16 10 0 6 -4 10 -9 10 -6 0
-13 -4 -16 -10z"/>
<path d="M2006 3972 c-2 -4 -1 -14 5 -22 7 -12 9 -10 9 8 0 23 -5 28 -14 14z"/>
<path d="M3625 3960 c10 -11 20 -20 23 -20 3 0 -3 9 -13 20 -10 11 -20 20 -23
20 -3 0 3 -9 13 -20z"/>
<path d="M2935 3930 c3 -5 8 -10 11 -10 2 0 4 5 4 10 0 6 -5 10 -11 10 -5 0
-7 -4 -4 -10z"/>
<path d="M3022 3918 c2 -13 8 -23 13 -23 6 0 11 10 13 23 2 15 -2 22 -13 22
-11 0 -15 -7 -13 -22z"/>
<path d="M3087 3863 c-4 -3 -7 -11 -7 -17 0 -6 5 -5 12 2 6 6 9 14 7 17 -3 3
-9 2 -12 -2z"/>
<path d="M3105 3819 c-4 -6 -5 -12 -2 -15 2 -3 7 2 10 11 7 17 1 20 -8 4z"/>
<path d="M3065 3790 c3 -5 8 -10 11 -10 2 0 4 5 4 10 0 6 -5 10 -11 10 -5 0
-7 -4 -4 -10z"/>
<path d="M2085 3780 c-16 -7 -17 -9 -3 -9 9 -1 20 4 23 9 7 11 7 11 -20 0z"/>
<path d="M2400 3756 c0 -2 7 -6 15 -10 8 -3 15 -1 15 4 0 6 -7 10 -15 10 -8 0
-15 -2 -15 -4z"/>
<path d="M2305 3720 c3 -5 8 -10 11 -10 2 0 4 5 4 10 0 6 -5 10 -11 10 -5 0
-7 -4 -4 -10z"/>
<path d="M3491 3617 c-13 -21 -12 -21 5 -5 10 10 16 20 13 22 -3 3 -11 -5 -18
-17z"/>
<path d="M4540 3350 c0 -11 4 -20 9 -20 5 0 7 9 4 20 -3 11 -7 20 -9 20 -2 0
-4 -9 -4 -20z"/>
<path d="M3208 3323 c-36 -9 -16 -23 33 -23 28 0 59 -5 70 -11 11 -6 25 -8 32
-6 7 2 -10 11 -38 20 -27 8 -57 17 -65 20 -8 2 -23 3 -32 0z"/>
<path d="M3050 3286 c-66 -12 -72 -23 -13 -24 40 -1 54 -8 47 -26 -3 -7 2 -19
11 -26 18 -15 20 0 3 19 -11 11 -10 13 5 8 10 -4 15 -3 12 2 -3 5 5 17 17 26
20 13 21 17 8 25 -8 5 -17 9 -20 8 -3 0 -34 -6 -70 -12z"/>
<path d="M4010 3255 c0 -24 -43 -64 -99 -93 -49 -25 -55 -32 -66 -76 -10 -37
-26 -62 -75 -111 -40 -40 -61 -69 -57 -78 3 -8 27 -22 54 -32 26 -9 71 -28
100 -41 28 -13 57 -24 63 -24 7 0 44 -15 83 -34 40 -18 97 -37 127 -41 30 -4
65 -14 77 -22 15 -10 49 -15 96 -16 66 0 75 2 100 27 l28 28 31 -31 c23 -23
41 -31 67 -31 20 0 45 -3 56 -6 14 -3 23 2 30 18 6 12 36 42 68 66 59 45 73
68 35 59 -30 -8 -144 43 -165 73 -14 19 -22 21 -62 16 -68 -9 -106 17 -126 86
-15 52 -16 53 -50 52 -19 -1 -35 3 -35 9 0 6 -3 8 -6 4 -3 -3 -14 2 -25 11
-19 16 -19 18 -2 30 26 19 1 31 -61 30 -45 -1 -52 2 -78 33 -16 19 -36 46 -45
61 -20 32 -63 55 -63 33z"/>
<path d="M3170 3160 c0 -5 5 -10 11 -10 5 0 7 5 4 10 -3 6 -8 10 -11 10 -2 0
-4 -4 -4 -10z"/>
<path d="M3403 3148 c-1 -13 1 -18 5 -13 4 6 16 12 27 13 24 5 30 10 22 18 -4
4 -13 1 -22 -6 -10 -8 -15 -9 -15 -1 0 21 -16 11 -17 -11z"/>
<path d="M3328 3135 c-3 -14 -1 -25 3 -25 5 0 9 11 9 25 0 14 -2 25 -4 25 -2
0 -6 -11 -8 -25z"/>
<path d="M3476 3145 c-11 -8 -14 -15 -7 -15 7 0 10 -4 7 -8 -2 -4 4 -8 15 -8
10 0 19 6 19 13 0 7 0 16 1 20 1 14 -16 12 -35 -2z"/>
<path d="M3186 3132 c-2 -4 -1 -14 4 -22 7 -11 9 -9 7 8 -1 24 -3 26 -11 14z"/>
<path d="M3636 3105 c4 -8 8 -15 10 -15 2 0 4 7 4 15 0 8 -4 15 -10 15 -5 0
-7 -7 -4 -15z"/>
<path d="M3381 3101 c-8 -5 -11 -16 -8 -24 3 -8 0 -20 -6 -26 -18 -18 22 -2
56 23 25 18 26 21 10 28 -25 9 -36 9 -52 -1z"/>
<path d="M3501 3074 c0 -11 3 -14 6 -6 3 7 2 16 -1 19 -3 4 -6 -2 -5 -13z"/>
<path d="M3100 3070 c0 -5 7 -10 16 -10 8 0 12 5 9 10 -3 6 -10 10 -16 10 -5
0 -9 -4 -9 -10z"/>
<path d="M3612 3060 c0 -14 2 -19 5 -12 2 6 2 18 0 25 -3 6 -5 1 -5 -13z"/>
<path d="M3641 3064 c0 -11 3 -14 6 -6 3 7 2 16 -1 19 -3 4 -6 -2 -5 -13z"/>
<path d="M3543 3062 c-7 -4 -14 -19 -16 -32 -2 -13 -8 -25 -14 -27 -25 -9 0
-50 44 -71 l46 -22 28 30 c22 23 29 39 28 67 -1 38 -1 38 -12 11 -6 -16 -14
-28 -19 -28 -4 0 -8 -8 -9 -17 0 -10 -5 -3 -10 16 -10 31 -11 32 -24 15 -13
-17 -14 -16 -10 14 2 18 0 30 -5 27 -5 -3 -10 1 -12 10 -2 9 -8 11 -15 7z"/>
<path d="M3455 3049 c-25 -5 -18 -14 8 -10 4 0 7 -3 7 -8 0 -5 9 -11 20 -14
23 -6 25 1 7 23 -8 11 -21 14 -42 9z"/>
<path d="M3354 2994 c-23 -29 -25 -37 -13 -45 27 -17 39 -10 39 26 0 22 6 38
18 44 16 10 16 10 0 11 -9 0 -29 -16 -44 -36z"/>
<path d="M4790 2510 c0 -14 37 -87 47 -93 14 -9 55 32 50 47 -11 28 -97 69
-97 46z"/>
<path d="M4897 2418 c-10 -36 -8 -48 8 -48 16 0 20 36 6 58 -6 10 -10 8 -14
-10z"/>
<path d="M3568 2379 c-6 -19 2 -49 13 -49 11 0 11 31 0 49 -7 11 -9 11 -13 0z"/>
<path d="M4121 2371 c-25 -25 -27 -37 -7 -44 11 -4 13 -1 9 11 -6 14 -4 15 8
5 16 -13 59 -7 59 9 0 5 -6 8 -12 5 -7 -2 -18 5 -24 16 -11 20 -11 20 -33 -2z"/>
<path d="M4190 2244 c0 -8 5 -12 10 -9 6 4 8 11 5 16 -9 14 -15 11 -15 -7z"/>
<path d="M3800 2150 c0 -5 4 -10 9 -10 6 0 13 5 16 10 3 6 -1 10 -9 10 -9 0
-16 -4 -16 -10z"/>
<path d="M4104 2118 c3 -10 0 -18 -6 -18 -9 0 -9 -3 0 -12 20 -20 35 5 16 28
-13 16 -15 16 -10 2z"/>
<path d="M4280 2095 c7 -9 15 -13 17 -11 7 7 -7 26 -19 26 -6 0 -6 -6 2 -15z"/>
<path d="M4230 2093 c0 -5 5 -15 10 -23 8 -12 10 -11 10 8 0 12 -4 22 -10 22
-5 0 -10 -3 -10 -7z"/>
<path d="M3885 2080 c3 -5 11 -10 16 -10 6 0 7 5 4 10 -3 6 -11 10 -16 10 -6
0 -7 -4 -4 -10z"/>
<path d="M4297 2026 c-21 -22 -22 -46 -1 -46 8 0 12 5 8 11 -3 6 -1 15 6 19 7
4 11 13 8 20 -3 9 -9 8 -21 -4z"/>
<path d="M3895 2020 c-3 -5 -1 -10 4 -10 6 0 11 5 11 10 0 6 -2 10 -4 10 -3 0
-8 -4 -11 -10z"/>
<path d="M4050 2019 c0 -5 5 -7 10 -4 6 3 10 8 10 11 0 2 -4 4 -10 4 -5 0 -10
-5 -10 -11z"/>
<path d="M3942 2007 c9 -9 21 -17 27 -17 6 0 8 -8 4 -17 -8 -22 1 -15 15 12 8
17 7 21 -6 21 -9 1 -26 5 -37 9 -19 8 -19 8 -3 -8z"/>
<path d="M3700 1975 c0 -15 4 -24 10 -20 6 3 10 12 10 20 0 8 -4 17 -10 20 -6
4 -10 -5 -10 -20z"/>
<path d="M4010 1960 c6 -11 16 -20 22 -20 7 0 7 4 -1 13 -6 8 -8 17 -4 20 3 4
-1 7 -11 7 -14 0 -15 -4 -6 -20z"/>
<path d="M3980 1936 c0 -2 7 -7 16 -10 8 -3 12 -2 9 4 -6 10 -25 14 -25 6z"/>
<path d="M4865 1921 c-3 -5 -1 -12 5 -16 5 -3 10 1 10 9 0 18 -6 21 -15 7z"/>
<path d="M4057 1338 c-4 -12 -4 -24 -2 -26 7 -8 35 20 35 34 0 23 -27 16 -33
-8z"/>
<path d="M4090 1195 c0 -8 2 -15 4 -15 2 0 6 7 10 15 3 8 1 15 -4 15 -6 0 -10
-7 -10 -15z"/>
<path d="M4095 1112 c-5 -4 -11 -18 -12 -32 -3 -23 -2 -24 11 -7 8 10 23 25
33 32 17 14 17 14 -2 15 -11 0 -24 -4 -30 -8z"/>
<path d="M3858 958 c5 -5 16 -8 23 -6 8 3 3 7 -10 11 -17 4 -21 3 -13 -5z"/>
<path d="M3785 950 c7 -12 32 -13 39 -2 2 4 -7 9 -20 10 -15 1 -22 -2 -19 -8z"/>
<path d="M3055 930 c-3 -5 -1 -10 4 -10 6 0 11 5 11 10 0 6 -2 10 -4 10 -3 0
-8 -4 -11 -10z"/>
</g>
</svg>
