<?xml version="1.0" standalone="no"?>
<!DOCTYPE svg PUBLIC "-//W3C//DTD SVG 20010904//EN"
 "http://www.w3.org/TR/2001/REC-SVG-20010904/DTD/svg10.dtd">
<svg version="1.0" xmlns="http://www.w3.org/2000/svg"
 width="499.000000pt" height="499.000000pt" viewBox="0 0 499.000000 499.000000"
 preserveAspectRatio="xMidYMid meet">

<g transform="translate(0.000000,499.000000) scale(0.100000,-0.100000)"
fill="#000000" stroke="none">
<path d="M2290 4802 c0 -4 19 -6 43 -4 70 5 76 10 15 11 -32 0 -58 -2 -58 -7z"/>
<path d="M2091 4781 c-8 -14 -7 -20 4 -25 8 -3 15 -13 15 -23 0 -15 1 -15 13
2 10 12 22 16 40 13 15 -3 27 -1 27 4 0 9 23 7 71 -8 10 -3 18 3 21 14 5 16
-3 21 -44 31 -78 17 -135 15 -147 -8z"/>
<path d="M1886 4773 c-132 -18 -154 -25 -166 -58 -6 -17 -17 -25 -27 -24 -24
4 -131 -23 -115 -28 6 -3 12 -11 12 -19 0 -8 9 -14 20 -14 12 0 20 7 20 16 0
10 7 14 22 12 30 -4 34 -25 6 -34 l-23 -7 22 -8 c22 -8 22 -9 5 -41 -9 -18
-18 -35 -19 -37 -1 -1 -8 1 -15 5 -24 15 -36 12 -62 -17 -15 -16 -34 -29 -44
-29 -14 0 -15 -2 -3 -9 12 -8 9 -12 -15 -23 -16 -7 -31 -16 -34 -20 -3 -4 -21
-9 -40 -12 -19 -2 -58 -16 -87 -31 -50 -26 -53 -27 -70 -10 -16 17 -18 16 -26
-9 -5 -14 -13 -26 -19 -26 -5 0 -6 10 -2 22 6 20 5 21 -9 9 -9 -7 -14 -17 -11
-22 3 -5 -3 -10 -13 -10 -10 -1 -31 -2 -48 -3 -16 -1 -46 -6 -67 -10 -31 -7
-38 -5 -48 13 -14 26 -30 18 -30 -15 0 -17 5 -24 20 -24 26 0 25 -20 -1 -64
-27 -46 -33 -45 -26 2 l6 37 -20 -27 c-11 -16 -27 -28 -35 -28 -9 0 -12 -5 -9
-11 4 -6 13 -8 20 -5 8 3 15 0 17 -6 5 -15 117 -38 124 -26 3 5 13 3 22 -4 15
-11 15 -11 5 3 -10 12 -10 19 1 35 11 15 27 19 80 19 46 0 66 4 66 13 0 6 4
12 9 12 5 0 13 9 16 20 7 22 31 27 38 8 4 -10 7 -10 15 0 5 7 18 15 28 16 13
2 18 10 17 25 -2 14 1 20 8 15 6 -3 15 0 20 7 7 11 10 9 15 -8 4 -13 11 -20
17 -16 6 4 8 0 5 -9 -5 -11 1 -15 23 -16 16 0 29 4 29 9 0 5 -7 9 -15 9 -18 0
-19 12 -3 28 17 17 55 15 62 -4 3 -8 2 -12 -3 -9 -16 9 -20 -9 -6 -22 11 -10
22 -4 58 32 24 24 52 60 61 79 9 20 23 36 31 36 13 0 20 19 16 43 0 4 10 7 24
7 14 0 29 8 35 20 10 18 8 20 -17 20 -15 0 -36 7 -47 15 -21 16 -25 63 -5 75
20 13 72 0 92 -22 14 -17 17 -18 17 -4 0 12 7 15 26 12 14 -3 33 -1 42 3 10 5
28 13 42 19 l25 10 -25 10 c-15 7 -19 11 -9 11 9 1 30 8 48 17 18 9 41 14 52
11 13 -3 28 2 40 14 27 27 24 49 -5 49 -14 0 -28 5 -31 10 -3 6 -9 9 -13 9 -4
-1 -56 -8 -116 -16z m154 -28 c0 -17 -2 -18 -25 -9 -13 5 -14 8 -3 15 19 13
28 11 28 -6z m-480 -310 c0 -8 -4 -15 -10 -15 -5 0 -10 -8 -10 -17 -1 -17 -1
-17 -11 0 -6 10 -8 25 -5 33 7 19 36 18 36 -1z m80 -19 c0 -11 -19 -15 -25 -6
-3 5 1 10 9 10 9 0 16 -2 16 -4z m-152 -33 c-3 -16 -48 -30 -48 -15 0 6 26 22
48 31 2 0 2 -6 0 -16z m130 -5 c-6 -18 -28 -21 -28 -4 0 9 7 16 16 16 9 0 14
-5 12 -12z"/>
<path d="M2410 4744 c0 -14 3 -14 15 -4 8 7 15 14 15 16 0 2 -7 4 -15 4 -8 0
-15 -7 -15 -16z"/>
<path d="M2160 4690 c0 -13 11 -13 30 0 12 8 11 10 -7 10 -13 0 -23 -4 -23
-10z"/>
<path d="M1490 4640 c0 -12 17 -12 45 0 17 7 15 9 -12 9 -18 1 -33 -3 -33 -9z"/>
<path d="M1984 4633 c5 -22 -19 -59 -28 -45 -3 6 -3 17 0 26 7 19 -11 22 -23
4 -12 -20 -12 -35 1 -36 6 -1 32 -4 57 -7 l46 -5 -6 38 c-5 28 -11 38 -28 40
-17 3 -21 -1 -19 -15z"/>
<path d="M2790 4634 c0 -8 5 -12 10 -9 6 4 8 11 5 16 -9 14 -15 11 -15 -7z"/>
<path d="M2907 4594 c-9 -10 19 -34 40 -33 17 0 17 1 0 8 -10 4 -18 11 -17 16
2 12 -14 18 -23 9z"/>
<path d="M1490 4580 c-8 -5 -12 -11 -9 -14 2 -3 11 -1 19 4 8 5 12 11 9 14 -2
3 -11 1 -19 -4z"/>
<path d="M2772 4564 c-1 -13 3 -24 8 -24 6 0 10 5 10 12 0 6 7 3 15 -8 14 -19
14 -19 15 3 0 38 -45 54 -48 17z"/>
<path d="M1540 4571 c0 -6 4 -13 10 -16 6 -3 7 1 4 9 -7 18 -14 21 -14 7z"/>
<path d="M2060 4556 c0 -3 11 -17 25 -32 20 -22 23 -30 13 -43 -6 -9 -1 -5 13
8 18 17 20 25 10 28 -7 3 -21 14 -29 24 -15 18 -32 25 -32 15z"/>
<path d="M2810 4496 c7 -7 13 -7 20 0 6 6 3 10 -10 10 -13 0 -16 -4 -10 -10z"/>
<path d="M3210 4485 c0 -11 31 -59 46 -70 22 -16 70 -20 79 -6 3 5 -24 25 -60
44 -36 19 -65 33 -65 32z"/>
<path d="M1198 4472 c-15 -6 -13 -10 11 -24 28 -15 29 -15 34 2 4 15 -14 34
-26 29 -1 0 -10 -3 -19 -7z"/>
<path d="M1874 4369 c-3 -6 2 -18 12 -27 17 -16 17 -16 5 1 -12 15 -11 17 8
17 11 0 21 5 21 10 0 14 -37 13 -46 -1z"/>
<path d="M865 4351 c-50 -20 -98 -53 -149 -103 -40 -39 -47 -64 -8 -28 23 22
90 28 109 9 16 -16 35 -1 28 22 -5 15 -3 17 11 12 10 -4 15 -2 11 3 -3 6 3 15
13 21 17 11 17 10 2 -28 -16 -42 -13 -55 14 -45 13 5 16 16 12 61 -4 48 -2 55
13 55 24 0 35 20 18 31 -18 11 -26 10 -74 -10z"/>
<path d="M2006 4357 c3 -10 9 -15 12 -12 3 3 0 11 -7 18 -10 9 -11 8 -5 -6z"/>
<path d="M2035 4361 c-3 -5 -1 -12 5 -16 5 -3 10 1 10 9 0 18 -6 21 -15 7z"/>
<path d="M1775 4350 c-3 -5 -1 -10 4 -10 6 0 11 5 11 10 0 6 -2 10 -4 10 -3 0
-8 -4 -11 -10z"/>
<path d="M2507 4337 c-6 -16 17 -32 40 -28 8 1 10 -5 6 -15 -4 -12 -3 -15 5
-10 17 10 15 26 -5 33 -10 4 -23 13 -29 21 -9 13 -12 13 -17 -1z"/>
<path d="M3071 4343 c0 -5 4 -17 9 -28 8 -18 9 -17 9 8 1 15 -3 27 -9 27 -5 0
-10 -3 -9 -7z"/>
<path d="M2721 4314 c0 -11 3 -14 6 -6 3 7 2 16 -1 19 -3 4 -6 -2 -5 -13z"/>
<path d="M2432 4295 c-17 -20 5 -20 24 0 12 11 12 15 2 15 -7 -1 -19 -7 -26
-15z"/>
<path d="M586 4281 c-10 -10 -14 -21 -9 -24 4 -3 16 6 26 19 21 28 8 32 -17 5z"/>
<path d="M1573 4283 c-4 -10 -10 -20 -14 -23 -4 -3 -11 -18 -15 -34 l-7 -29
22 22 c12 12 24 35 26 52 4 32 -2 38 -12 12z"/>
<path d="M1431 4275 c-1 -5 -19 -30 -41 -55 -35 -39 -47 -32 -16 10 9 13 9 13
-6 2 -10 -8 -20 -22 -23 -32 -3 -10 -15 -20 -25 -23 -12 -3 -18 -1 -14 5 4 6
-2 6 -14 -1 -12 -6 -24 -16 -27 -21 -4 -6 -15 -8 -25 -5 -13 4 -20 0 -25 -15
-7 -21 -81 -70 -106 -70 -8 0 -20 4 -28 9 -12 8 -12 12 2 26 19 18 22 41 8 50
-13 8 -31 -27 -31 -60 0 -31 -22 -42 -55 -27 -18 8 -26 22 -31 51 l-6 39 -37
-25 c-29 -20 -45 -24 -82 -21 -46 5 -46 5 -105 -63 -32 -37 -64 -68 -71 -68
-22 -2 -24 -38 -3 -74 18 -31 19 -37 6 -49 -19 -20 -104 -8 -122 17 -12 17
-16 16 -49 -14 -56 -49 -69 -43 -62 29 4 46 2 60 -8 60 -41 0 -19 49 32 74 46
22 86 7 77 -28 -5 -23 -3 -24 39 -24 30 0 47 5 51 14 3 8 -1 14 -9 14 -8 0
-17 14 -21 35 -5 31 -8 33 -21 19 -9 -8 -18 -12 -22 -9 -3 4 7 18 23 31 28 25
29 25 47 5 10 -10 16 -29 14 -40 -2 -12 -2 -21 0 -21 9 0 75 100 75 115 0 15
-1 15 -16 1 -20 -20 -97 -21 -117 -1 -11 11 -23 12 -47 5 -31 -9 -32 -8 -27
15 5 29 -1 31 -29 10 -19 -15 -19 -15 4 -34 12 -11 28 -21 35 -24 8 -2 7 -9
-6 -21 -9 -10 -17 -21 -17 -26 0 -5 -9 -12 -21 -15 -11 -4 -36 -16 -54 -28
-33 -21 -34 -24 -35 -85 0 -41 -6 -74 -17 -92 -18 -31 -53 -47 -53 -24 0 20
-37 54 -53 48 -8 -3 -19 2 -26 10 -19 22 12 76 44 76 15 0 26 7 30 20 4 13 19
23 37 27 22 4 34 15 45 40 13 32 13 36 -4 49 -26 20 -29 18 -53 -31 -12 -24
-45 -66 -74 -92 -52 -48 -82 -84 -56 -68 15 9 6 -28 -16 -62 -15 -24 -44 -31
-44 -11 0 7 -3 8 -9 2 -35 -38 -85 -331 -78 -454 7 -108 16 -131 77 -190 46
-45 50 -52 50 -97 0 -58 17 -93 50 -109 63 -30 77 -34 100 -32 19 2 26 -2 28
-19 2 -17 -4 -24 -33 -33 -19 -6 -58 -33 -86 -58 -54 -49 -89 -73 -100 -66
-11 6 -59 -99 -68 -148 -10 -58 0 -117 34 -197 27 -65 32 -137 14 -190 -9 -26
-8 -35 6 -51 21 -23 17 -77 -5 -72 -8 2 -19 4 -24 5 -13 3 -19 -29 -12 -58 10
-40 34 -55 85 -55 69 0 76 -12 55 -96 -13 -52 -25 -77 -51 -101 -49 -47 -47
-59 34 -215 16 -31 6 -60 -27 -78 -26 -14 -42 -79 -41 -169 1 -93 22 -178 61
-246 19 -33 33 -78 40 -126 12 -78 62 -207 116 -299 39 -67 188 -214 268 -265
128 -82 230 -120 406 -154 91 -17 219 -38 285 -47 66 -8 170 -26 230 -40 227
-52 403 -74 601 -74 111 0 124 -6 124 -57 l0 -33 55 0 c50 0 59 4 89 33 41 41
66 52 78 35 6 -10 8 -9 8 3 0 11 12 18 38 23 53 8 102 7 102 -2 0 -5 10 -8 21
-8 12 1 24 -6 27 -14 5 -13 3 -13 -11 -1 -10 7 -17 9 -17 3 0 -18 29 -21 39
-4 13 22 14 6 1 -17 -8 -17 -6 -17 33 -10 23 4 87 8 142 9 108 0 327 29 464
61 125 29 498 135 631 179 160 53 388 134 430 153 l35 16 -50 -6 c-27 -3 -60
-12 -72 -20 -12 -8 -27 -12 -32 -9 -5 4 -12 2 -16 -4 -3 -5 -21 -10 -38 -10
-18 -1 -43 -7 -57 -14 -17 -10 -31 -11 -49 -4 -14 5 -35 7 -46 4 -12 -3 -36
-1 -54 4 -26 7 -36 5 -52 -11 -20 -20 -34 -26 -24 -9 6 9 -102 17 -130 10 -5
-2 -28 -3 -50 -3 l-40 -1 -5 45 c-6 51 -33 63 -38 16 -5 -40 -36 -32 -40 10
-4 40 16 83 29 62 7 -12 10 -11 21 3 17 22 202 70 258 67 33 -2 59 4 98 24 48
25 61 47 28 47 -9 0 -13 11 -12 32 1 25 7 34 32 44 34 14 59 46 70 88 5 22 3
26 -15 26 -12 0 -21 5 -21 10 0 11 12 13 48 10 14 -1 22 4 22 14 0 9 -4 16 -9
16 -5 0 -19 13 -31 30 -19 27 -19 29 -3 23 10 -4 24 -13 31 -20 16 -16 32 -16
68 -3 19 8 30 8 38 0 16 -16 36 -12 36 10 0 10 9 24 20 30 13 7 20 21 20 40 0
17 5 30 10 30 6 0 10 6 10 13 0 8 9 22 20 32 11 10 20 24 20 32 0 7 7 13 15
13 18 0 19 12 3 28 -9 9 -9 12 0 12 7 0 12 -4 12 -9 0 -15 51 -6 61 10 7 11 9
11 9 -3 0 -31 22 -31 47 1 13 17 34 31 45 31 14 0 18 5 14 15 -3 10 10 25 40
46 35 24 52 45 70 88 42 96 58 122 81 127 16 5 24 16 29 43 10 63 15 71 42 77
36 8 82 25 82 31 0 3 -9 12 -21 22 -20 16 -21 18 -5 71 9 29 16 79 16 109 -1
50 -4 59 -35 91 -19 19 -35 43 -36 55 l0 20 -9 -20 c-15 -38 -33 -45 -97 -39
-32 4 -68 13 -78 20 -18 13 -18 15 -2 31 13 14 21 15 42 5 47 -22 60 -16 60
25 0 38 5 42 44 32 14 -4 38 57 27 68 -2 3 -25 1 -50 -5 -54 -11 -60 0 -21 42
24 26 85 38 85 15 0 -5 5 -7 10 -4 6 4 9 14 6 23 -2 10 -7 34 -11 55 -6 38
-25 43 -25 6 0 -27 -25 -24 -48 6 -11 13 -22 21 -26 18 -3 -3 -6 -1 -6 5 0 5
6 13 13 15 16 7 -11 27 -37 27 -13 0 -16 -5 -12 -16 8 -22 -21 -54 -49 -54
-13 0 -28 -7 -35 -15 -7 -8 -16 -15 -21 -15 -12 0 -11 67 1 75 6 3 10 13 10
21 0 16 -37 19 -59 5 -10 -7 -29 -2 -59 14 -48 25 -70 22 -92 -13 -8 -14 -10
-10 -6 17 7 52 22 62 83 52 43 -6 58 -5 83 10 31 19 35 30 31 86 -2 29 0 31
37 38 41 7 66 36 67 78 0 15 7 23 23 25 19 3 22 9 21 40 0 20 3 66 7 101 6 54
4 65 -9 73 -17 9 -24 38 -9 38 4 0 7 40 7 90 0 49 5 94 10 99 7 7 24 7 52 -1
36 -9 47 -8 68 6 15 10 25 26 25 39 -1 20 -2 20 -11 5 -13 -24 -46 -23 -59 1
-16 31 -12 59 10 71 15 8 18 15 11 28 -5 9 -19 54 -31 100 -12 45 -26 85 -31
87 -14 9 -22 -65 -10 -91 9 -21 8 -28 -9 -46 -11 -12 -20 -26 -20 -30 0 -5 -4
-6 -10 -3 -6 4 -10 -8 -10 -29 0 -40 -14 -53 -36 -35 -13 11 -17 10 -25 -3
-14 -25 -81 -33 -118 -13 -37 19 -37 22 -10 44 19 15 21 24 15 56 -6 30 -22
53 -66 95 -32 30 -66 70 -75 88 -12 25 -19 31 -29 23 -16 -13 -35 18 -39 67
-2 18 -9 38 -15 44 -7 7 -12 22 -12 35 0 13 -4 23 -8 23 -5 0 -18 19 -28 42
-23 50 -62 100 -74 93 -5 -3 -11 -1 -15 5 -13 22 -33 8 -43 -29 -8 -32 -7 -41
5 -45 8 -3 11 -10 8 -16 -4 -6 -11 -7 -17 -4 -7 5 -9 -2 -4 -22 18 -71 16
-103 -8 -158 -18 -41 -30 -56 -45 -56 -11 0 -23 -4 -26 -10 -3 -5 -15 -10 -25
-10 -10 0 -23 -7 -28 -16 -6 -12 -11 -13 -16 -5 -5 8 -19 2 -44 -19 -20 -16
-44 -30 -54 -30 -9 0 -20 -5 -24 -11 -5 -8 0 -10 17 -6 14 4 38 3 54 -2 27 -7
28 -8 10 -14 -12 -4 -47 0 -79 8 -31 8 -70 13 -87 10 -19 -4 -29 -1 -29 7 0
10 -2 10 -8 1 -4 -7 -32 -15 -62 -17 -30 -3 -65 -7 -77 -10 -13 -3 -23 0 -23
5 0 6 -4 7 -10 4 -5 -3 -10 -1 -10 4 0 7 -41 11 -114 11 -63 0 -117 4 -120 8
-5 9 29 42 43 42 5 0 12 -6 15 -12 3 -7 4 5 3 27 -1 22 -5 42 -9 45 -4 3 -8
41 -9 85 -1 44 -6 83 -11 86 -5 3 -10 30 -10 60 0 79 0 82 17 75 21 -8 19 14
-2 30 -16 11 -11 12 28 8 55 -7 74 10 32 28 -15 7 -34 18 -40 25 -15 13 -18
57 -4 48 5 -3 13 0 17 6 4 8 3 9 -4 5 -7 -4 -12 -3 -12 2 0 6 -9 8 -20 5 -12
-3 -20 0 -20 8 0 7 -13 0 -30 -16 -16 -16 -30 -36 -30 -44 0 -9 -9 -22 -20
-29 -11 -7 -20 -20 -20 -30 1 -16 1 -16 11 1 6 9 14 15 20 12 14 -9 11 -19
-11 -43 -23 -25 -9 -40 15 -15 16 15 17 14 14 -13 -2 -16 0 -34 4 -41 4 -6 3
-14 -3 -18 -6 -4 -4 -12 6 -22 15 -15 15 -18 -2 -31 -18 -14 -18 -14 2 -10 17
4 22 1 22 -18 0 -13 -4 -21 -9 -18 -5 3 -12 -2 -15 -11 -4 -9 -13 -14 -20 -11
-8 3 -14 -1 -14 -9 0 -8 -6 -15 -12 -15 -7 -1 -2 -7 11 -14 15 -8 20 -16 12
-20 -6 -4 -11 -1 -11 6 0 10 -2 10 -9 -1 -6 -9 -11 -10 -15 -2 -4 6 -11 9 -16
6 -4 -3 -13 2 -20 11 -18 21 -75 61 -66 45 6 -10 3 -12 -10 -8 -11 3 -36 8
-57 12 -21 3 -35 10 -32 15 3 6 -7 8 -24 6 -19 -2 -32 2 -35 10 -3 8 -10 14
-17 14 -6 0 -9 -7 -5 -15 7 -20 -4 -19 -21 3 -14 16 -14 16 -8 -3 5 -16 4 -17
-6 -8 -16 16 6 44 28 36 12 -5 15 -2 10 10 -3 9 -2 17 3 17 6 0 10 -6 10 -14
0 -8 5 -18 12 -22 8 -5 9 -2 5 11 -6 14 -3 16 12 12 14 -3 18 -1 14 9 -3 8 -9
11 -14 8 -12 -7 -49 14 -49 29 0 7 3 8 8 2 9 -12 44 -16 36 -4 -3 5 -11 9 -18
9 -7 0 -25 9 -39 20 -16 13 -28 16 -32 10 -3 -5 1 -10 10 -10 9 0 13 -5 10
-10 -4 -6 -2 -16 4 -23 5 -7 7 -17 3 -22 -9 -13 -35 -18 -27 -5 3 5 1 10 -5
10 -6 0 -9 4 -6 9 3 5 -1 14 -9 21 -12 10 -16 9 -21 -3 -6 -16 -34 -12 -34 4
0 4 7 6 15 3 8 -4 15 -1 15 5 0 6 7 11 16 11 19 0 10 16 -18 31 -18 10 -20 9
-15 -5 4 -11 3 -15 -4 -11 -6 4 -8 13 -5 21 3 9 -4 19 -19 26 -14 6 -25 17
-25 25 0 18 -16 17 -24 -2 -4 -10 3 -20 19 -27 25 -11 34 -28 15 -28 -5 0 -10
5 -10 10 0 6 -12 10 -26 10 -17 0 -23 4 -18 13 5 7 0 6 -11 -3 -10 -8 -21 -15
-24 -15 -3 0 -5 -4 -3 -8 1 -5 -7 -5 -19 -2 -14 5 -25 2 -30 -6 -6 -10 -8 -5
-5 14 3 15 1 27 -3 27 -5 0 -8 10 -7 23 1 12 -6 28 -16 35 -19 14 -25 52 -8
52 6 0 10 -11 10 -25 0 -25 14 -33 25 -15 4 6 11 8 16 5 5 -3 6 1 3 10 -4 8
-1 22 6 30 12 14 6 35 -10 35 -4 0 -6 -9 -3 -20 4 -16 2 -19 -13 -13 -35 12
-64 35 -64 49 0 8 -6 14 -12 14 -10 0 -10 2 0 9 8 4 13 11 13 15 -4 25 2 27
20 8 21 -23 44 -20 35 4 -3 8 1 14 9 14 8 0 15 8 14 18 0 10 -3 12 -6 5 -2 -7
-11 -13 -20 -13 -10 0 -13 -7 -8 -22 5 -21 5 -21 -9 2 -9 15 -11 29 -5 34 18
20 8 29 -11 11 -18 -17 -20 -17 -14 -2 5 14 2 16 -12 11 -11 -4 -16 -4 -13 0
15 17 58 16 68 -1 7 -13 10 -14 11 -4 0 8 -8 20 -17 28 -17 14 -17 14 1 9 16
-5 17 -4 7 8 -7 8 -20 12 -28 9 -12 -5 -14 -3 -8 6 4 8 2 17 -6 22 -11 7 -9 9
6 9 14 0 21 7 21 20 0 25 -7 25 -34 0 -12 -12 -22 -16 -22 -10 0 6 7 13 15 16
8 4 15 13 15 21 0 13 -4 13 -26 -2 -14 -9 -28 -14 -32 -11 -3 3 0 6 7 6 7 0
10 4 6 9 -3 5 -1 12 5 16 5 3 10 12 10 18 0 7 -4 6 -10 -3 -9 -13 -10 -13 -11
0 -1 27 -17 -23 -19 -60 -2 -22 -4 -28 -7 -15 -3 11 -8 23 -12 28 -10 10 -45
-23 -49 -48 -2 -10 -11 -24 -20 -31 -14 -10 -13 -12 6 -18 16 -5 22 -15 22
-36 0 -23 3 -28 17 -23 10 4 14 2 9 -5 -4 -7 1 -10 13 -7 11 2 22 -3 25 -12 5
-13 9 -13 24 -2 14 11 15 11 5 0 -6 -7 -9 -21 -6 -30 4 -13 3 -13 -5 -2 -6 8
-15 10 -23 6 -9 -6 -11 -3 -6 8 7 18 -8 24 -18 8 -3 -5 3 -16 12 -23 17 -13
25 -29 26 -55 0 -7 4 -13 9 -13 4 0 8 -7 8 -16 0 -8 -4 -13 -9 -10 -5 4 -7 -3
-4 -13 4 -14 -1 -20 -17 -23 -26 -3 -46 -43 -28 -54 7 -4 8 -3 4 4 -4 7 -3 12
3 12 6 0 8 7 4 16 -4 12 0 15 18 12 16 -2 24 -9 23 -21 -2 -13 3 -16 20 -12
11 2 15 2 9 -1 -7 -3 -13 -12 -13 -20 0 -8 -4 -14 -9 -14 -14 0 -23 -33 -11
-40 6 -4 8 -14 4 -23 -3 -9 -10 -14 -15 -11 -5 3 -9 1 -9 -5 0 -5 4 -12 10
-16 5 -3 2 -13 -8 -23 -14 -15 -19 -15 -30 -5 -7 7 -21 12 -30 12 -16 -1 -16
-2 0 -6 9 -2 19 -11 22 -19 5 -12 2 -12 -17 -3 -18 9 -20 9 -9 -2 19 -21 14
-34 -7 -15 -18 16 -20 16 -35 -6 -12 -17 -16 -19 -16 -6 0 22 -20 34 -30 18
-5 -8 -9 -8 -13 4 -4 9 -13 13 -21 10 -8 -3 -12 -12 -10 -19 3 -7 1 -16 -5
-20 -7 -4 -11 4 -11 19 0 16 6 26 15 26 8 0 15 5 15 10 0 18 -18 10 -40 -17
-17 -21 -20 -23 -16 -8 6 18 4 18 -13 -2 -11 -13 -27 -23 -36 -23 -9 0 -13 -4
-10 -10 10 -16 -63 -12 -89 5 -20 13 -24 25 -25 71 -1 47 2 55 17 53 30 -3 40
1 46 17 3 8 2 12 -4 9 -6 -3 -10 -3 -11 2 0 4 -2 16 -4 27 -2 10 0 27 4 39 4
11 1 47 -6 80 -8 33 -12 66 -8 75 3 9 0 12 -9 9 -14 -6 -28 26 -35 77 0 6 -7
1 -15 -10 -14 -17 -14 -16 -10 19 3 26 1 36 -7 32 -7 -5 -9 1 -7 16 2 20 -1
24 -19 22 -13 -2 -23 2 -23 7 0 6 5 10 10 10 6 0 10 4 10 10 0 11 -32 1 -41
-13 -4 -5 -9 -5 -13 1 -3 5 4 21 15 36 28 35 15 33 -18 -3 -23 -24 -30 -27
-46 -17 -15 8 -21 8 -24 -2 -4 -9 -10 -7 -23 8 l-19 21 -3 -27 c-2 -15 -9 -29
-16 -32 -8 -2 -10 3 -6 15 3 10 -2 6 -11 -9 -20 -36 -24 -35 -22 7 1 19 6 35
11 35 5 0 3 7 -4 15 -7 8 -9 23 -6 32 5 15 4 15 -9 -1 -8 -11 -22 -21 -30 -22
-12 -2 -12 1 2 22 15 24 15 24 -17 17 -22 -4 -31 -3 -27 4 4 6 1 13 -7 16 -16
7 -30 -19 -15 -28 5 -4 7 -11 3 -16 -8 -14 -24 -1 -24 20 0 10 -8 25 -18 34
-20 19 -37 23 -27 7 3 -5 1 -18 -4 -27 -10 -17 -10 -17 -11 0 0 9 -5 17 -11
17 -12 0 -1 -43 12 -48 15 -6 10 -22 -6 -22 -8 0 -15 7 -15 15 0 9 -6 12 -17
8 -11 -4 -14 -3 -9 5 4 7 3 12 -2 12 -6 0 -13 -11 -16 -25 -4 -14 -11 -25 -17
-25 -6 0 -8 9 -4 20 4 11 2 20 -4 20 -6 0 -11 -6 -11 -14 0 -9 -7 -12 -19 -9
-10 3 -28 0 -39 -6 -15 -8 -22 -8 -25 2 -4 9 -7 9 -18 0 -7 -7 -20 -13 -28
-13 -9 0 -7 6 9 20 26 22 20 41 -6 20 -12 -11 -17 -11 -23 -1 -6 9 -11 8 -21
-3 -20 -25 -33 -7 -15 21 9 13 14 30 11 36 -2 7 -5 8 -5 2z m-6 -95 c-3 -5
-11 -10 -16 -10 -6 0 -7 5 -4 10 3 6 11 10 16 10 6 0 7 -4 4 -10z m385 -19 c0
-6 -4 -13 -10 -16 -5 -3 -10 1 -10 9 0 9 5 16 10 16 6 0 10 -4 10 -9z m-160
-11 c0 -5 -5 -10 -11 -10 -5 0 -7 5 -4 10 3 6 8 10 11 10 2 0 4 -4 4 -10z m42
-12 c-7 -7 -12 -8 -12 -2 0 14 12 26 19 19 2 -3 -1 -11 -7 -17z m174 -5 c-10
-10 -19 5 -10 18 6 11 8 11 12 0 2 -7 1 -15 -2 -18z m744 -12 c0 -5 -7 -11
-14 -14 -10 -4 -13 -1 -9 9 6 15 23 19 23 5z m-870 -17 c0 -8 -4 -12 -10 -9
-5 3 -10 10 -10 16 0 5 5 9 10 9 6 0 10 -7 10 -16z m-880 -49 c18 -22 -3 -58
-46 -79 -39 -18 -94 -22 -94 -6 0 6 19 31 41 55 44 47 77 57 99 30z m113 2
c10 -26 -51 -137 -75 -137 -11 0 -10 53 1 83 10 25 48 67 62 67 4 0 9 -6 12
-13z m-373 -47 c0 -5 -5 -10 -11 -10 -5 0 -7 5 -4 10 3 6 8 10 11 10 2 0 4 -4
4 -10z m1376 -17 c-10 -10 -19 5 -10 18 6 11 8 11 12 0 2 -7 1 -15 -2 -18z
m-617 -84 c9 -17 12 -37 7 -62 -8 -44 -35 -52 -28 -9 2 16 -3 45 -12 66 -14
35 -14 37 1 34 10 -2 24 -15 32 -29z m2071 -37 c0 -16 -31 -23 -47 -11 -7 7
-11 14 -8 17 2 3 11 -1 20 -8 12 -10 15 -10 15 4 0 9 -5 16 -11 16 -5 0 -7 5
-4 10 7 11 35 -12 35 -28z m-700 18 c0 -5 -4 -10 -10 -10 -5 0 -10 5 -10 10 0
6 5 10 10 10 6 0 10 -4 10 -10z m673 -79 c-4 -3 -11 -10 -15 -15 -5 -5 -8 0
-8 12 0 15 4 20 16 15 9 -3 12 -9 7 -12z m52 9 c3 -5 1 -10 -4 -10 -6 0 -11 5
-11 10 0 6 2 10 4 10 3 0 8 -4 11 -10z m-2998 -44 c-3 -8 -1 -18 5 -24 16 -16
0 -36 -18 -21 -13 11 -17 62 -6 83 7 13 24 -23 19 -38z m133 19 c7 -8 12 -36
12 -61 -1 -39 1 -44 13 -34 12 10 19 8 34 -11 12 -15 16 -28 10 -35 -13 -16
-59 -5 -59 15 -1 15 -2 15 -13 0 -23 -31 -77 -5 -77 38 0 32 37 103 54 103 7
0 19 -7 26 -15z m250 -20 c0 -8 -14 -22 -31 -31 -30 -15 -31 -15 -25 1 3 9 6
21 6 26 0 6 4 8 9 4 5 -3 12 -1 16 5 9 15 25 12 25 -5z m1853 -1 c-7 -3 -10
-11 -7 -18 7 -17 -28 -47 -44 -37 -24 15 16 60 53 60 6 -1 5 -3 -2 -5z m-2543
-8 c0 -3 -4 -8 -10 -11 -5 -3 -10 -1 -10 4 0 6 5 11 10 11 6 0 10 -2 10 -4z
m560 -26 c0 -5 -5 -10 -11 -10 -5 0 -7 5 -4 10 3 6 8 10 11 10 2 0 4 -4 4 -10z
m3567 -26 c-9 -9 -28 6 -21 18 4 6 10 6 17 -1 6 -6 8 -13 4 -17z m-881 -32
c-21 -22 -29 -11 -16 24 10 27 12 27 22 10 8 -14 6 -22 -6 -34z m-3228 -68 c6
-56 -50 -73 -64 -19 -8 31 12 57 40 53 15 -2 22 -11 24 -34z m412 11 c7 -9 29
-15 55 -15 50 0 88 -26 103 -69 8 -24 7 -32 -7 -45 -10 -9 -27 -16 -39 -16
-16 0 -21 -5 -19 -19 2 -23 -6 -24 -55 -4 -21 8 -40 24 -44 36 -10 31 -12 119
-2 104 5 -8 8 -7 8 6 0 9 -7 17 -15 17 -8 0 -15 5 -15 10 0 15 16 12 30 -5z
m1254 -16 c-6 -11 -24 -2 -24 11 0 5 7 7 15 4 8 -4 12 -10 9 -15z m-888 -21
c3 -4 0 -21 -7 -38 -14 -30 -16 -31 -74 -29 -57 2 -95 18 -95 42 0 25 37 37
102 34 37 -1 70 -6 74 -9z m64 -21 c0 -19 -1 -19 -20 -2 -21 19 -18 37 5 28 8
-3 15 -14 15 -26z m814 18 c11 -8 17 -17 14 -21 -8 -8 -48 14 -48 26 0 14 12
12 34 -5z m-1396 -27 c7 -7 12 -23 12 -37 0 -19 -3 -22 -12 -13 -7 7 -20 12
-30 12 -13 0 -18 8 -18 25 0 27 26 35 48 13z m2727 -8 c3 -6 -1 -7 -9 -4 -18
7 -21 14 -7 14 6 0 13 -4 16 -10z m-1295 -4 c0 -3 -4 -8 -10 -11 -5 -3 -10 -1
-10 4 0 6 5 11 10 11 6 0 10 -2 10 -4z m-1307 -18 c2 -7 1 -21 -2 -31 -6 -17
-8 -17 -25 2 -11 12 -25 21 -33 21 -8 0 -11 5 -8 10 9 14 62 12 68 -2z m2287
2 c0 -5 -4 -10 -10 -10 -5 0 -10 5 -10 10 0 6 5 10 10 10 6 0 10 -4 10 -10z
m28 -17 c-1 -5 3 -18 10 -31 10 -18 10 -22 0 -20 -22 5 -38 58 -18 58 6 0 9
-3 8 -7z m403 -20 c13 -16 12 -17 -3 -4 -17 13 -22 21 -14 21 2 0 10 -8 17
-17z m-2031 -12 c13 -8 43 -16 65 -19 22 -2 43 -9 46 -14 4 -6 11 -8 17 -4 5
3 15 -1 22 -10 7 -8 19 -13 25 -10 7 2 40 -9 75 -25 34 -17 70 -27 79 -24 12
5 13 3 5 -5 -8 -8 -30 -8 -85 3 -86 17 -109 18 -109 2 0 -6 8 -11 18 -12 28
-2 72 -22 72 -32 0 -6 7 -7 17 -4 11 4 14 3 9 -5 -9 -16 -25 -15 -58 2 -16 8
-28 12 -28 8 0 -4 -13 -8 -29 -9 -27 -2 -30 0 -26 25 2 15 6 34 9 43 6 12 -1
15 -36 13 -24 -1 -47 -2 -52 -3 -9 -1 -4 -32 9 -64 7 -16 4 -17 -21 -11 -37 8
-70 28 -36 21 12 -3 22 -1 22 4 0 5 -3 9 -7 10 -43 4 -73 26 -73 53 0 10 -6
13 -15 10 -9 -4 -15 0 -15 7 -1 8 -10 -3 -21 -23 -11 -21 -24 -38 -29 -38 -13
0 -30 35 -30 62 0 21 -4 24 -35 20 -19 -2 -41 0 -48 5 -6 6 -61 9 -122 7 -106
-2 -109 -2 -88 15 19 16 45 18 235 17 163 -1 219 -4 238 -15z m-805 -11 c3 -5
1 -10 -4 -10 -6 0 -11 5 -11 10 0 6 2 10 4 10 3 0 8 -4 11 -10z m2270 -19 c-3
-6 -11 -11 -16 -11 -5 0 -4 6 3 14 14 16 24 13 13 -3z m165 -6 c5 3 16 -5 25
-17 l17 -23 -7 25 c-7 24 -7 24 9 5 8 -11 16 -25 16 -31 0 -5 19 -20 43 -31
l42 -22 -32 0 c-25 -1 -33 3 -33 17 0 14 -2 15 -10 2 -9 -13 -11 -13 -21 0 -9
12 -10 11 -6 -5 6 -32 -45 -26 -54 6 -3 13 -12 23 -20 21 -7 -2 -26 -4 -41 -4
-15 -1 -28 -6 -28 -11 0 -6 -8 -3 -19 7 -10 9 -25 14 -35 10 -20 -8 -21 6 -1
32 12 16 14 17 15 3 0 -17 28 -34 38 -24 3 3 0 5 -6 5 -7 0 -12 8 -11 18 0 10
3 12 6 5 2 -7 9 -13 14 -13 4 0 6 7 3 15 -4 8 -1 15 5 15 6 0 11 -4 11 -10 0
-5 5 -10 11 -10 6 0 9 6 6 14 -9 23 5 27 30 11 13 -9 28 -13 33 -10z m93 -18
c4 3 7 4 7 0 0 -17 -20 -14 -36 6 -19 22 -19 22 2 4 11 -9 24 -14 27 -10z
m-2019 -2 c11 -8 15 -15 9 -15 -19 0 -43 12 -43 21 0 13 12 11 34 -6z m1731
-9 c13 -6 16 -10 7 -13 -20 -8 -42 5 -42 24 0 11 3 14 8 7 4 -6 16 -14 27 -18z
m1778 -3 c3 -16 -2 -44 -11 -63 l-16 -35 -4 29 c-5 36 6 96 17 96 5 0 11 -12
14 -27z m-3675 -28 c-9 -9 -30 14 -23 25 6 9 10 8 17 -4 6 -10 8 -19 6 -21z
m2243 -5 c6 0 7 6 3 13 -5 7 0 6 11 -3 14 -11 17 -11 11 -1 -7 10 -3 11 15 5
13 -5 37 -8 52 -8 25 1 36 -16 12 -18 -6 -1 -16 -8 -23 -17 -11 -14 -11 -14
-6 2 4 11 1 17 -10 17 -10 0 -13 -6 -10 -15 4 -8 1 -15 -5 -15 -6 0 -10 5 -8
11 1 6 -6 13 -16 14 -33 6 -47 14 -46 27 0 10 2 10 6 1 2 -7 9 -13 14 -13z
m149 4 c0 5 7 3 15 -4 11 -9 19 -10 26 -3 14 14 59 4 59 -13 0 -17 -17 -27
-25 -14 -3 5 -21 10 -39 10 -32 0 -56 15 -56 35 0 5 5 3 10 -5 5 -8 10 -11 10
-6z m618 -97 c-10 -8 -32 -11 -55 -8 l-38 5 30 7 c17 4 41 7 55 7 22 1 23 0 8
-11z m621 -46 c23 -15 -3 -49 -38 -47 -31 1 -56 16 -28 16 9 0 22 9 29 20 14
22 17 23 37 11z m-154 -11 c-3 -5 -14 -10 -23 -9 -14 0 -13 2 3 9 27 11 27 11
20 0z m-1545 -100 c0 -5 -5 -10 -11 -10 -5 0 -7 5 -4 10 3 6 8 10 11 10 2 0 4
-4 4 -10z m-588 -32 c-7 -7 -12 -21 -12 -31 0 -17 -5 -19 -46 -14 -25 2 -50 9
-56 15 -7 7 1 8 27 2 34 -8 41 -6 64 19 14 14 28 25 30 24 3 -2 -1 -9 -7 -15z
m-411 -2 c20 -4 49 -18 64 -32 30 -28 65 -44 97 -44 11 0 31 -8 44 -19 23 -18
23 -19 4 -36 -31 -28 -24 -38 23 -31 23 4 60 9 82 12 67 11 91 7 148 -20 31
-14 61 -26 67 -26 21 0 92 -52 97 -71 3 -10 8 -19 12 -19 4 0 13 -16 21 -35 8
-19 18 -35 22 -35 5 0 7 4 4 8 -2 4 -1 14 5 22 6 11 9 11 10 3 3 -28 4 -32 13
-40 5 -5 6 -3 2 5 -4 6 -3 12 2 12 6 0 12 -6 15 -14 4 -11 14 -12 41 -6 20 4
34 4 31 0 -3 -4 4 -10 15 -13 11 -3 20 0 21 6 0 8 2 8 6 0 3 -10 9 -9 20 3 10
10 25 13 40 9 15 -3 22 -2 19 4 -7 10 40 9 50 -2 3 -3 16 -2 29 3 17 7 25 5
29 -6 11 -28 7 -46 -8 -41 -10 4 -13 1 -9 -9 4 -12 -8 -19 -21 -11 -2 1 -13
-6 -23 -16 -11 -9 -22 -14 -25 -11 -3 3 -9 0 -14 -7 -5 -9 3 -11 32 -7 21 4
48 10 59 14 18 7 18 6 6 -9 -17 -21 -83 -39 -113 -32 -13 3 -34 2 -48 -3 l-24
-9 27 -7 c15 -3 27 -11 27 -17 0 -6 -7 -8 -16 -5 -8 3 -12 2 -9 -4 4 -6 -5
-10 -20 -10 -14 0 -24 4 -20 9 3 5 1 12 -5 16 -6 4 -8 10 -6 14 3 4 -14 6 -37
4 -23 -1 -76 -3 -117 -4 -41 -1 -85 -6 -96 -10 -14 -5 -29 -3 -40 6 -23 18
-43 20 -26 3 15 -15 16 -32 2 -23 -5 3 -10 1 -10 -6 0 -12 -79 -5 -90 9 -9 12
-52 34 -46 23 4 -7 1 -8 -8 -5 -9 3 -16 16 -16 28 0 11 -4 17 -8 11 -4 -5 -18
-11 -32 -13 -14 -1 -29 -9 -35 -18 -5 -9 -20 -29 -33 -44 -12 -16 -19 -35 -16
-43 3 -9 -2 -20 -15 -26 -27 -15 -31 -14 -24 6 5 13 3 15 -13 8 -10 -5 -40
-10 -65 -13 -41 -3 -48 -1 -72 27 -14 17 -32 31 -41 31 -8 0 -18 4 -21 10 -4
6 1 7 11 3 14 -5 16 -2 12 14 -4 14 6 35 28 63 19 24 34 52 34 64 -1 21 -1 21
-15 2 -8 -11 -15 -25 -15 -32 0 -7 -12 -21 -26 -31 -14 -10 -26 -26 -28 -35
-4 -29 -16 -33 -32 -10 -13 19 -21 22 -52 16 -48 -9 -99 -58 -82 -79 6 -8 9
-19 6 -24 -4 -5 -1 -13 5 -16 5 -4 8 -13 5 -21 -3 -7 4 -18 15 -24 11 -6 17
-15 14 -20 -8 -13 -37 -1 -56 23 -19 23 -59 16 -59 -11 0 -20 -13 -7 -34 33
l-16 30 0 -30 c0 -46 18 -101 44 -132 40 -49 48 -92 24 -136 -12 -24 -59 -18
-93 11 -14 12 -25 19 -25 15 0 -16 -40 42 -45 67 -3 15 -15 36 -26 46 -10 9
-19 25 -19 36 0 10 -4 18 -10 18 -5 0 -10 7 -10 16 0 8 -4 13 -9 10 -5 -3 -19
3 -32 13 -24 18 -30 21 -49 21 -5 0 -10 5 -10 11 0 7 10 9 25 5 14 -4 25 -2
25 3 0 5 9 7 20 4 16 -4 19 -2 14 11 -3 9 -10 16 -15 16 -15 0 -88 70 -94 91
-4 11 -11 17 -16 14 -5 -4 -9 -1 -9 5 0 17 -62 90 -71 84 -4 -2 -7 -22 -6 -44
0 -21 5 -36 9 -34 4 3 5 -1 2 -9 -6 -16 34 -50 48 -41 7 5 13 -19 9 -40 -1 -5
5 -6 14 -3 17 7 21 -8 5 -18 -5 -3 -10 -11 -10 -17 0 -7 5 -6 14 1 10 8 16 9
21 1 3 -5 0 -13 -8 -15 -16 -7 -73 13 -64 21 3 4 -3 16 -14 27 -11 12 -17 27
-15 34 3 7 1 13 -3 13 -5 0 -23 13 -40 29 -17 16 -45 32 -61 36 -17 4 -30 11
-30 16 0 5 -9 9 -20 9 -11 0 -20 4 -20 8 0 12 -47 32 -75 32 -28 0 -43 19 -25
30 8 5 9 10 2 14 -6 4 -9 13 -5 21 3 10 -1 15 -11 15 -12 0 -15 -6 -10 -24 3
-13 1 -27 -5 -30 -7 -5 -11 2 -11 17 0 26 -22 55 -56 74 -19 10 -23 8 -32 -13
-7 -13 -9 -31 -5 -40 5 -14 3 -15 -16 -5 -15 8 -20 18 -16 30 4 15 1 17 -20
14 -16 -4 -27 0 -31 10 -5 14 -8 14 -27 -3 -11 -11 -27 -20 -34 -20 -15 0 -38
-39 -27 -48 4 -4 9 -1 11 6 5 14 23 16 23 2 0 -5 -17 -14 -37 -19 -38 -11 -57
-6 -35 8 8 4 14 17 16 27 1 10 12 23 23 28 11 5 26 18 32 28 9 14 7 22 -9 38
-11 11 -24 20 -28 20 -19 0 -42 39 -51 82 l-8 46 36 -5 c27 -3 32 -2 21 6 -12
8 -12 11 -1 11 7 0 34 -17 60 -38 77 -64 93 -72 126 -63 27 8 28 9 11 17 -13
5 -21 3 -24 -4 -5 -17 -22 -15 -22 3 0 8 -8 15 -17 15 -25 0 -24 47 0 54 12 3
17 -1 16 -12 -3 -33 2 -37 20 -13 13 17 18 19 18 7 0 -9 -4 -16 -9 -16 -4 0
-8 -5 -8 -11 0 -5 4 -8 8 -5 12 7 65 -41 58 -53 -3 -5 3 -7 14 -4 12 3 22 -1
26 -11 3 -9 10 -13 16 -10 11 7 58 -34 58 -52 0 -13 -17 -13 -38 0 -13 8 -30
1 -21 -8 10 -11 69 -16 69 -6 0 5 5 10 11 10 6 0 9 -7 5 -15 -3 -8 -1 -15 3
-15 14 0 21 28 8 34 -9 5 -9 7 1 12 16 8 15 24 -2 38 -9 6 -18 37 -21 71 -7
59 -7 60 31 98 21 21 49 40 62 44 58 14 160 -13 221 -59 33 -25 73 -23 131 7
40 20 64 25 125 25 70 0 75 -1 75 -21 0 -20 4 -21 40 -15 22 3 68 24 103 45
34 22 69 38 77 36 8 -2 31 -6 51 -9z m1978 -2 c12 -3 29 0 37 7 19 15 132 -5
243 -43 47 -16 101 -30 120 -29 21 0 39 -6 47 -17 8 -10 13 -12 14 -4 0 18 59
15 100 -6 35 -17 42 -37 26 -74 -5 -10 0 -27 11 -44 l18 -28 -33 19 c-19 11
-51 39 -73 63 -22 23 -44 42 -50 42 -13 0 -2 -38 21 -67 18 -23 16 -83 -2 -83
-5 0 -32 -17 -59 -37 -50 -39 -70 -76 -50 -96 8 -8 11 -8 11 1 0 8 9 10 26 6
23 -6 25 -4 19 15 -8 26 18 29 37 4 7 -10 29 -19 48 -20 19 -2 40 -9 46 -18 6
-8 23 -15 37 -15 19 0 28 -6 32 -22 7 -33 1 -78 -8 -69 -5 5 -24 7 -43 4 -32
-4 -34 -3 -34 25 0 16 -10 41 -21 56 -26 34 -38 26 -15 -10 17 -25 16 -41 -1
-31 -5 3 -18 24 -29 46 -10 23 -23 41 -27 41 -5 0 -5 -4 -2 -10 3 -5 1 -10 -4
-10 -6 0 -11 -9 -11 -20 0 -12 -5 -17 -13 -14 -7 2 -13 -4 -14 -16 -2 -21 16
-23 32 -2 9 11 16 9 37 -7 14 -12 31 -21 37 -21 6 0 11 -3 12 -7 9 -78 7 -113
-5 -113 -12 0 -21 -17 -31 -58 -6 -22 -14 -26 -30 -12 -10 8 -15 9 -15 1 0 -6
4 -11 10 -11 5 0 7 -7 4 -15 -4 -9 -13 -13 -24 -10 -14 4 -16 1 -13 -17 5 -26
-44 -146 -87 -215 -33 -52 -39 -107 -15 -139 21 -28 18 -77 -7 -110 -13 -15
-17 -25 -10 -20 18 11 15 -25 -4 -52 -9 -13 -26 -27 -37 -31 -26 -10 -85 5
-110 27 -18 16 -18 17 10 29 15 7 21 12 13 13 -8 0 -21 12 -27 27 -16 33 -18
147 -3 138 7 -4 9 2 4 19 -3 15 -2 32 4 39 9 12 25 62 26 82 1 6 6 13 11 18 6
4 5 10 -3 16 -8 4 -13 12 -12 17 3 11 -62 103 -73 104 -5 0 -16 7 -24 16 -36
35 -121 94 -137 94 -9 0 -14 5 -11 10 3 6 -1 10 -9 10 -22 0 -86 32 -86 43 0
5 -7 7 -14 4 -10 -4 -13 -1 -10 7 5 14 -7 16 -129 29 -21 3 -41 8 -45 12 -4 4
3 5 15 2 13 -3 25 -2 28 3 8 12 -30 18 -113 19 -73 0 -149 10 -182 25 -27 11
-94 13 -111 3 -12 -7 -23 -5 -40 6 -13 10 -20 17 -17 17 4 0 0 16 -8 35 -18
44 -18 46 -4 55 6 4 -6 7 -26 8 -20 1 -38 3 -40 5 -12 12 35 47 95 71 73 29
90 46 45 46 -14 0 -32 7 -40 15 -24 24 -42 19 -36 -10 5 -31 -17 -34 -43 -5
-20 22 -14 53 10 44 9 -4 15 -1 15 8 0 7 -10 14 -21 15 -27 2 -35 11 -23 22 5
5 47 21 94 37 47 15 88 32 92 38 5 7 45 10 110 9 57 -2 153 -4 213 -5 100 -3
113 -1 142 20 17 12 34 22 38 22 4 0 19 9 34 19 28 20 75 31 101 24 8 -3 26
-7 39 -9z m-1319 -14 c0 -5 -5 -10 -11 -10 -5 0 -7 5 -4 10 3 6 8 10 11 10 2
0 4 -4 4 -10z m100 0 c0 -5 7 -10 15 -10 8 0 15 -7 15 -16 0 -15 -2 -15 -22
-2 -25 17 -35 38 -19 38 6 0 11 -4 11 -10z m-1700 -18 c0 -4 -16 -12 -35 -18
-37 -12 -47 -2 -17 15 20 12 52 14 52 3z m1604 -17 c3 -8 1 -15 -4 -15 -6 0
-10 7 -10 15 0 8 2 15 4 15 2 0 6 -7 10 -15z m113 -25 c13 0 23 -5 23 -11 0
-17 -52 -1 -75 23 l-20 21 25 -17 c13 -9 35 -16 47 -16z m151 21 c10 -6 8 -10
-10 -14 -34 -10 -68 -8 -68 2 0 17 57 26 78 12z m-371 -21 c1 -11 -2 -22 -8
-25 -10 -7 -13 28 -2 38 9 9 9 10 10 -13z m152 1 c8 -5 9 -11 3 -15 -5 -3 -15
1 -22 9 -14 16 -3 20 19 6z m321 -23 c0 -5 -4 -6 -10 -3 -5 3 -10 1 -10 -6 0
-6 8 -9 20 -6 26 7 15 -12 -14 -23 -30 -11 -38 -2 -21 24 8 12 12 26 8 30 -4
4 0 4 10 0 9 -3 17 -10 17 -16z m-504 -55 c-6 -7 -56 27 -56 39 0 5 14 0 31
-12 16 -12 28 -24 25 -27z m294 37 c0 -5 -7 -10 -15 -10 -9 0 -18 -7 -21 -15
-5 -12 -10 -13 -20 -5 -7 7 -10 18 -7 26 6 16 63 20 63 4z m65 -15 c0 -17 -5
-25 -17 -25 -10 0 -18 3 -18 7 0 5 30 43 34 43 1 0 1 -11 1 -25z m55 5 c0 -5
-4 -10 -10 -10 -16 0 -12 -14 10 -38 24 -26 33 -27 54 -7 9 10 17 11 21 5 4
-6 11 -8 16 -5 5 4 9 -1 9 -9 0 -9 -9 -16 -20 -16 -12 0 -20 -7 -20 -17 0 -15
2 -15 9 -4 8 12 12 13 25 2 12 -11 14 -17 5 -27 -15 -18 -54 -18 -71 -1 -14
14 -38 12 -38 -4 0 -4 6 -6 14 -3 8 3 17 1 20 -4 3 -6 -6 -13 -21 -17 -20 -5
-31 -1 -47 15 l-21 22 23 -7 c12 -3 22 -2 22 3 0 12 -29 24 -41 16 -5 -3 -9 0
-9 6 0 6 -6 10 -12 8 -7 -2 -14 1 -15 6 -1 5 -7 13 -15 18 -8 6 -3 7 17 2 17
-4 40 -6 53 -5 13 0 21 -3 18 -7 -3 -5 1 -9 9 -9 19 0 19 6 -5 45 -25 41 -25
52 0 52 11 0 20 -4 20 -10z m1779 -15 c16 -8 31 -24 34 -36 5 -19 8 -20 22 -9
14 12 18 11 26 -1 7 -12 9 -11 9 3 0 9 5 20 11 23 13 9 55 -30 62 -56 6 -21
-8 -35 -18 -18 -4 5 -13 8 -20 5 -7 -2 -24 2 -39 9 -22 12 -26 12 -26 -1 0 -8
-4 -14 -10 -14 -5 0 -10 5 -10 10 0 15 -16 12 -34 -6 -15 -14 -17 -14 -22 0
-3 9 -3 23 0 32 5 13 1 14 -24 9 -27 -6 -30 -4 -30 19 0 31 -20 34 -38 5 -16
-26 -34 -13 -26 19 6 19 13 22 56 22 27 0 62 -7 77 -15z m-2084 -5 c3 -5 2
-10 -4 -10 -5 0 -13 5 -16 10 -3 6 -2 10 4 10 5 0 13 -4 16 -10z m59 -16 c4
-11 0 -15 -16 -12 -12 2 -23 9 -26 16 -6 18 35 15 42 -4z m80 -50 c18 -7 22
-39 6 -49 -6 -3 -15 6 -20 20 -15 39 -14 40 14 29z m2179 -22 c41 -7 33 -20
-12 -18 -30 0 -41 5 -45 19 -3 14 -1 17 12 11 9 -4 29 -9 45 -12z m-320 -14
c12 -7 33 -23 47 -35 14 -12 42 -29 63 -38 35 -14 37 -18 37 -61 0 -43 -1 -45
-17 -33 -28 22 -42 43 -43 61 0 10 -17 29 -37 42 -38 24 -92 76 -80 76 4 0 17
-6 30 -12z m407 2 c0 -5 -4 -10 -10 -10 -5 0 -10 5 -10 10 0 6 5 10 10 10 6 0
10 -4 10 -10z m-2197 -20 c3 -13 0 -20 -9 -20 -8 0 -11 6 -7 17 5 12 3 14 -7
8 -9 -5 -11 -4 -6 3 11 18 23 14 29 -8z m32 1 c3 -5 1 -12 -5 -16 -5 -3 -10 1
-10 9 0 18 6 21 15 7z m201 -11 c0 -12 -4 -16 -9 -11 -5 5 -6 14 -3 20 10 15
12 14 12 -9z m1969 0 c3 -5 1 -10 -4 -10 -6 0 -11 5 -11 10 0 6 2 10 4 10 3 0
8 -4 11 -10z m-2045 -20 c6 -11 7 -20 2 -20 -6 0 -12 9 -15 20 -3 11 -3 20 -1
20 2 0 8 -9 14 -20z m-2070 -19 c0 -5 10 -11 22 -13 12 -2 23 -9 26 -17 3 -10
-2 -11 -18 -6 -15 5 -20 4 -16 -4 4 -6 3 -11 -3 -11 -13 0 -41 41 -35 52 7 11
24 10 24 -1z m-115 -60 c-3 -6 -11 -8 -17 -5 -6 4 -5 9 3 15 16 10 23 4 14
-10z m-85 -27 c0 -2 -7 -4 -15 -4 -8 0 -15 4 -15 10 0 5 7 7 15 4 8 -4 15 -8
15 -10z m-33 -20 c-3 -3 -12 -4 -19 -1 -8 3 -5 6 6 6 11 1 17 -2 13 -5z m663
-90 c0 -2 -7 -4 -15 -4 -8 0 -15 4 -15 10 0 5 7 7 15 4 8 -4 15 -8 15 -10z
m1345 -34 c-3 -4 2 -13 10 -20 12 -10 13 -16 4 -26 -6 -8 -9 -14 -5 -14 3 0 1
-11 -4 -25 -6 -17 -6 -25 1 -25 6 0 7 -4 4 -10 -13 -22 -25 -8 -22 25 3 19 0
35 -5 35 -5 0 -7 4 -4 9 3 5 -2 12 -11 15 -15 6 -15 8 -3 16 8 6 11 10 6 10
-5 0 -3 7 4 15 12 15 35 11 25 -5z m333 -4 c-1 -1 -10 -7 -19 -14 -15 -11 -17
-9 -15 12 1 20 4 22 19 14 10 -5 17 -11 15 -12z m-398 -3 c0 -17 -15 -16 -30
1 -9 12 -8 15 9 13 12 -1 21 -7 21 -14z m298 -8 c0 -14 10 -35 23 -48 16 -14
24 -33 23 -52 -1 -42 51 -114 77 -108 27 7 35 24 17 37 -11 8 -13 18 -6 35 8
24 9 24 27 5 10 -10 17 -22 15 -25 -4 -7 20 -19 38 -19 5 0 9 12 7 28 -2 31
10 64 21 57 4 -3 7 -21 5 -40 -2 -33 9 -48 17 -23 2 6 12 9 21 5 9 -3 14 -13
11 -20 -4 -11 1 -13 22 -9 18 3 25 1 20 -6 -4 -7 3 -26 16 -43 21 -28 22 -31
5 -40 -9 -6 -17 -20 -17 -33 0 -13 -6 -28 -12 -33 -28 -21 -109 0 -149 38 -17
16 -33 29 -36 29 -2 0 -11 6 -19 14 -15 15 -54 10 -54 -6 0 -6 -8 -7 -17 -4
-9 4 -21 1 -26 -6 -6 -10 -8 -9 -4 3 4 11 -3 20 -19 28 -13 6 -24 17 -24 26 0
18 14 19 32 2 15 -15 48 -29 48 -20 0 3 -12 22 -26 40 -18 24 -32 33 -45 30
-11 -3 -17 -1 -13 4 3 5 -4 9 -16 9 -18 0 -19 -3 -10 -20 14 -26 -7 -58 -50
-77 -30 -12 -31 -12 -24 10 4 12 11 23 15 25 5 2 2 13 -6 25 -21 30 -19 37 13
38 35 1 64 12 62 24 -1 8 8 60 15 88 2 4 3 18 4 32 1 33 19 33 19 0z m1767 5
c3 -5 1 -10 -4 -10 -6 0 -11 5 -11 10 0 6 2 10 4 10 3 0 8 -4 11 -10z m-1466
-49 c11 -21 17 -41 14 -45 -4 -3 1 -6 10 -6 17 0 22 -11 11 -23 -4 -3 -13 1
-22 9 -8 9 -23 13 -33 11 -34 -9 -42 19 -23 81 7 22 23 12 43 -27z m101 23 c0
-10 6 -14 15 -11 8 4 17 2 20 -3 3 -5 12 -7 20 -4 13 5 42 -33 32 -43 -13 -12
-80 24 -93 49 -9 17 -10 28 -4 28 5 0 10 -7 10 -16z m207 -6 c-3 -8 -6 -5 -6
6 -1 11 2 17 5 13 3 -3 4 -12 1 -19z m-407 -1 c0 6 8 10 18 9 21 -3 30 -46 8
-46 -18 0 -46 27 -46 43 0 7 4 6 10 -3 5 -8 10 -10 10 -3z m445 -7 c3 -5 1
-10 -4 -10 -6 0 -11 5 -11 10 0 6 2 10 4 10 3 0 8 -4 11 -10z m1287 -22 c-9
-9 -12 -7 -12 12 0 19 3 21 12 12 9 -9 9 -15 0 -24z m-2253 -21 c0 -9 -2 -9
-6 1 -2 6 -8 10 -13 7 -4 -3 -11 2 -14 10 -4 13 -2 14 14 5 11 -6 20 -16 19
-23z m1059 -17 c5 -19 14 -34 21 -32 21 4 11 -29 -11 -37 -17 -6 -24 -4 -29 7
-4 11 -18 17 -40 17 -19 0 -33 5 -32 10 1 6 -3 15 -7 20 -15 18 4 33 38 31 22
-1 31 2 28 10 -6 15 5 27 15 17 4 -5 12 -24 17 -43z m-1453 30 c-3 -5 -12 -10
-18 -10 -7 0 -6 4 3 10 19 12 23 12 15 0z m639 1 c7 -11 -22 -23 -35 -15 -5 3
-7 10 -4 15 8 12 32 12 39 0z m698 -13 c-7 -7 -12 -8 -12 -2 0 14 12 26 19 19
2 -3 -1 -11 -7 -17z m958 3 c0 -5 -7 -12 -16 -15 -24 -9 -28 -7 -14 9 14 17
30 20 30 6z m-2340 -21 c7 -11 11 -11 24 -1 9 8 17 11 17 7 5 -25 4 -34 -10
-58 -8 -16 -21 -28 -28 -28 -7 0 -13 -4 -13 -9 0 -14 -32 -18 -57 -8 -22 10
-43 59 -43 101 0 16 6 18 51 14 28 -3 55 -11 59 -18z m500 -42 c0 -5 -7 -8
-15 -8 -8 0 -15 7 -15 15 0 8 -5 15 -11 15 -5 0 -8 4 -4 10 6 10 45 -18 45
-32z m80 32 c0 -5 -2 -10 -4 -10 -3 0 -8 5 -11 10 -3 6 -1 10 4 10 6 0 11 -4
11 -10z m660 -41 c0 -16 7 -40 15 -53 15 -22 14 -24 -7 -29 -24 -7 -48 8 -48
29 0 8 -6 13 -12 12 -24 -5 -15 46 11 64 31 21 41 15 41 -23z m1080 20 c0 -5
-7 -9 -15 -9 -15 0 -20 12 -9 23 8 8 24 -1 24 -14z m120 -9 c0 -26 -10 -50
-21 -50 -6 0 -6 7 0 18 6 10 6 24 1 32 -5 8 -6 18 -4 22 8 13 24 -1 24 -22z
m-36 5 c3 -8 1 -15 -3 -15 -5 0 -11 7 -15 15 -3 8 -1 15 3 15 5 0 11 -7 15
-15z m-34 -5 c0 -5 -4 -10 -10 -10 -5 0 -10 5 -10 10 0 6 5 10 10 10 6 0 10
-4 10 -10z m-2611 -27 c21 -16 51 -50 66 -77 15 -26 43 -57 61 -68 28 -16 33
-24 27 -42 -3 -11 -7 -29 -7 -38 0 -10 -3 -18 -7 -18 -4 0 -23 -16 -42 -35
-29 -29 -43 -35 -76 -35 -75 0 -145 58 -156 130 -1 8 -6 32 -10 53 -4 22 -3
37 2 37 6 0 10 14 11 31 0 18 10 38 23 50 12 10 19 19 15 19 -4 0 -4 5 -1 10
11 18 54 10 94 -17z m1836 7 c-3 -5 -2 -10 3 -10 15 0 24 -31 12 -45 -6 -8 -6
-15 2 -23 9 -9 8 -12 -4 -12 -9 0 -23 7 -31 15 -13 12 -14 10 -13 -15 1 -16 7
-35 14 -42 6 -6 12 -18 12 -26 0 -7 4 -11 9 -7 6 3 15 -3 21 -14 9 -17 8 -19
-5 -15 -8 4 -15 1 -15 -5 0 -6 -5 -11 -11 -11 -6 0 -9 6 -6 14 4 11 0 13 -15
11 -29 -6 -31 -10 -13 -29 15 -15 14 -16 -14 -16 -17 0 -31 4 -31 9 0 5 -10 7
-22 3 -20 -5 -21 -3 -10 10 8 10 9 19 3 22 -5 4 -13 1 -16 -5 -5 -6 -12 -3
-22 11 -10 14 -12 25 -5 33 12 14 11 67 0 67 -5 0 -8 -5 -8 -12 0 -6 -6 -3
-14 8 -14 18 -15 18 -21 -9 -4 -15 -11 -27 -16 -27 -12 0 -11 17 1 25 6 3 10
15 10 26 0 26 41 25 60 -1 15 -21 40 -27 40 -10 0 6 17 17 39 26 21 8 43 26
49 40 7 13 14 24 17 24 4 0 3 -4 0 -10z m739 -11 c-3 -5 -10 -7 -15 -3 -5 3
-7 10 -3 15 3 5 10 7 15 3 5 -3 7 -10 3 -15z m-1714 1 c0 -5 -4 -10 -10 -10
-5 0 -10 5 -10 10 0 6 5 10 10 10 6 0 10 -4 10 -10z m758 -32 c2 -17 -2 -28
-8 -28 -7 0 -10 -7 -6 -15 3 -8 1 -15 -5 -15 -6 0 -8 -4 -5 -9 3 -4 -6 -6 -19
-3 -26 5 -35 32 -11 32 8 0 18 6 22 13 4 6 4 9 -1 5 -12 -11 -36 19 -29 37 4
10 16 15 33 13 20 -2 27 -9 29 -30z m-788 -52 c0 -3 -4 -8 -10 -11 -5 -3 -10
-1 -10 4 0 6 5 11 10 11 6 0 10 -2 10 -4z m625 -5 c-3 -5 -1 -12 4 -15 5 -4
12 -2 16 3 3 6 14 3 25 -7 25 -20 25 -28 3 -36 -10 -3 -24 -9 -32 -12 -9 -4
-11 -2 -6 6 4 7 -2 18 -14 27 -17 12 -20 18 -10 29 13 16 23 19 14 5z m425
-20 c0 -5 -7 -11 -14 -14 -10 -4 -13 -1 -9 9 6 15 23 19 23 5z m68 -35 c10
-23 10 -23 -21 -13 -18 5 -39 12 -47 14 -11 3 -9 8 9 18 30 16 45 11 59 -19z
m-871 -1 c0 -8 -4 -15 -9 -15 -4 0 -8 7 -8 15 0 8 4 15 8 15 5 0 9 -7 9 -15z
m373 5 c0 -5 -4 -10 -10 -10 -5 0 -10 5 -10 10 0 6 5 10 10 10 6 0 10 -4 10
-10z m1360 -17 c24 -31 22 -47 -7 -51 -13 -2 -29 9 -46 32 -34 43 -34 46 2 46
20 0 36 -9 51 -27z m100 12 c0 -16 -27 -32 -37 -22 -3 4 -3 13 0 22 8 20 37
20 37 0z m0 -65 c0 -5 -5 -10 -11 -10 -5 0 -7 5 -4 10 3 6 8 10 11 10 2 0 4
-4 4 -10z m-385 -21 c22 -1 52 1 68 5 25 8 27 6 28 -20 0 -16 3 -23 6 -16 7
17 23 15 39 -5 12 -16 13 -16 8 -1 -4 13 -1 15 14 11 22 -5 37 -66 22 -92 -7
-13 -11 -11 -20 14 l-12 30 -13 -25 c-8 -14 -14 -21 -15 -16 0 5 -6 3 -13 -3
-8 -6 -17 -8 -20 -5 -3 4 -25 -1 -47 -10 -54 -22 -79 -10 -51 23 12 13 18 28
14 34 -3 5 -1 7 4 4 6 -4 22 2 34 13 l24 19 -30 1 c-36 0 -115 29 -115 42 0 5
8 7 18 4 9 -3 35 -6 57 -7z m472 -4 c2 -6 -11 -16 -27 -24 -23 -10 -28 -16
-20 -25 11 -15 4 -26 -18 -26 -8 0 -12 6 -9 14 3 8 1 16 -6 19 -9 3 -9 10 1
31 10 23 18 27 44 24 17 -2 33 -8 35 -13z m-197 -35 c0 -5 -4 -10 -10 -10 -5
0 -10 5 -10 10 0 6 5 10 10 10 6 0 10 -4 10 -10z m264 -39 c3 -4 0 -22 -7 -40
-8 -23 -17 -31 -30 -27 -12 3 -22 -5 -32 -25 -9 -16 -18 -29 -20 -29 -3 0 -5
22 -5 50 0 47 2 51 33 64 38 17 54 19 61 7z m-917 -63 c-3 -8 -6 -5 -6 6 -1
11 2 17 5 13 3 -3 4 -12 1 -19z m533 -16 c-8 -3 -26 -13 -39 -23 -25 -20 -71
-26 -71 -10 0 5 19 20 42 34 34 20 47 23 63 14 16 -8 17 -11 5 -15z m-171 -18
c42 -21 27 -39 -23 -30 -32 6 -35 9 -26 26 13 24 9 24 49 4z m193 -16 c-6 -6
-15 -8 -19 -4 -4 4 -1 11 7 16 19 12 27 3 12 -12z m-566 -23 c1 -14 -2 -23 -7
-20 -5 4 -9 18 -9 32 0 32 12 23 16 -12z m494 -15 c0 -5 -7 -7 -15 -4 -8 4
-15 8 -15 10 0 2 7 4 15 4 8 0 15 -4 15 -10z m37 4 c-3 -3 -12 -4 -19 -1 -8 3
-5 6 6 6 11 1 17 -2 13 -5z m296 -19 c28 -6 42 -14 50 -34 6 -14 17 -34 25
-43 8 -9 11 -22 7 -28 -5 -8 -10 -6 -18 4 -7 9 -38 19 -76 24 -47 7 -69 15
-82 31 -13 15 -29 21 -61 22 -53 1 -87 12 -69 23 17 11 76 10 97 -2 13 -7 26
-5 48 9 17 10 33 14 36 10 3 -5 22 -12 43 -16z m-2763 1 c0 -2 -7 -9 -15 -16
-13 -11 -14 -10 -9 4 5 14 24 23 24 12z m-180 -78 c7 -18 12 -33 10 -33 -2 0
3 -11 10 -25 31 -57 -4 -181 -54 -194 -33 -8 -51 0 -72 32 -22 33 -28 118 -12
152 22 45 69 100 86 100 10 0 24 -15 32 -32z m1975 23 c3 -5 1 -12 -5 -16 -5
-3 -10 1 -10 9 0 18 6 21 15 7z m171 -12 c8 -13 -36 -50 -49 -42 -5 3 -4 10 2
16 21 21 11 29 -16 12 l-28 -18 19 21 c20 24 60 29 72 11z m-151 -19 c3 -5 1
-10 -4 -10 -6 0 -11 5 -11 10 0 6 2 10 4 10 3 0 8 -4 11 -10z m675 1 c0 -6 -4
-13 -10 -16 -5 -3 -10 1 -10 9 0 9 5 16 10 16 6 0 10 -4 10 -9z m195 -21 c-5
-8 -11 -8 -17 -2 -6 6 -7 16 -3 22 5 8 11 8 17 2 6 -6 7 -16 3 -22z m-35 16
c0 -3 -4 -8 -10 -11 -5 -3 -10 -1 -10 4 0 6 5 11 10 11 6 0 10 -2 10 -4z m90
-15 c0 -12 -20 -25 -27 -18 -7 7 6 27 18 27 5 0 9 -4 9 -9z m-960 -11 c0 -5
-5 -10 -11 -10 -5 0 -7 5 -4 10 3 6 8 10 11 10 2 0 4 -4 4 -10z m-1040 -30 c0
-5 -2 -10 -4 -10 -3 0 -8 5 -11 10 -3 6 -1 10 4 10 6 0 11 -4 11 -10z m-70
-42 c0 -14 -18 -9 -24 8 -11 28 -6 39 9 20 8 -11 15 -23 15 -28z m-1140 22 c0
-5 -2 -10 -4 -10 -3 0 -8 5 -11 10 -3 6 -1 10 4 10 6 0 11 -4 11 -10z m700
-22 c0 -10 -3 -18 -7 -19 -5 0 -28 -2 -51 -5 -24 -3 -42 -2 -40 3 3 4 8 16 11
26 9 25 87 20 87 -5z m1790 7 c0 -8 9 -19 20 -25 11 -6 20 -17 20 -25 0 -23
-20 -17 -29 9 -13 32 -41 42 -48 16 -6 -22 -24 -22 -31 -1 -2 7 5 15 17 18 12
3 21 9 21 14 0 5 7 9 15 9 8 0 15 -7 15 -15z m-1530 -27 c0 -5 -4 -8 -10 -8
-5 0 -10 10 -10 23 0 18 2 19 10 7 5 -8 10 -18 10 -22z m970 7 c0 -8 -7 -15
-15 -15 -16 0 -20 12 -8 23 11 12 23 8 23 -8z m1107 -49 c17 -4 43 -18 57 -31
14 -13 35 -26 46 -30 27 -9 26 -47 -2 -65 -51 -35 -230 -224 -221 -234 9 -9
-222 -233 -263 -254 -23 -12 -99 -60 -170 -108 -71 -47 -136 -89 -144 -92 -8
-3 -26 -17 -40 -30 -14 -13 -44 -35 -67 -49 -24 -14 -43 -29 -43 -33 0 -4 -18
-17 -40 -28 -22 -10 -36 -22 -33 -26 4 -4 0 -4 -10 0 -12 4 -17 1 -17 -10 0
-14 -12 -20 -32 -17 -5 0 -8 -4 -8 -10 0 -8 -45 -9 -157 -4 -191 9 -178 7
-201 28 -10 9 -31 17 -46 17 -15 0 -25 4 -21 9 17 29 -144 34 -176 5 -15 -13
-22 -15 -28 -6 -9 15 -124 19 -129 4 -2 -7 -11 -12 -19 -12 -22 0 -93 -32 -93
-42 0 -4 -6 -8 -14 -8 -7 0 -16 -9 -19 -21 -3 -12 -10 -18 -16 -15 -6 4 -24 0
-41 -9 -23 -12 -35 -13 -51 -5 -11 6 -28 10 -37 8 -9 -2 -26 4 -36 14 -10 9
-23 15 -28 12 -4 -3 -8 0 -8 6 0 7 -10 24 -23 39 -16 19 -33 27 -64 29 -77 6
-181 73 -300 196 -51 52 -93 98 -93 103 2 33 121 63 337 84 110 11 125 10 148
-5 29 -19 53 -12 34 10 -19 23 12 17 83 -14 71 -32 123 -52 153 -57 11 -2 35
-9 52 -16 31 -12 34 -11 63 16 22 21 30 37 27 52 -6 31 19 50 76 58 35 6 47
11 43 21 -4 10 5 14 34 14 21 0 42 5 46 11 5 8 -6 9 -35 4 -22 -4 -41 -4 -41
-2 0 3 26 17 57 32 44 20 62 24 78 16 37 -18 77 -22 91 -10 11 9 14 8 14 -5 0
-9 -8 -16 -20 -16 -10 0 -29 -4 -42 -9 -13 -6 -41 -13 -63 -16 -38 -7 -39 -8
-15 -17 26 -10 109 -6 149 7 21 7 22 6 12 -14 -10 -18 -7 -29 15 -67 28 -48
55 -67 62 -44 3 9 9 5 18 -11 13 -24 13 -24 9 6 -2 17 -4 32 -4 34 -1 3 -6 0
-13 -7 -14 -14 -28 -16 -28 -3 0 5 10 13 22 17 15 4 25 1 35 -12 7 -10 13 -12
13 -5 0 7 5 9 13 4 19 -11 69 -11 57 1 -14 14 -12 26 5 26 17 0 18 14 5 45 -7
17 -9 17 -9 3 -1 -10 -5 -18 -10 -18 -15 0 -20 27 -8 39 15 15 -16 17 -105 8
-20 -2 -43 0 -50 6 -10 6 -9 8 4 4 9 -3 18 -1 20 4 2 5 55 12 118 15 145 6
138 5 144 21 3 7 19 13 36 13 16 0 30 4 30 9 0 6 -17 7 -37 4 -22 -3 -34 -2
-30 3 9 9 77 25 186 44 35 6 73 15 83 21 12 7 53 8 108 3 95 -7 141 -1 137 18
-3 19 -24 38 -41 38 -14 0 -20 12 -17 33 0 4 -8 7 -19 7 -13 0 -18 -5 -14 -15
4 -8 10 -15 15 -15 5 0 9 -7 9 -16 0 -11 -5 -14 -17 -9 -10 4 -29 9 -43 11
-45 8 -49 12 -45 50 2 28 10 43 31 58 16 12 36 21 44 22 8 1 32 2 54 3 33 1
37 3 26 16 -11 13 -9 15 16 14 36 -2 208 47 250 71 17 10 46 21 63 25 17 4 43
19 59 34 31 32 53 42 67 31 6 -4 24 -11 42 -14z m-774 -13 c4 -2 5 -9 2 -14
-4 -5 1 -9 9 -9 9 0 16 -4 16 -10 0 -5 5 -10 11 -10 6 0 8 9 4 23 -5 19 -4 19
5 5 13 -21 -8 -61 -27 -53 -9 3 -13 -6 -13 -25 0 -17 -4 -30 -9 -30 -5 0 -7 9
-4 19 4 16 1 19 -16 14 -24 -6 -26 4 -6 31 17 22 20 50 5 41 -5 -3 -10 -1 -10
4 0 6 -9 11 -20 11 -11 0 -20 5 -20 11 0 10 52 4 73 -8z m287 8 c0 -11 -31
-24 -39 -16 -3 3 1 10 9 15 19 12 30 12 30 1z m-2720 -22 c0 -6 -4 -7 -10 -4
-5 3 -10 11 -10 16 0 6 5 7 10 4 6 -3 10 -11 10 -16z m2558 -12 c2 -10 -3 -17
-12 -17 -10 0 -16 9 -16 21 0 24 23 21 28 -4z m-1626 -1 c2 2 4 -5 4 -15 0
-15 -5 -17 -28 -10 -57 16 -69 42 -14 29 19 -4 37 -6 38 -4z m1188 -16 c0 -5
-4 -10 -10 -10 -5 0 -10 5 -10 10 0 6 5 10 10 10 6 0 10 -4 10 -10z m208 -15
c-3 -3 -9 2 -12 12 -6 14 -5 15 5 6 7 -7 10 -15 7 -18z m62 -7 c0 -13 -23 -5
-28 10 -2 7 2 10 12 6 9 -3 16 -11 16 -16z m-2313 -10 c-3 -8 -6 -5 -6 6 -1
11 2 17 5 13 3 -3 4 -12 1 -19z m2437 6 c17 -16 21 -34 9 -34 -5 0 -13 11 -20
25 -13 29 -11 31 11 9z m46 -4 c0 -5 -4 -10 -10 -10 -5 0 -10 5 -10 10 0 6 5
10 10 10 6 0 10 -4 10 -10z m1040 -5 c0 -8 -4 -15 -10 -15 -5 0 -10 7 -10 15
0 8 5 15 10 15 6 0 10 -7 10 -15z m-1480 -15 c0 -5 -7 -10 -16 -10 -8 0 -12 5
-9 10 3 6 10 10 16 10 5 0 9 -4 9 -10z m1384 1 c3 -5 -1 -14 -8 -20 -16 -13
-32 2 -21 19 8 12 22 13 29 1z m-3014 -42 c0 -6 -7 -6 -20 1 -11 6 -20 15 -20
21 0 6 7 6 20 -1 11 -6 20 -15 20 -21z m1630 -9 c0 -5 -4 -10 -10 -10 -5 0
-10 5 -10 10 0 6 5 10 10 10 6 0 10 -4 10 -10z m1290 -10 c0 -11 -3 -20 -7
-20 -5 0 -9 -24 -10 -52 -1 -49 -5 -56 -50 -99 -26 -25 -53 -54 -59 -65 -6
-10 -26 -23 -43 -28 -24 -7 -31 -14 -28 -27 5 -19 -12 -22 -25 -4 -13 17 -9
82 6 95 8 6 16 23 18 37 3 28 18 36 91 48 54 9 46 25 -13 25 -38 0 -50 4 -50
15 0 9 8 18 18 21 29 9 106 48 120 62 20 18 32 15 32 -8z m-3050 0 c0 -5 -5
-10 -11 -10 -5 0 -7 5 -4 10 3 6 8 10 11 10 2 0 4 -4 4 -10z m95 0 c-3 -5 -12
-10 -18 -10 -7 0 -6 4 3 10 19 12 23 12 15 0z m3045 0 c0 -5 -4 -10 -10 -10
-5 0 -10 5 -10 10 0 6 5 10 10 10 6 0 10 -4 10 -10z m-3060 -41 c0 -6 -4 -7
-10 -4 -5 3 -10 11 -10 16 0 6 5 7 10 4 6 -3 10 -11 10 -16z m-583 -25 c-9 -9
-28 6 -21 18 4 6 10 6 17 -1 6 -6 8 -13 4 -17z m2263 10 c0 -13 -58 -40 -66
-31 -3 3 -1 14 5 25 11 21 61 26 61 6z m-85 -4 c3 -5 1 -10 -4 -10 -6 0 -11 5
-11 10 0 6 2 10 4 10 3 0 8 -4 11 -10z m-2035 -10 c0 -5 -4 -10 -9 -10 -6 0
-13 5 -16 10 -3 6 1 10 9 10 9 0 16 -4 16 -10z m1995 0 c3 -5 1 -10 -4 -10 -6
0 -11 5 -11 10 0 6 2 10 4 10 3 0 8 -4 11 -10z m-330 -10 c-3 -5 -2 -10 4 -10
6 0 7 -8 4 -17 -6 -15 -7 -14 -13 3 -7 18 -4 34 6 34 3 0 2 -4 -1 -10z m-1210
-28 c3 -9 -1 -20 -12 -26 -28 -16 -45 -16 -39 -1 3 8 1 17 -4 20 -6 4 -10 12
-10 19 0 18 57 8 65 -12z m901 -17 c-8 -8 -16 -11 -19 -7 -2 4 -2 1 -1 -5 2
-7 -4 -13 -12 -13 -8 0 -12 -4 -9 -10 4 -6 16 -4 31 6 15 10 24 12 24 5 0 -16
-43 -31 -69 -24 -14 4 -21 13 -21 30 0 20 4 24 20 20 11 -3 20 -1 20 4 0 6 8
9 18 7 12 -2 16 3 14 17 -2 18 -2 19 8 2 9 -13 8 -21 -4 -32z m-1346 31 c0 -3
-4 -8 -10 -11 -5 -3 -10 -1 -10 4 0 6 5 11 10 11 6 0 10 -2 10 -4z m1780 -12
c0 -8 -4 -12 -10 -9 -5 3 -10 10 -10 16 0 5 5 9 10 9 6 0 10 -7 10 -16z m-580
-8 c0 -3 -4 -8 -10 -11 -5 -3 -10 -1 -10 4 0 6 5 11 10 11 6 0 10 -2 10 -4z
m568 -22 c13 8 25 -10 17 -25 -5 -7 -14 -4 -28 8 -18 16 -20 16 -14 1 4 -11 1
-17 -11 -17 -9 0 -29 -3 -44 -7 -22 -5 -28 -3 -28 10 0 15 15 20 50 18 8 0 19
6 24 15 6 12 10 12 16 3 4 -7 12 -10 18 -6z m-1161 -30 c3 -8 -12 -6 -42 3
-25 9 -45 19 -45 24 0 11 83 -14 87 -27z m1028 16 c-3 -5 -10 -10 -16 -10 -5
0 -9 5 -9 10 0 6 7 10 16 10 8 0 12 -4 9 -10z m-1115 -30 c0 -5 -4 -10 -10
-10 -5 0 -10 5 -10 10 0 6 5 10 10 10 6 0 10 -4 10 -10z m-30 -19 c0 -5 -7
-11 -15 -15 -15 -5 -20 5 -8 17 9 10 23 9 23 -2z m90 -16 c0 -8 -7 -15 -15
-15 -8 0 -15 7 -15 15 0 8 7 15 15 15 8 0 15 -7 15 -15z m850 -41 c61 -46 69
-57 49 -69 -6 -4 -13 2 -16 14 -8 29 -49 54 -71 42 -10 -5 -23 -6 -30 -2 -12
7 -34 7 -107 -4 -38 -5 -39 -4 -10 6 17 6 35 11 42 11 6 1 14 11 17 23 10 39
58 31 126 -21z m-1010 16 c0 -5 -5 -10 -11 -10 -5 0 -7 5 -4 10 3 6 8 10 11
10 2 0 4 -4 4 -10z m175 -10 c3 -5 1 -10 -4 -10 -6 0 -11 5 -11 10 0 6 2 10 4
10 3 0 8 -4 11 -10z m153 -12 c-8 -12 -21 -24 -28 -26 -8 -3 -6 5 6 21 23 32
42 36 22 5z m443 -29 c-13 -11 -27 -17 -30 -13 -7 7 28 34 43 34 6 -1 0 -10
-13 -21z m854 11 c-3 -5 -12 -7 -20 -3 -21 7 -19 13 6 13 11 0 18 -4 14 -10z
m-1485 -33 c0 -14 -43 -3 -48 12 -3 8 0 11 6 7 6 -3 14 -1 18 5 7 11 24 -6 24
-24z m257 -22 c-4 -8 -11 -15 -17 -15 -6 0 -6 7 2 20 14 22 24 19 15 -5z m443
21 c0 -3 -4 -8 -10 -11 -5 -3 -10 -1 -10 4 0 6 5 11 10 11 6 0 10 -2 10 -4z
m-94 -46 c13 0 24 -4 24 -9 0 -5 -8 -8 -17 -6 -10 2 -43 4 -73 5 -41 1 -50 4
-35 10 11 5 33 7 49 5 16 -3 39 -5 52 -5z m811 -48 c-7 -9 -13 -9 -24 -1 -11
10 -11 15 4 31 17 18 18 19 24 1 4 -10 2 -24 -4 -31z m1088 -20 c-6 -15 -8
-15 -15 3 -7 17 -9 17 -9 3 -1 -24 -18 -23 -32 3 -14 27 3 48 24 30 12 -9 16
-7 22 11 8 22 8 22 12 -5 3 -16 1 -36 -2 -45z m-1575 4 c0 -3 -4 -8 -10 -11
-5 -3 -10 -1 -10 4 0 6 5 11 10 11 6 0 10 -2 10 -4z m1512 -88 c-7 -7 -12 -8
-12 -2 0 14 12 26 19 19 2 -3 -1 -11 -7 -17z m-182 -28 c0 -5 -4 -10 -10 -10
-5 0 -10 5 -10 10 0 6 5 10 10 10 6 0 10 -4 10 -10z m100 -130 c0 -5 -5 -10
-11 -10 -5 0 -7 5 -4 10 3 6 8 10 11 10 2 0 4 -4 4 -10z m-90 -9 c0 -9 -71
-23 -79 -15 -9 9 23 24 52 24 15 0 27 -4 27 -9z m-115 -10 c6 -11 -33 -26 -43
-16 -4 3 0 10 8 15 19 12 27 12 35 1z m165 -6 c0 -2 -7 -5 -15 -9 -9 -3 -15 0
-15 9 0 9 6 12 15 9 8 -4 15 -7 15 -9z m-231 -20 c-16 -16 -100 -35 -86 -19
10 11 66 32 87 33 12 1 12 -1 -1 -14z m-2550 -61 c21 -27 18 -54 -6 -54 -23 0
-40 29 -35 56 6 31 16 30 41 -2z m1654 -31 c-7 -2 -19 -2 -25 0 -7 3 -2 5 12
5 14 0 19 -2 13 -5z m612 -186 c4 -12 2 -34 -3 -47 -5 -14 -6 -35 -1 -48 5
-13 4 -33 -2 -50 -10 -25 -12 -26 -23 -10 -20 28 -27 8 -9 -23 17 -29 14 -47
-6 -34 -11 6 -51 78 -51 91 0 3 7 4 15 1 23 -9 26 8 4 26 -21 18 -22 28 -13
75 6 31 18 39 61 41 16 1 24 -6 28 -22z m-127 -24 c-4 -39 -28 -42 -28 -4 0
21 5 31 16 31 11 0 14 -8 12 -27z m-1958 8 c3 -1 -3 -8 -13 -15 -20 -16 -57
-10 -57 9 0 11 41 14 70 6z m1875 -60 c3 -5 1 -12 -4 -15 -5 -3 -11 1 -15 9
-6 16 9 21 19 6z m61 -98 c-11 -12 -36 21 -36 47 0 43 13 43 28 -1 7 -22 11
-43 8 -46z m-83 16 c-3 -10 -9 -19 -14 -19 -11 0 -12 21 -3 45 9 23 23 0 17
-26z m-158 21 c3 -6 -1 -7 -9 -4 -18 7 -21 14 -7 14 6 0 13 -4 16 -10z m29
-33 c4 -19 3 -26 -4 -22 -5 3 -10 18 -10 32 0 32 5 28 14 -10z m69 -23 c-3 -8
-10 -11 -15 -8 -6 4 -14 0 -19 -7 -7 -11 -9 -9 -9 8 0 22 16 33 37 26 6 -3 9
-11 6 -19z m92 -14 c3 -5 1 -10 -4 -10 -6 0 -11 5 -11 10 0 6 2 10 4 10 3 0 8
-4 11 -10z m-1805 -20 c0 -5 -5 -10 -11 -10 -5 0 -7 5 -4 10 3 6 8 10 11 10 2
0 4 -4 4 -10z m1820 -20 c0 -5 -4 -10 -10 -10 -5 0 -10 5 -10 10 0 6 5 10 10
10 6 0 10 -4 10 -10z m-75 -10 c3 -5 1 -10 -4 -10 -6 0 -11 5 -11 10 0 6 2 10
4 10 3 0 8 -4 11 -10z"/>
<path d="M2660 3749 c0 -5 5 -7 10 -4 6 3 10 8 10 11 0 2 -4 4 -10 4 -5 0 -10
-5 -10 -11z"/>
<path d="M2830 3441 c0 -5 5 -13 10 -16 6 -3 10 -2 10 4 0 5 -4 13 -10 16 -5
3 -10 2 -10 -4z"/>
<path d="M2870 3380 c0 -11 4 -20 9 -20 5 0 7 9 4 20 -3 11 -7 20 -9 20 -2 0
-4 -9 -4 -20z"/>
<path d="M580 2838 c0 -9 5 -20 10 -23 13 -8 13 5 0 25 -8 13 -10 13 -10 -2z"/>
<path d="M849 2847 c-1 -4 -2 -11 -3 -16 0 -5 -4 -12 -7 -16 -12 -11 2 -44 17
-38 8 3 14 -1 14 -8 0 -7 2 -10 6 -7 3 3 26 -2 52 -11 36 -13 46 -22 44 -36
-3 -16 -2 -17 12 -6 14 12 9 19 -43 57 -32 23 -66 53 -75 66 -9 12 -17 19 -17
15z"/>
<path d="M680 2827 c27 -15 36 -14 25 2 -3 6 -16 11 -28 11 -21 0 -21 -1 3
-13z"/>
<path d="M1460 2790 c-8 -5 -41 -10 -72 -10 l-57 0 16 -42 c9 -24 22 -70 29
-103 l13 -60 0 45 c-1 25 0 52 0 61 1 16 30 48 86 94 29 24 17 36 -15 15z"/>
<path d="M2562 2654 c10 -10 20 -16 22 -13 3 3 -5 11 -17 18 -21 13 -21 12 -5
-5z"/>
<path d="M1410 2520 c0 -5 5 -10 11 -10 5 0 7 5 4 10 -3 6 -8 10 -11 10 -2 0
-4 -4 -4 -10z"/>
<path d="M1375 2510 c3 -5 8 -10 11 -10 2 0 4 5 4 10 0 6 -5 10 -11 10 -5 0
-7 -4 -4 -10z"/>
<path d="M1900 2500 c0 -5 5 -10 11 -10 5 0 7 5 4 10 -3 6 -8 10 -11 10 -2 0
-4 -4 -4 -10z"/>
<path d="M3150 2856 c0 -3 14 -12 30 -21 17 -9 30 -11 30 -6 0 5 -8 11 -17 15
-10 3 -24 9 -30 12 -7 3 -13 3 -13 0z"/>
<path d="M4106 2582 c-3 -5 1 -24 7 -44 11 -30 16 -34 34 -27 23 8 38 27 29
36 -3 3 -13 0 -22 -8 -16 -13 -17 -11 -11 12 5 20 3 29 -9 33 -20 8 -22 8 -28
-2z"/>
<path d="M3924 1883 c11 -11 46 -14 46 -3 0 6 -12 10 -27 10 -14 0 -23 -3 -19
-7z"/>
<path d="M2660 2880 c0 -5 7 -10 16 -10 8 0 12 5 9 10 -3 6 -10 10 -16 10 -5
0 -9 -4 -9 -10z"/>
<path d="M2670 2386 c0 -2 7 -7 16 -10 8 -3 12 -2 9 4 -6 10 -25 14 -25 6z"/>
<path d="M1915 2409 c-4 -6 -5 -12 -2 -15 2 -3 7 2 10 11 7 17 1 20 -8 4z"/>
<path d="M3386 2253 c6 -5 10 -16 8 -26 -1 -9 2 -15 7 -11 5 3 9 12 9 20 0 9
5 12 13 8 6 -4 9 -3 4 1 -4 5 -18 10 -30 12 -12 2 -17 0 -11 -4z"/>
<path d="M3443 2228 c-1 -11 1 -16 5 -12 4 5 11 12 15 15 5 3 2 9 -5 12 -9 3
-14 -3 -15 -15z"/>
<path d="M4005 1310 c-8 -13 15 -13 35 0 12 8 11 10 -7 10 -12 0 -25 -4 -28
-10z"/>
<path d="M3520 1220 c-11 -7 -8 -10 15 -9 17 0 39 4 50 9 16 7 14 9 -15 9 -19
0 -42 -4 -50 -9z"/>
<path d="M2130 849 c0 -5 5 -7 10 -4 6 3 10 8 10 11 0 2 -4 4 -10 4 -5 0 -10
-5 -10 -11z"/>
<path d="M4545 1420 c3 -5 8 -10 11 -10 2 0 4 5 4 10 0 6 -5 10 -11 10 -5 0
-7 -4 -4 -10z"/>
<path d="M2554 1238 c-5 -8 -2 -9 10 -5 10 4 27 2 39 -4 21 -10 21 -10 3 5
-24 19 -42 20 -52 4z"/>
<path d="M1285 690 c-3 -5 -1 -10 4 -10 6 0 11 5 11 10 0 6 -2 10 -4 10 -3 0
-8 -4 -11 -10z"/>
<path d="M2088 4273 c7 -3 16 -2 19 1 4 3 -2 6 -13 5 -11 0 -14 -3 -6 -6z"/>
<path d="M2380 4268 c0 -9 -8 -19 -17 -21 -13 -3 -14 -5 -3 -6 8 0 22 4 30 9
12 7 12 12 2 22 -9 9 -12 9 -12 -4z"/>
<path d="M1870 4261 c0 -10 19 -25 25 -20 1 2 -3 10 -11 17 -8 7 -14 8 -14 3z"/>
<path d="M643 4246 c-26 -12 -30 -26 -9 -26 25 0 46 12 46 26 0 16 -6 16 -37
0z"/>
<path d="M2067 4249 c7 -7 15 -10 18 -7 3 3 -2 9 -12 12 -14 6 -15 5 -6 -5z"/>
<path d="M2046 4237 c3 -10 9 -15 12 -12 3 3 0 11 -7 18 -10 9 -11 8 -5 -6z"/>
<path d="M2485 4227 c-4 -13 -8 -32 -9 -43 -2 -13 -10 -18 -25 -16 -13 1 -32
-5 -44 -13 -12 -8 -17 -15 -11 -15 5 0 15 5 21 11 14 14 47 4 38 -11 -11 -17
7 -11 21 8 8 10 13 12 14 5 0 -7 4 -13 9 -13 6 0 8 9 6 20 -2 11 3 23 11 28
13 7 13 10 -2 23 -16 12 -17 12 -11 -3 4 -10 2 -18 -5 -18 -6 0 -8 11 -4 30 7
35 -1 41 -9 7z"/>
<path d="M2196 4203 c-6 -14 -5 -15 5 -6 7 7 10 15 7 18 -3 3 -9 -2 -12 -12z"/>
<path d="M2420 4190 c-13 -9 -13 -10 0 -10 8 0 22 5 30 10 13 9 13 10 0 10 -8
0 -22 -5 -30 -10z"/>
<path d="M2140 4185 c0 0 9 -8 19 -17 18 -16 20 -15 18 1 0 9 -9 17 -19 17
-10 0 -18 -1 -18 -1z"/>
<path d="M2320 4175 c0 -8 -5 -15 -12 -15 -9 0 -9 -3 0 -12 15 -15 16 -31 1
-22 -14 8 -29 -14 -22 -33 4 -9 8 -11 12 -4 4 6 12 7 21 0 13 -8 13 -11 -2
-23 -22 -16 -22 -22 -4 -29 10 -4 13 -1 10 8 -3 7 4 18 15 25 17 9 21 8 21 -5
0 -10 -5 -13 -12 -9 -8 5 -9 2 -5 -10 4 -10 0 -24 -9 -34 -15 -14 -17 -14 -26
2 -8 15 -12 16 -19 5 -5 -8 -3 -22 4 -34 7 -11 13 -29 12 -40 0 -11 6 -26 13
-33 7 -8 9 -19 5 -25 -4 -6 0 -8 11 -4 14 5 15 3 6 -13 -6 -10 -11 -37 -13
-59 -2 -29 -11 -49 -32 -71 -22 -23 -25 -30 -12 -30 16 0 21 -10 18 -37 -1 -7
7 -9 19 -6 11 3 20 9 20 13 0 4 7 10 14 13 11 4 13 1 9 -11 -3 -9 -3 -14 2
-10 4 4 16 3 26 -2 11 -6 20 -6 24 -1 3 5 -3 12 -12 14 -11 3 -7 5 10 6 30 1
81 34 70 45 -3 3 -1 6 6 6 7 0 10 10 7 24 -3 18 1 25 15 29 21 6 27 -8 7 -16
-8 -4 -7 -6 3 -6 10 -1 19 9 21 24 3 13 1 22 -3 19 -18 -11 -8 9 14 27 12 10
17 18 10 19 -6 0 -15 -5 -18 -10 -5 -8 -12 -7 -22 2 -14 11 -15 10 -9 -10 4
-13 3 -22 -3 -22 -5 0 -13 9 -16 20 -3 11 -10 20 -15 20 -5 0 -12 17 -16 37
-6 31 -3 40 17 58 24 20 35 55 18 55 -5 0 -9 5 -9 10 0 6 7 10 17 10 15 0 14
2 -2 20 -9 10 -20 19 -24 18 -25 -3 -31 3 -22 21 8 14 7 22 -4 31 -8 7 -12 16
-9 21 6 11 1 11 -20 3 -9 -3 -16 -14 -17 -23 0 -10 -2 -11 -6 -3 -2 6 -15 12
-27 12 -29 0 -63 24 -48 34 15 9 16 26 2 26 -5 0 -10 -7 -10 -15z m64 -70 c-7
-16 -24 -21 -24 -6 0 8 7 13 27 20 1 1 0 -6 -3 -14z m86 -68 c0 -7 -6 -4 -14
6 -7 9 -22 17 -32 17 -15 0 -16 2 -5 9 8 5 10 14 6 22 -5 8 4 1 18 -14 15 -15
27 -33 27 -40z m-63 -9 c-3 -8 -6 -5 -6 6 -1 11 2 17 5 13 3 -3 4 -12 1 -19z
m43 -83 c0 -8 -7 -15 -15 -15 -26 0 -18 20 13 29 1 1 2 -6 2 -14z"/>
<path d="M2288 4173 c7 -3 16 -2 19 1 4 3 -2 6 -13 5 -11 0 -14 -3 -6 -6z"/>
<path d="M3909 4144 c-30 -37 43 -72 86 -41 18 14 18 16 -15 36 -42 25 -53 26
-71 5z"/>
<path d="M2170 4126 c6 -8 18 -12 26 -9 19 7 7 23 -18 23 -17 0 -18 -3 -8 -14z"/>
<path d="M2247 4091 c-4 -17 -3 -21 5 -13 5 5 8 16 6 23 -3 8 -7 3 -11 -10z"/>
<path d="M3021 4080 c0 -8 4 -22 9 -30 12 -18 12 -2 0 25 -6 13 -9 15 -9 5z"/>
<path d="M2750 4068 c0 -9 5 -20 10 -23 13 -8 13 5 0 25 -8 13 -10 13 -10 -2z"/>
<path d="M2270 4050 c-6 -11 -7 -20 -2 -20 6 0 12 9 15 20 3 11 3 20 1 20 -2
0 -8 -9 -14 -20z"/>
<path d="M2780 4009 c16 -13 19 -19 8 -15 -12 3 -15 1 -11 -10 3 -7 0 -14 -6
-14 -6 0 -11 5 -11 12 0 6 -3 8 -6 5 -4 -4 -2 -13 5 -21 6 -8 11 -18 10 -22
-4 -22 2 -35 12 -28 8 4 7 9 -2 15 -11 7 -10 9 4 9 9 0 17 5 17 11 0 5 -4 7
-10 4 -6 -3 -7 1 -4 10 5 12 9 13 20 4 12 -10 13 -8 8 7 -11 29 -27 49 -44 52
-9 1 -4 -7 10 -19z"/>
<path d="M2250 4012 c0 -7 -10 -17 -22 -22 -13 -5 -16 -9 -8 -9 32 0 50 13 40
29 -7 10 -10 11 -10 2z"/>
<path d="M4035 3969 c-11 -4 -16 -8 -11 -8 5 -1 3 -7 -3 -14 -6 -8 -8 -16 -5
-20 3 -3 -2 -21 -11 -41 -14 -29 -23 -36 -46 -36 -21 0 -27 -4 -23 -15 3 -8
-4 -32 -17 -54 -21 -39 -24 -40 -66 -36 -31 3 -45 0 -51 -12 -6 -10 -12 -12
-16 -5 -9 14 4 44 18 39 13 -4 46 35 46 55 0 8 11 25 25 38 14 13 23 30 20 37
-2 8 2 16 10 19 8 4 15 10 15 15 0 9 -63 -22 -68 -33 -2 -4 -11 -1 -20 8 -14
15 -16 15 -24 -5 -4 -12 -5 -27 -2 -34 3 -8 -10 -21 -31 -32 -19 -11 -35 -23
-35 -27 0 -4 -13 -22 -29 -40 -19 -23 -27 -41 -24 -60 6 -45 -14 -41 -21 5 -6
36 -9 39 -18 23 -8 -14 -7 -21 3 -27 12 -8 12 -11 -1 -19 -8 -5 -20 -10 -26
-10 -12 0 -29 -28 -26 -42 1 -5 -2 -8 -8 -8 -5 0 -10 -6 -10 -13 0 -7 -14 -18
-31 -24 -28 -11 -33 -9 -55 12 -16 16 -24 19 -24 10 0 -8 4 -17 10 -20 5 -3
15 -16 20 -28 11 -21 11 -21 -4 -3 -9 11 -18 18 -20 15 -8 -7 39 -92 53 -97 9
-3 8 3 -4 21 -9 14 -12 28 -7 31 6 3 13 -5 16 -19 4 -14 11 -25 17 -25 8 0 7
-5 -1 -15 -9 -10 -9 -15 -1 -15 8 0 8 -6 0 -22 -34 -65 -34 -61 5 -55 22 3 36
2 36 -5 0 -5 7 -8 15 -4 8 3 15 1 15 -5 0 -6 4 -7 10 -4 5 3 49 7 97 9 49 2
99 6 113 10 14 4 46 8 72 10 47 2 98 34 98 60 0 5 13 46 29 90 17 45 33 102
36 127 5 40 11 49 38 62 l31 16 -27 12 c-17 8 -36 30 -50 61 -12 26 -28 48
-34 48 -23 0 -14 18 15 32 15 7 27 20 27 28 0 8 5 18 10 22 6 5 3 8 -7 8 -9 0
-18 4 -20 9 -1 4 -12 5 -23 0z m-15 -118 c0 -12 -20 -25 -27 -18 -7 7 6 27 18
27 5 0 9 -4 9 -9z m25 -21 c3 -5 1 -10 -4 -10 -6 0 -11 5 -11 10 0 6 2 10 4
10 3 0 8 -4 11 -10z m-215 -10 c0 -5 -5 -10 -11 -10 -5 0 -7 5 -4 10 3 6 8 10
11 10 2 0 4 -4 4 -10z m-85 -70 c3 -5 -1 -10 -9 -10 -9 0 -16 5 -16 10 0 6 4
10 9 10 6 0 13 -4 16 -10z m135 -29 c0 -13 -43 -22 -53 -12 -5 5 -4 12 2 15 6
4 11 1 11 -6 0 -8 5 -6 11 5 10 17 29 15 29 -2z m130 4 c0 -8 -4 -15 -10 -15
-5 0 -10 7 -10 15 0 8 5 15 10 15 6 0 10 -7 10 -15z m-390 -104 c0 -5 -7 -11
-14 -14 -10 -4 -13 -1 -9 9 6 15 23 19 23 5z m-50 -41 c0 -5 -5 -10 -11 -10
-5 0 -7 5 -4 10 3 6 8 10 11 10 2 0 4 -4 4 -10z m-30 -20 c0 -5 -4 -10 -10
-10 -5 0 -10 5 -10 10 0 6 5 10 10 10 6 0 10 -4 10 -10z"/>
<path d="M3725 3930 c3 -5 8 -10 11 -10 2 0 4 5 4 10 0 6 -5 10 -11 10 -5 0
-7 -4 -4 -10z"/>
<path d="M4274 3924 c3 -9 6 -18 6 -20 0 -2 6 -4 14 -4 9 0 12 7 9 20 -3 11
-12 20 -20 20 -10 0 -13 -6 -9 -16z"/>
<path d="M3756 3889 c-20 -34 -14 -49 12 -33 18 11 30 64 15 64 -5 0 -17 -14
-27 -31z"/>
<path d="M4520 3902 c0 -12 7 -25 15 -29 24 -9 25 0 5 27 l-20 25 0 -23z"/>
<path d="M3700 3900 c0 -5 7 -7 15 -4 8 4 15 8 15 10 0 2 -7 4 -15 4 -8 0 -15
-4 -15 -10z"/>
<path d="M4451 3854 c0 -11 3 -14 6 -6 3 7 2 16 -1 19 -3 4 -6 -2 -5 -13z"/>
<path d="M4600 3805 c0 -8 9 -19 19 -25 28 -15 33 -12 19 10 -16 25 -38 34
-38 15z"/>
<path d="M2292 3774 c-10 -12 -10 -14 2 -14 17 0 30 16 19 23 -5 3 -14 -1 -21
-9z"/>
<path d="M3000 3770 c0 -5 5 -10 11 -10 5 0 7 5 4 10 -3 6 -8 10 -11 10 -2 0
-4 -4 -4 -10z"/>
<path d="M3555 3770 c3 -5 11 -10 16 -10 6 0 7 5 4 10 -3 6 -11 10 -16 10 -6
0 -7 -4 -4 -10z"/>
<path d="M3465 3760 c3 -5 8 -10 11 -10 2 0 4 5 4 10 0 6 -5 10 -11 10 -5 0
-7 -4 -4 -10z"/>
<path d="M2515 3740 c3 -5 8 -10 11 -10 2 0 4 5 4 10 0 6 -5 10 -11 10 -5 0
-7 -4 -4 -10z"/>
<path d="M3018 3743 c7 -3 16 -2 19 1 4 3 -2 6 -13 5 -11 0 -14 -3 -6 -6z"/>
<path d="M3535 3740 c3 -5 8 -10 11 -10 2 0 4 5 4 10 0 6 -5 10 -11 10 -5 0
-7 -4 -4 -10z"/>
<path d="M3600 3723 c-20 -8 -44 -33 -32 -33 5 0 20 9 33 20 25 20 25 23 -1
13z"/>
<path d="M3321 3704 c0 -11 3 -14 6 -6 3 7 2 16 -1 19 -3 4 -6 -2 -5 -13z"/>
<path d="M4400 3706 c0 -8 5 -18 10 -21 6 -3 10 1 10 9 0 8 -4 18 -10 21 -5 3
-10 -1 -10 -9z"/>
<path d="M3080 3700 c0 -5 5 -10 11 -10 5 0 7 5 4 10 -3 6 -8 10 -11 10 -2 0
-4 -4 -4 -10z"/>
<path d="M4710 3647 c0 -37 39 -124 64 -139 30 -20 34 -5 7 30 -16 20 -34 55
-40 77 -17 63 -31 77 -31 32z"/>
<path d="M2575 3660 c3 -5 8 -10 11 -10 2 0 4 5 4 10 0 6 -5 10 -11 10 -5 0
-7 -4 -4 -10z"/>
<path d="M3110 3660 c0 -5 5 -10 10 -10 6 0 10 5 10 10 0 6 -4 10 -10 10 -5 0
-10 -4 -10 -10z"/>
<path d="M2482 3635 c1 -14 6 -25 10 -25 4 0 8 11 8 25 0 14 -4 25 -10 25 -5
0 -9 -11 -8 -25z"/>
<path d="M3555 3650 c-3 -5 -1 -10 4 -10 6 0 11 5 11 10 0 6 -2 10 -4 10 -3 0
-8 -4 -11 -10z"/>
<path d="M4464 3644 c9 -8 16 -21 16 -27 1 -18 48 -49 68 -45 9 2 18 11 20 21
3 12 -3 17 -22 17 -16 0 -27 7 -31 20 -3 11 -9 20 -13 21 -4 0 -17 2 -30 5
-21 4 -22 3 -8 -12z"/>
<path d="M4121 3578 c0 -33 2 -38 9 -23 12 28 12 65 0 65 -5 0 -10 -19 -9 -42z"/>
<path d="M4573 3578 c-7 -9 -5 -21 4 -38 14 -23 14 -24 10 -3 -8 35 10 37 24
4 14 -31 34 -41 82 -41 42 0 32 20 -10 21 -24 1 -29 3 -15 6 21 4 21 5 5 21
-9 9 -19 15 -21 14 -3 -2 -8 1 -11 6 -11 18 -57 24 -68 10z"/>
<path d="M3718 3348 c-9 -5 -6 -8 9 -8 12 0 24 4 27 8 7 11 -19 11 -36 0z"/>
<path d="M3644 3341 c3 -5 15 -7 26 -4 28 7 25 13 -6 13 -14 0 -23 -4 -20 -9z"/>
<path d="M4468 473 c7 -3 16 -2 19 1 4 3 -2 6 -13 5 -11 0 -14 -3 -6 -6z"/>
</g>
</svg>
